<svg width="2875" height="4330" xmlns="http://www.w3.org/2000/svg" xmlns:xlink="http://www.w3.org/1999/xlink" xml:space="preserve" overflow="hidden"><defs><clipPath id="clip0"><rect x="447" y="4404" width="2875" height="4330"/></clipPath></defs><g clip-path="url(#clip0)" transform="translate(-447 -4404)"><rect x="448" y="4405" width="2872" height="4327" fill="#FFFFFF"/><g><path d="M952.531 4713.5 952.531 8625.5M1010.53 4713.5 1010.53 8625.5M1069.54 4713.5 1069.54 8625.5M1128.54 4713.5 1128.54 8625.5M1245.54 4713.5 1245.54 8625.5M1304.54 4713.5 1304.54 8625.5M1362.54 4713.5 1362.54 8625.5M1421.55 4713.5 1421.55 8625.5M1538.55 4713.5 1538.55 8625.5M1597.55 4713.5 1597.55 8625.5M1655.55 4713.5 1655.55 8625.5M1714.56 4713.5 1714.56 8625.5M1831.56 4713.5 1831.56 8625.5M1890.56 4713.5 1890.56 8625.5M1948.56 4713.5 1948.56 8625.5M2007.57 4713.5 2007.57 8625.5M2124.57 4713.5 2124.57 8625.5M2183.57 4713.5 2183.57 8625.5M2241.57 4713.5 2241.57 8625.5M2300.58 4713.5 2300.58 8625.5M2417.58 4713.5 2417.58 8625.5M2476.58 4713.5 2476.58 8625.5M2534.58 4713.5 2534.58 8625.5M2593.59 4713.5 2593.59 8625.5M2710.59 4713.5 2710.59 8625.5M2769.59 4713.5 2769.59 8625.5M2827.59 4713.5 2827.59 8625.5M2886.59 4713.5 2886.59 8625.5M3003.6 4713.5 3003.6 8625.5M3062.6 4713.5 3062.6 8625.5M3120.6 4713.5 3120.6 8625.5M3179.6 4713.5 3179.6 8625.5" stroke="#F2F2F2" stroke-width="3.4375" stroke-linejoin="round" stroke-miterlimit="10" fill="none"/></g><g><path d="M1186.54 4713.5 1186.54 8625.5M1479.55 4713.5 1479.55 8625.5M1772.56 4713.5 1772.56 8625.5M2065.57 4713.5 2065.57 8625.5M2358.58 4713.5 2358.58 8625.5M2651.59 4713.5 2651.59 8625.5M2944.6 4713.5 2944.6 8625.5M3238.5 4713.5 3238.5 8625.5" stroke="#D9D9D9" stroke-width="3.4375" stroke-linejoin="round" stroke-miterlimit="10" fill="none"/></g><g><path d="M893.5 8625.5 3238.5 8625.5M893.5 8419.78 3238.5 8419.78M893.5 8213.77 3238.5 8213.77M893.5 8007.76 3238.5 8007.76M893.5 7802.76 3238.5 7802.76M893.5 7596.75 3238.5 7596.75M893.5 7390.74 3238.5 7390.74M893.5 7184.74 3238.5 7184.74M893.5 6978.73 3238.5 6978.73M893.5 6772.72 3238.5 6772.72M893.5 6566.72 3238.5 6566.72M893.5 6360.71 3238.5 6360.71M893.5 6154.7 3238.5 6154.7M893.5 5948.7 3238.5 5948.7M893.5 5742.69 3238.5 5742.69M893.5 5536.68 3238.5 5536.68M893.5 5330.67 3238.5 5330.67M893.5 5125.67 3238.5 5125.67M893.5 4919.66 3238.5 4919.66M893.5 4713.5 3238.5 4713.5" stroke="#D9D9D9" stroke-width="3.4375" stroke-linejoin="round" stroke-miterlimit="10" stroke-dasharray="27.5 10.3125" fill="none"/></g><g><path d="M916.03 8598.28 894 8598.28 894 8556.28 916.03 8556.28ZM937.031 8392.28 894 8392.28 894 8350.27 937.031 8350.27ZM989.032 8186.27 894 8186.27 894 8144.27 989.032 8144.27ZM1019.03 7980.26 894 7980.26 894 7938.26 1019.03 7938.26ZM1084.04 7774.25 894 7774.25 894 7732.25 1084.04 7732.25ZM999.033 7568.25 894 7568.25 894 7526.25 999.033 7526.25ZM1024.03 7362.24 894 7362.24 894 7320.24 1024.03 7320.24ZM980.032 7156.23 894 7156.23 894 7115.23 980.032 7115.23ZM999.033 6950.23 894 6950.23 894 6909.23 999.033 6909.23ZM1493.05 6744.22 894 6744.22 894 6703.22 1493.05 6703.22ZM1021.03 6538.21 894 6538.21 894 6497.21 1021.03 6497.21ZM1726.06 6332.21 894 6332.21 894 6291.21 1726.06 6291.21ZM1435.05 6127.2 894 6127.2 894 6085.2 1435.05 6085.2ZM1969.06 5921.19 894 5921.19 894 5879.19 1969.06 5879.19ZM1561.05 5715.19 894 5715.19 894 5673.19 1561.05 5673.19ZM1355.04 5509.18 894 5509.18 894 5467.18 1355.04 5467.18ZM1544.05 5303.17 894 5303.17 894 5261.17 1544.05 5261.17ZM1549.05 5097.17 894 5097.17 894 5055.17 1549.05 5055.17ZM1676.05 4891.16 894 4891.16 894 4849.16 1676.05 4849.16Z" fill="#156082"/></g><g><path d="M917.03 8544.28 894 8544.28 894 8502.28 917.03 8502.28ZM974.032 8338.27 894 8338.27 894 8296.27 974.032 8296.27ZM1053.03 8132.27 894 8132.27 894 8090.27 1053.03 8090.27ZM1019.03 7926.26 894 7926.26 894 7884.26 1019.03 7884.26ZM1021.03 7720.25 894 7720.25 894 7678.25 1021.03 7678.25ZM1000.03 7514.25 894 7514.25 894 7472.25 1000.03 7472.25ZM944.031 7308.24 894 7308.24 894 7266.24 944.031 7266.24ZM1005.03 7102.23 894 7102.23 894 7060.23 1005.03 7060.23ZM1076.04 6896.23 894 6896.23 894 6855.22 1076.04 6855.22ZM1997.07 6690.22 894 6690.22 894 6649.22 1997.07 6649.22ZM1021.03 6484.21 894 6484.21 894 6443.21 1021.03 6443.21ZM1308.04 6278.21 894 6278.21 894 6237.2 1308.04 6237.2ZM1460.05 6072.2 894 6072.2 894 6031.2 1460.05 6031.2ZM3009.1 5867.19 894 5867.19 894 5825.19 3009.1 5825.19ZM1563.05 5661.19 894 5661.19 894 5619.18 1563.05 5619.18ZM1239.04 5455.18 894 5455.18 894 5413.18 1239.04 5413.18ZM1582.05 5249.17 894 5249.17 894 5207.17 1582.05 5207.17ZM1592.05 5043.17 894 5043.17 894 5001.16 1592.05 5001.16ZM1560.05 4837.16 894 4837.16 894 4795.16 1560.05 4795.16Z" fill="#E97132"/></g><g><path d="M916.03 8489.28 894 8489.28 894 8448.28 916.03 8448.28ZM937.031 8284.27 894 8284.27 894 8242.27 937.031 8242.27ZM939.031 8078.26 894 8078.26 894 8036.26 939.031 8036.26ZM947.031 7872.26 894 7872.26 894 7830.26 947.031 7830.26ZM947.031 7666.25 894 7666.25 894 7624.25 947.031 7624.25ZM948.031 7460.24 894 7460.24 894 7418.24 948.031 7418.24ZM948.031 7254.24 894 7254.24 894 7212.24 948.031 7212.24ZM980.032 7048.23 894 7048.23 894 7006.23 980.032 7006.23ZM1016.03 6842.22 894 6842.22 894 6800.22 1016.03 6800.22ZM1026.03 6636.22 894 6636.22 894 6595.22 1026.03 6595.22ZM1061.03 6430.21 894 6430.21 894 6389.21 1061.03 6389.21ZM1310.04 6224.2 894 6224.2 894 6183.2 1310.04 6183.2ZM1419.05 6018.2 894 6018.2 894 5977.2 1419.05 5977.2ZM1449.05 5812.19 894 5812.19 894 5771.19 1449.05 5771.19ZM1498.05 5607.18 894 5607.18 894 5565.18 1498.05 5565.18ZM1503.05 5401.18 894 5401.18 894 5359.18 1503.05 5359.18ZM1510.05 5195.17 894 5195.17 894 5153.17 1510.05 5153.17ZM1533.05 4989.16 894 4989.16 894 4947.16 1533.05 4947.16ZM1665.05 4783.16 894 4783.16 894 4741.16 1665.05 4741.16Z" fill="#196B24"/></g><g><path d="M0 0 0.000360892 3912" stroke="#D9D9D9" stroke-width="3.4375" stroke-linejoin="round" stroke-miterlimit="10" fill="none" fill-rule="evenodd" transform="matrix(1 0 0 -1 893.5 8625.5)"/></g><g><path d="M880.5 8625.5 906.5 8625.5M880.5 8419.78 906.5 8419.78M880.5 8213.77 906.5 8213.77M880.5 8007.76 906.5 8007.76M880.5 7802.76 906.5 7802.76M880.5 7596.75 906.5 7596.75M880.5 7390.74 906.5 7390.74M880.5 7184.74 906.5 7184.74M880.5 6978.73 906.5 6978.73M880.5 6772.72 906.5 6772.72M880.5 6566.72 906.5 6566.72M880.5 6360.71 906.5 6360.71M880.5 6154.7 906.5 6154.7M880.5 5948.7 906.5 5948.7M880.5 5742.69 906.5 5742.69M880.5 5536.68 906.5 5536.68M880.5 5330.67 906.5 5330.67M880.5 5125.67 906.5 5125.67M880.5 4919.66 906.5 4919.66M880.5 4713.5 906.5 4713.5" stroke="#D9D9D9" stroke-width="3.4375" stroke-linejoin="round" stroke-miterlimit="10" fill="none"/></g><g><text font-family="Aptos Narrow,Aptos Narrow_MSFontService,sans-serif" font-weight="400" font-stretch="semi-condensed" font-size="41" transform="matrix(1 0 0 1 943.325 8591)">7.5</text></g><g><text font-family="Aptos Narrow,Aptos Narrow_MSFontService,sans-serif" font-weight="400" font-stretch="semi-condensed" font-size="41" transform="matrix(1 0 0 1 964.783 8385)">14.8</text></g><g><text fill="#FFFFFF" font-family="Aptos Narrow,Aptos Narrow_MSFontService,sans-serif" font-weight="400" font-stretch="semi-condensed" font-size="41" transform="matrix(1 0 0 1 903.003 8179)">32.6</text></g><g><text fill="#FFFFFF" font-family="Aptos Narrow,Aptos Narrow_MSFontService,sans-serif" font-weight="400" font-stretch="semi-condensed" font-size="41" transform="matrix(1 0 0 1 921.312 7973)">42.8</text></g><g><text fill="#FFFFFF" font-family="Aptos Narrow,Aptos Narrow_MSFontService,sans-serif" font-weight="400" font-stretch="semi-condensed" font-size="41" transform="matrix(1 0 0 1 983.372 7767)">65.0</text></g><g><text fill="#FFFFFF" font-family="Aptos Narrow,Aptos Narrow_MSFontService,sans-serif" font-weight="400" font-stretch="semi-condensed" font-size="41" transform="matrix(1 0 0 1 912.26 7561)">35.9</text></g><g><text fill="#FFFFFF" font-family="Aptos Narrow,Aptos Narrow_MSFontService,sans-serif" font-weight="400" font-stretch="semi-condensed" font-size="41" transform="matrix(1 0 0 1 922.978 7355)">44.4</text></g><g><text fill="#FFFFFF" font-family="Aptos Narrow,Aptos Narrow_MSFontService,sans-serif" font-weight="400" font-stretch="semi-condensed" font-size="41" transform="matrix(1 0 0 1 898.379 7149)">29.6</text></g><g><text fill="#FFFFFF" font-family="Aptos Narrow,Aptos Narrow_MSFontService,sans-serif" font-weight="400" font-stretch="semi-condensed" font-size="41" transform="matrix(1 0 0 1 912.261 6943)">36.1</text></g><g><text fill="#FFFFFF" font-family="Aptos Narrow,Aptos Narrow_MSFontService,sans-serif" font-weight="400" font-stretch="semi-condensed" font-size="41" transform="matrix(1 0 0 1 1371.23 6738)">204.5</text></g><g><text fill="#FFFFFF" font-family="Aptos Narrow,Aptos Narrow_MSFontService,sans-serif" font-weight="400" font-stretch="semi-condensed" font-size="41" transform="matrix(1 0 0 1 921.312 6532)">43.6</text></g><g><text fill="#FFFFFF" font-family="Aptos Narrow,Aptos Narrow_MSFontService,sans-serif" font-weight="400" font-stretch="semi-condensed" font-size="41" transform="matrix(1 0 0 1 1603.75 6326)">283.9</text></g><g><text fill="#FFFFFF" font-family="Aptos Narrow,Aptos Narrow_MSFontService,sans-serif" font-weight="400" font-stretch="semi-condensed" font-size="41" transform="matrix(1 0 0 1 1313.21 6120)">184.7</text></g><g><text fill="#FFFFFF" font-family="Aptos Narrow,Aptos Narrow_MSFontService,sans-serif" font-weight="400" font-stretch="semi-condensed" font-size="41" transform="matrix(1 0 0 1 1847.26 5914)">367.0</text></g><g><text fill="#FFFFFF" font-family="Aptos Narrow,Aptos Narrow_MSFontService,sans-serif" font-weight="400" font-stretch="semi-condensed" font-size="41" transform="matrix(1 0 0 1 1439.51 5708)">227.8</text></g><g><text fill="#FFFFFF" font-family="Aptos Narrow,Aptos Narrow_MSFontService,sans-serif" font-weight="400" font-stretch="semi-condensed" font-size="41" transform="matrix(1 0 0 1 1233.51 5502)">157.5</text></g><g><text fill="#FFFFFF" font-family="Aptos Narrow,Aptos Narrow_MSFontService,sans-serif" font-weight="400" font-stretch="semi-condensed" font-size="41" transform="matrix(1 0 0 1 1422.37 5296)">222.0</text></g><g><text fill="#FFFFFF" font-family="Aptos Narrow,Aptos Narrow_MSFontService,sans-serif" font-weight="400" font-stretch="semi-condensed" font-size="41" transform="matrix(1 0 0 1 1426.91 5090)">223.5</text></g><g><text fill="#FFFFFF" font-family="Aptos Narrow,Aptos Narrow_MSFontService,sans-serif" font-weight="400" font-stretch="semi-condensed" font-size="41" transform="matrix(1 0 0 1 1553.94 4884)">266.9</text></g><g><text font-family="Aptos Narrow,Aptos Narrow_MSFontService,sans-serif" font-weight="400" font-stretch="semi-condensed" font-size="41" transform="matrix(1 0 0 1 944.125 8537)">7.8</text></g><g><text font-family="Aptos Narrow,Aptos Narrow_MSFontService,sans-serif" font-weight="400" font-stretch="semi-condensed" font-size="41" transform="matrix(1 0 0 1 1001.91 8331)">27.5</text></g><g><text fill="#FFFFFF" font-family="Aptos Narrow,Aptos Narrow_MSFontService,sans-serif" font-weight="400" font-stretch="semi-condensed" font-size="41" transform="matrix(1 0 0 1 952.047 8125)">54.3</text></g><g><text fill="#FFFFFF" font-family="Aptos Narrow,Aptos Narrow_MSFontService,sans-serif" font-weight="400" font-stretch="semi-condensed" font-size="41" transform="matrix(1 0 0 1 921.312 7919)">42.9</text></g><g><text fill="#FFFFFF" font-family="Aptos Narrow,Aptos Narrow_MSFontService,sans-serif" font-weight="400" font-stretch="semi-condensed" font-size="41" transform="matrix(1 0 0 1 921.312 7713)">43.6</text></g><g><g><text fill="#FFFFFF" font-family="Aptos Narrow,Aptos Narrow_MSFontService,sans-serif" font-weight="400" font-stretch="semi-condensed" font-size="41" transform="matrix(1 0 0 1 917.277 7509)">36.1</text></g></g><g><text font-family="Aptos Narrow,Aptos Narrow_MSFontService,sans-serif" font-weight="400" font-stretch="semi-condensed" font-size="41" transform="matrix(1 0 0 1 971.845 7301)">17.2</text></g><g><text fill="#FFFFFF" font-family="Aptos Narrow,Aptos Narrow_MSFontService,sans-serif" font-weight="400" font-stretch="semi-condensed" font-size="41" transform="matrix(1 0 0 1 921.312 7095)">38.0</text></g><g><text fill="#FFFFFF" font-family="Aptos Narrow,Aptos Narrow_MSFontService,sans-serif" font-weight="400" font-stretch="semi-condensed" font-size="41" transform="matrix(1 0 0 1 974.932 6889)">62.1</text></g><g><text fill="#FFFFFF" font-family="Aptos Narrow,Aptos Narrow_MSFontService,sans-serif" font-weight="400" font-stretch="semi-condensed" font-size="41" transform="matrix(1 0 0 1 1875.25 6683)">376.5</text></g><g><text fill="#FFFFFF" font-family="Aptos Narrow,Aptos Narrow_MSFontService,sans-serif" font-weight="400" font-stretch="semi-condensed" font-size="41" transform="matrix(1 0 0 1 921.312 6478)">43.6</text></g><g><text fill="#FFFFFF" font-family="Aptos Narrow,Aptos Narrow_MSFontService,sans-serif" font-weight="400" font-stretch="semi-condensed" font-size="41" transform="matrix(1 0 0 1 1186.33 6272)">141.4</text></g><g><text fill="#FFFFFF" font-family="Aptos Narrow,Aptos Narrow_MSFontService,sans-serif" font-weight="400" font-stretch="semi-condensed" font-size="41" transform="matrix(1 0 0 1 1338.71 6066)">193.4</text></g><g><text fill="#FFFFFF" font-family="Aptos Narrow,Aptos Narrow_MSFontService,sans-serif" font-weight="400" font-stretch="semi-condensed" font-size="41" transform="matrix(1 0 0 1 2887.67 5860)">722.0</text></g><g><text fill="#FFFFFF" font-family="Aptos Narrow,Aptos Narrow_MSFontService,sans-serif" font-weight="400" font-stretch="semi-condensed" font-size="41" transform="matrix(1 0 0 1 1441.71 5654)">228.6</text></g><g><text fill="#FFFFFF" font-family="Aptos Narrow,Aptos Narrow_MSFontService,sans-serif" font-weight="400" font-stretch="semi-condensed" font-size="41" transform="matrix(1 0 0 1 1116.74 5448)">117.7</text></g><g><text fill="#FFFFFF" font-family="Aptos Narrow,Aptos Narrow_MSFontService,sans-serif" font-weight="400" font-stretch="semi-condensed" font-size="41" transform="matrix(1 0 0 1 1460.17 5242)">234.9</text></g><g><text fill="#FFFFFF" font-family="Aptos Narrow,Aptos Narrow_MSFontService,sans-serif" font-weight="400" font-stretch="semi-condensed" font-size="41" transform="matrix(1 0 0 1 1470.57 5036)">238.4</text></g><g><text fill="#FFFFFF" font-family="Aptos Narrow,Aptos Narrow_MSFontService,sans-serif" font-weight="400" font-stretch="semi-condensed" font-size="41" transform="matrix(1 0 0 1 1438.05 4830)">227.3</text></g><g><text font-family="Aptos Narrow,Aptos Narrow_MSFontService,sans-serif" font-weight="400" font-stretch="semi-condensed" font-size="41" transform="matrix(1 0 0 1 943.289 8483)">7.5</text></g><g><text font-family="Aptos Narrow,Aptos Narrow_MSFontService,sans-serif" font-weight="400" font-stretch="semi-condensed" font-size="41" transform="matrix(1 0 0 1 964.754 8277)">14.8</text></g><g><text font-family="Aptos Narrow,Aptos Narrow_MSFontService,sans-serif" font-weight="400" font-stretch="semi-condensed" font-size="41" transform="matrix(1 0 0 1 966.967 8071)">15.6</text></g><g><text font-family="Aptos Narrow,Aptos Narrow_MSFontService,sans-serif" font-weight="400" font-stretch="semi-condensed" font-size="41" transform="matrix(1 0 0 1 974.673 7865)">18.2</text></g><g><text font-family="Aptos Narrow,Aptos Narrow_MSFontService,sans-serif" font-weight="400" font-stretch="semi-condensed" font-size="41" transform="matrix(1 0 0 1 974.688 7659)">18.2</text></g><g><text font-family="Aptos Narrow,Aptos Narrow_MSFontService,sans-serif" font-weight="400" font-stretch="semi-condensed" font-size="41" transform="matrix(1 0 0 1 975.142 7453)">18.4</text></g><g><text font-family="Aptos Narrow,Aptos Narrow_MSFontService,sans-serif" font-weight="400" font-stretch="semi-condensed" font-size="41" transform="matrix(1 0 0 1 975.889 7247)">18.6</text></g><g><text fill="#FFFFFF" font-family="Aptos Narrow,Aptos Narrow_MSFontService,sans-serif" font-weight="400" font-stretch="semi-condensed" font-size="41" transform="matrix(1 0 0 1 898.38 7041)">29.5</text></g><g><text fill="#FFFFFF" font-family="Aptos Narrow,Aptos Narrow_MSFontService,sans-serif" font-weight="400" font-stretch="semi-condensed" font-size="41" transform="matrix(1 0 0 1 921.312 6835)">41.6</text></g><g><text fill="#FFFFFF" font-family="Aptos Narrow,Aptos Narrow_MSFontService,sans-serif" font-weight="400" font-stretch="semi-condensed" font-size="41" transform="matrix(1 0 0 1 924.927 6629)">45.1</text></g><g><text fill="#FFFFFF" font-family="Aptos Narrow,Aptos Narrow_MSFontService,sans-serif" font-weight="400" font-stretch="semi-condensed" font-size="41" transform="matrix(1 0 0 1 960.017 6423)">57.0</text></g><g><text fill="#FFFFFF" font-family="Aptos Narrow,Aptos Narrow_MSFontService,sans-serif" font-weight="400" font-stretch="semi-condensed" font-size="41" transform="matrix(1 0 0 1 1188.53 6218)">142.2</text></g><g><text fill="#FFFFFF" font-family="Aptos Narrow,Aptos Narrow_MSFontService,sans-serif" font-weight="400" font-stretch="semi-condensed" font-size="41" transform="matrix(1 0 0 1 1296.8 6012)">179.1</text></g><g><text fill="#FFFFFF" font-family="Aptos Narrow,Aptos Narrow_MSFontService,sans-serif" font-weight="400" font-stretch="semi-condensed" font-size="41" transform="matrix(1 0 0 1 1327.28 5806)">189.5</text></g><g><text fill="#FFFFFF" font-family="Aptos Narrow,Aptos Narrow_MSFontService,sans-serif" font-weight="400" font-stretch="semi-condensed" font-size="41" transform="matrix(1 0 0 1 1376.51 5600)">206.3</text></g><g><text fill="#FFFFFF" font-family="Aptos Narrow,Aptos Narrow_MSFontService,sans-serif" font-weight="400" font-stretch="semi-condensed" font-size="41" transform="matrix(1 0 0 1 1381.05 5394)">207.9</text></g><g><text fill="#FFFFFF" font-family="Aptos Narrow,Aptos Narrow_MSFontService,sans-serif" font-weight="400" font-stretch="semi-condensed" font-size="41" transform="matrix(1 0 0 1 1388.23 5188)">210.3</text></g><g><text fill="#FFFFFF" font-family="Aptos Narrow,Aptos Narrow_MSFontService,sans-serif" font-weight="400" font-stretch="semi-condensed" font-size="41" transform="matrix(1 0 0 1 1411.53 4982)">218.3</text></g><g><text fill="#FFFFFF" font-family="Aptos Narrow,Aptos Narrow_MSFontService,sans-serif" font-weight="400" font-stretch="semi-condensed" font-size="41" transform="matrix(1 0 0 1 1543.39 4776)">263.3</text></g><g><text font-family="Aptos Narrow,Aptos Narrow_MSFontService,sans-serif" font-weight="400" font-stretch="semi-condensed" font-size="41" transform="matrix(1 0 0 1 883.362 8691)">0</text></g><g><text font-family="Aptos Narrow,Aptos Narrow_MSFontService,sans-serif" font-weight="400" font-stretch="semi-condensed" font-size="41" transform="matrix(1 0 0 1 1155.49 8691)">100</text></g><g><text font-family="Aptos Narrow,Aptos Narrow_MSFontService,sans-serif" font-weight="400" font-stretch="semi-condensed" font-size="41" transform="matrix(1 0 0 1 1448.52 8691)">200</text></g><g><text font-family="Aptos Narrow,Aptos Narrow_MSFontService,sans-serif" font-weight="400" font-stretch="semi-condensed" font-size="41" transform="matrix(1 0 0 1 1741.55 8691)">300</text></g><g><text font-family="Aptos Narrow,Aptos Narrow_MSFontService,sans-serif" font-weight="400" font-stretch="semi-condensed" font-size="41" transform="matrix(1 0 0 1 2034.58 8691)">400</text></g><g><text font-family="Aptos Narrow,Aptos Narrow_MSFontService,sans-serif" font-weight="400" font-stretch="semi-condensed" font-size="41" transform="matrix(1 0 0 1 2327.62 8691)">500</text></g><g><text font-family="Aptos Narrow,Aptos Narrow_MSFontService,sans-serif" font-weight="400" font-stretch="semi-condensed" font-size="41" transform="matrix(1 0 0 1 2620.65 8691)">600</text></g><g><text font-family="Aptos Narrow,Aptos Narrow_MSFontService,sans-serif" font-weight="400" font-stretch="semi-condensed" font-size="41" transform="matrix(1 0 0 1 2913.68 8691)">700</text></g><g><text font-family="Aptos Narrow,Aptos Narrow_MSFontService,sans-serif" font-weight="400" font-stretch="semi-condensed" font-size="41" transform="matrix(1 0 0 1 3206.71 8691)">800</text></g><g><text font-family="Aptos Narrow,Aptos Narrow_MSFontService,sans-serif" font-weight="400" font-stretch="semi-condensed" font-size="41" transform="matrix(1 0 0 1 593.767 8535)">Sum simple ints</text></g><g><text font-family="Aptos Narrow,Aptos Narrow_MSFontService,sans-serif" font-weight="400" font-stretch="semi-condensed" font-size="41" transform="matrix(1 0 0 1 651.173 8329)">Sum int field</text></g><g><text font-family="Aptos Narrow,Aptos Narrow_MSFontService,sans-serif" font-weight="400" font-stretch="semi-condensed" font-size="41" transform="matrix(1 0 0 1 556.871 8123)">Minimums by field</text></g><g><text font-family="Aptos Narrow,Aptos Narrow_MSFontService,sans-serif" font-weight="400" font-stretch="semi-condensed" font-size="41" transform="matrix(1 0 0 1 501.756 7917)">Convert: int -&gt; double</text></g><g><text font-family="Aptos Narrow,Aptos Narrow_MSFontService,sans-serif" font-weight="400" font-stretch="semi-condensed" font-size="41" transform="matrix(1 0 0 1 598.923 7711)">Square doubles</text></g><g><text font-family="Aptos Narrow,Aptos Narrow_MSFontService,sans-serif" font-weight="400" font-stretch="semi-condensed" font-size="41" transform="matrix(1 0 0 1 599.542 7505)">Square integers</text></g><g><text font-family="Aptos Narrow,Aptos Narrow_MSFontService,sans-serif" font-weight="400" font-stretch="semi-condensed" font-size="41" transform="matrix(1 0 0 1 533.679 7299)">Small POD iteration</text></g><g><text font-family="Aptos Narrow,Aptos Narrow_MSFontService,sans-serif" font-weight="400" font-stretch="semi-condensed" font-size="41" transform="matrix(1 0 0 1 538.125 7093)">Naive-sum doubles</text></g><g><text font-family="Aptos Narrow,Aptos Narrow_MSFontService,sans-serif" font-weight="400" font-stretch="semi-condensed" font-size="41" transform="matrix(1 0 0 1 587.785 6887)">Pairwise diffs int</text></g><g><text font-family="Aptos Narrow,Aptos Narrow_MSFontService,sans-serif" font-weight="400" font-stretch="semi-condensed" font-size="41" transform="matrix(1 0 0 1 477.51 6681)">Pos. Minimums by field</text></g><g><text font-family="Aptos Narrow,Aptos Narrow_MSFontService,sans-serif" font-weight="400" font-stretch="semi-condensed" font-size="41" transform="matrix(1 0 0 1 515.826 6475)">Pairwise diffs double</text></g><g><text font-family="Aptos Narrow,Aptos Narrow_MSFontService,sans-serif" font-weight="400" font-stretch="semi-condensed" font-size="41" transform="matrix(1 0 0 1 553.502 6269)">HashMap iteration</text></g><g><text font-family="Aptos Narrow,Aptos Narrow_MSFontService,sans-serif" font-weight="400" font-stretch="semi-condensed" font-size="41" transform="matrix(1 0 0 1 577.404 6063)">Filter and Project</text></g><g><text font-family="Aptos Narrow,Aptos Narrow_MSFontService,sans-serif" font-weight="400" font-stretch="semi-condensed" font-size="41" transform="matrix(1 0 0 1 504.139 5857)">Pos.Min. a, OrderBy b</text></g><g><text font-family="Aptos Narrow,Aptos Narrow_MSFontService,sans-serif" font-weight="400" font-stretch="semi-condensed" font-size="41" transform="matrix(1 0 0 1 641.204 5652)">Filtered pairs</text></g><g><text font-family="Aptos Narrow,Aptos Narrow_MSFontService,sans-serif" font-weight="400" font-stretch="semi-condensed" font-size="41" transform="matrix(1 0 0 1 485.003 5446)">Subrange of filtered int</text></g><g><text font-family="Aptos Narrow,Aptos Narrow_MSFontService,sans-serif" font-weight="400" font-stretch="semi-condensed" font-size="41" transform="matrix(1 0 0 1 508.356 5240)">Positive Min. doubles</text></g><g><text font-family="Aptos Narrow,Aptos Narrow_MSFontService,sans-serif" font-weight="400" font-stretch="semi-condensed" font-size="41" transform="matrix(1 0 0 1 552.332 5034)">Sorted copy of ints</text></g><g><text font-family="Aptos Narrow,Aptos Narrow_MSFontService,sans-serif" font-weight="400" font-stretch="semi-condensed" font-size="41" transform="matrix(1 0 0 1 542.96 4828)">OrderBy a, Select b</text></g><g><text font-family="Aptos Display,Aptos Display_MSFontService,sans-serif" font-weight="400" font-size="92" transform="matrix(1 0 0 1 1127 4525)">Long sequence runtimes  (Clang  -O2)</text></g><g><rect x="1403" y="4613" width="23" height="23" fill="#196B24"/></g><g><text font-family="Aptos Narrow,Aptos Narrow_MSFontService,sans-serif" font-weight="400" font-stretch="semi-condensed" font-size="41" transform="matrix(1 0 0 1 1435.2 4636)">Handwritten [us]</text></g><g><rect x="1766" y="4613" width="23" height="23" fill="#E97132"/></g><g><text font-family="Aptos Narrow,Aptos Narrow_MSFontService,sans-serif" font-weight="400" font-stretch="semi-condensed" font-size="41" transform="matrix(1 0 0 1 1798.17 4636)">Ranges  [us]</text></g><g><rect x="2054" y="4613" width="23" height="23" fill="#156082"/></g><g><text font-family="Aptos Narrow,Aptos Narrow_MSFontService,sans-serif" font-weight="400" font-stretch="semi-condensed" font-size="41" transform="matrix(1 0 0 1 2086.33 4636)">Enumerables  [us]</text></g><rect x="448.5" y="4405.5" width="2872" height="4327" stroke="#D9D9D9" stroke-width="3.4375" stroke-linejoin="round" stroke-miterlimit="10" fill="none"/></g></svg>