<svg width="2875" height="4330" xmlns="http://www.w3.org/2000/svg" xmlns:xlink="http://www.w3.org/1999/xlink" xml:space="preserve" overflow="hidden"><defs><clipPath id="clip0"><rect x="447" y="9" width="2875" height="4330"/></clipPath></defs><g clip-path="url(#clip0)" transform="translate(-447 -9)"><rect x="448" y="9.99997" width="2872" height="4327" fill="#FFFFFF"/><g><path d="M940.531 318.5 940.531 4230.5M987.533 318.5 987.533 4230.5M1034.53 318.5 1034.53 4230.5M1081.54 318.5 1081.54 4230.5M1175.54 318.5 1175.54 4230.5M1222.54 318.5 1222.54 4230.5M1269.54 318.5 1269.54 4230.5M1316.54 318.5 1316.54 4230.5M1410.55 318.5 1410.55 4230.5M1457.55 318.5 1457.55 4230.5M1504.55 318.5 1504.55 4230.5M1551.55 318.5 1551.55 4230.5M1645.55 318.5 1645.55 4230.5M1692.56 318.5 1692.56 4230.5M1739.56 318.5 1739.56 4230.5M1786.56 318.5 1786.56 4230.5M1880.56 318.5 1880.56 4230.5M1927.56 318.5 1927.56 4230.5M1974.56 318.5 1974.56 4230.5M2021.57 318.5 2021.57 4230.5M2115.57 318.5 2115.57 4230.5M2162.57 318.5 2162.57 4230.5M2209.57 318.5 2209.57 4230.5M2256.57 318.5 2256.57 4230.5M2350.58 318.5 2350.58 4230.5M2397.58 318.5 2397.58 4230.5M2444.58 318.5 2444.58 4230.5M2491.58 318.5 2491.58 4230.5M2585.58 318.5 2585.58 4230.5M2632.59 318.5 2632.59 4230.5M2679.59 318.5 2679.59 4230.5M2726.59 318.5 2726.59 4230.5M2820.59 318.5 2820.59 4230.5M2867.59 318.5 2867.59 4230.5M2914.6 318.5 2914.6 4230.5M2961.6 318.5 2961.6 4230.5M3055.6 318.5 3055.6 4230.5M3102.6 318.5 3102.6 4230.5M3149.6 318.5 3149.6 4230.5M3196.6 318.5 3196.6 4230.5" stroke="#F2F2F2" stroke-width="3.4375" stroke-linejoin="round" stroke-miterlimit="10" fill="none"/></g><g><path d="M1128.54 318.5 1128.54 4230.5M1363.54 318.5 1363.54 4230.5M1598.55 318.5 1598.55 4230.5M1833.56 318.5 1833.56 4230.5M2068.57 318.5 2068.57 4230.5M2303.58 318.5 2303.58 4230.5M2538.58 318.5 2538.58 4230.5M2773.59 318.5 2773.59 4230.5M3008.6 318.5 3008.6 4230.5M3243.5 318.5 3243.5 4230.5" stroke="#D9D9D9" stroke-width="3.4375" stroke-linejoin="round" stroke-miterlimit="10" fill="none"/></g><g><path d="M893.5 4230.5 3243.5 4230.5M893.5 4024.63 3243.5 4024.63M893.5 3818.63 3243.5 3818.63M893.5 3612.62 3243.5 3612.62M893.5 3407.61 3243.5 3407.61M893.5 3201.61 3243.5 3201.61M893.5 2995.6 3243.5 2995.6M893.5 2789.59 3243.5 2789.59M893.5 2583.58 3243.5 2583.58M893.5 2377.58 3243.5 2377.58M893.5 2171.57 3243.5 2171.57M893.5 1965.56 3243.5 1965.56M893.5 1759.56 3243.5 1759.56M893.5 1553.55 3243.5 1553.55M893.5 1347.54 3243.5 1347.54M893.5 1141.54 3243.5 1141.54M893.5 935.531 3243.5 935.531M893.5 730.524 3243.5 730.524M893.5 524.517 3243.5 524.517M893.5 318.5 3243.5 318.5" stroke="#D9D9D9" stroke-width="3.4375" stroke-linejoin="round" stroke-miterlimit="10" stroke-dasharray="27.5 10.3125" fill="none"/></g><g><path d="M999.033 4203.14 894 4203.14 894 4161.14 999.033 4161.14ZM1035.03 3997.13 894 3997.13 894 3955.13 1035.03 3955.13ZM1070.04 3791.12 894 3791.12 894 3749.12 1070.04 3749.12ZM1405.05 3585.12 894 3585.12 894 3543.12 1405.05 3543.12ZM1411.05 3379.11 894 3379.11 894 3337.11 1411.05 3337.11ZM1422.05 3173.1 894 3173.1 894 3131.1 1422.05 3131.1ZM1411.05 2967.1 894 2967.1 894 2926.1 1411.05 2926.1ZM1411.05 2761.09 894 2761.09 894 2720.09 1411.05 2720.09ZM1416.05 2555.08 894 2555.08 894 2514.08 1416.05 2514.08ZM1411.05 2349.08 894 2349.08 894 2308.08 1411.05 2308.08ZM1646.05 2143.07 894 2143.07 894 2102.07 1646.05 2102.07ZM1475.05 1938.06 894 1938.06 894 1896.06 1475.05 1896.06ZM1622.05 1732.06 894 1732.06 894 1690.06 1622.05 1690.06ZM1933.06 1526.05 894 1526.05 894 1484.05 1933.06 1484.05ZM2456.08 1320.04 894 1320.04 894 1278.04 2456.08 1278.04ZM2509.08 1114.04 894 1114.04 894 1072.04 2509.08 1072.04ZM2503.08 908.03 894 908.03 894 866.028 2503.08 866.028ZM2773.09 702.023 894 702.023 894 660.022 2773.09 660.022ZM3178.1 496.016 894 496.016 894 454.015 3178.1 454.015Z" fill="#156082"/></g><g><path d="M1458.05 4149.14 894 4149.14 894 4107.13 1458.05 4107.13ZM1352.04 3943.13 894 3943.13 894 3901.13 1352.04 3901.13ZM1446.05 3737.12 894 3737.12 894 3695.12 1446.05 3695.12ZM1352.04 3531.12 894 3531.12 894 3489.11 1352.04 3489.11ZM1399.05 3325.11 894 3325.11 894 3283.11 1399.05 3283.11ZM1375.05 3119.1 894 3119.1 894 3077.1 1375.05 3077.1ZM1399.05 2913.1 894 2913.1 894 2871.09 1399.05 2871.09ZM1411.05 2707.09 894 2707.09 894 2666.09 1411.05 2666.09ZM1399.05 2501.08 894 2501.08 894 2460.08 1399.05 2460.08ZM1399.05 2295.08 894 2295.08 894 2254.07 1399.05 2254.07ZM1399.05 2089.07 894 2089.07 894 2048.07 1399.05 2048.07ZM1481.05 1883.06 894 1883.06 894 1842.06 1481.05 1842.06ZM1599.05 1678.06 894 1678.06 894 1636.05 1599.05 1636.05ZM1792.06 1472.05 894 1472.05 894 1430.05 1792.06 1430.05ZM1493.05 1266.04 894 1266.04 894 1224.04 1493.05 1224.04ZM1552.05 1060.03 894 1060.03 894 1018.03 1552.05 1018.03ZM2491.08 854.028 894 854.028 894 812.027 2491.08 812.027ZM2767.09 648.021 894 648.021 894 606.02 2767.09 606.02ZM3184.1 442.014 894 442.014 894 400.013 3184.1 400.013Z" fill="#E97132"/></g><g><path d="M999.033 4095.13 894 4095.13 894 4053.13 999.033 4053.13ZM1035.03 3889.13 894 3889.13 894 3847.13 1035.03 3847.13ZM1070.04 3683.12 894 3683.12 894 3641.12 1070.04 3641.12ZM1352.04 3477.11 894 3477.11 894 3435.11 1352.04 3435.11ZM1364.04 3271.11 894 3271.11 894 3229.11 1364.04 3229.11ZM1375.05 3065.1 894 3065.1 894 3023.1 1375.05 3023.1ZM1375.05 2859.09 894 2859.09 894 2817.09 1375.05 2817.09ZM1375.05 2653.09 894 2653.09 894 2611.09 1375.05 2611.09ZM1399.05 2447.08 894 2447.08 894 2406.08 1399.05 2406.08ZM1399.05 2241.07 894 2241.07 894 2200.07 1399.05 2200.07ZM1405.05 2035.07 894 2035.07 894 1994.07 1405.05 1994.07ZM1434.05 1829.06 894 1829.06 894 1788.06 1434.05 1788.06ZM1505.05 1623.05 894 1623.05 894 1582.05 1505.05 1582.05ZM1851.06 1418.05 894 1418.05 894 1376.05 1851.06 1376.05ZM2409.08 1212.04 894 1212.04 894 1170.04 2409.08 1170.04ZM2433.08 1006.03 894 1006.03 894 964.032 2433.08 964.032ZM2480.08 800.026 894 800.026 894 758.025 2480.08 758.025ZM2750.09 594.02 894 594.02 894 552.018 2750.09 552.018ZM3184.1 388.013 894 388.013 894 346.011 3184.1 346.011Z" fill="#196B24"/></g><g><path d="M0 0 0.000360892 3912" stroke="#D9D9D9" stroke-width="3.4375" stroke-linejoin="round" stroke-miterlimit="10" fill="none" fill-rule="evenodd" transform="matrix(1 0 0 -1 893.5 4230.5)"/></g><g><path d="M880.5 4230.5 906.5 4230.5M880.5 4024.63 906.5 4024.63M880.5 3818.63 906.5 3818.63M880.5 3612.62 906.5 3612.62M880.5 3407.61 906.5 3407.61M880.5 3201.61 906.5 3201.61M880.5 2995.6 906.5 2995.6M880.5 2789.59 906.5 2789.59M880.5 2583.58 906.5 2583.58M880.5 2377.58 906.5 2377.58M880.5 2171.57 906.5 2171.57M880.5 1965.56 906.5 1965.56M880.5 1759.56 906.5 1759.56M880.5 1553.55 906.5 1553.55M880.5 1347.54 906.5 1347.54M880.5 1141.54 906.5 1141.54M880.5 935.531 906.5 935.531M880.5 730.524 906.5 730.524M880.5 524.517 906.5 524.517M880.5 318.5 906.5 318.5" stroke="#D9D9D9" stroke-width="3.4375" stroke-linejoin="round" stroke-miterlimit="10" fill="none"/></g><g><text fill="#FFFFFF" font-family="Aptos Narrow,Aptos Narrow_MSFontService,sans-serif" font-weight="400" font-stretch="semi-condensed" font-size="41" transform="matrix(1 0 0 1 921.312 4196)">.009</text></g><g><text fill="#FFFFFF" font-family="Aptos Narrow,Aptos Narrow_MSFontService,sans-serif" font-weight="400" font-stretch="semi-condensed" font-size="41" transform="matrix(1 0 0 1 933.847 3990)">.012</text></g><g><text fill="#FFFFFF" font-family="Aptos Narrow,Aptos Narrow_MSFontService,sans-serif" font-weight="400" font-stretch="semi-condensed" font-size="41" transform="matrix(1 0 0 1 969.087 3784)">.015</text></g><g><text fill="#FFFFFF" font-family="Aptos Narrow,Aptos Narrow_MSFontService,sans-serif" font-weight="400" font-stretch="semi-condensed" font-size="41" transform="matrix(1 0 0 1 1303.87 3578)">.044</text></g><g><text fill="#FFFFFF" font-family="Aptos Narrow,Aptos Narrow_MSFontService,sans-serif" font-weight="400" font-stretch="semi-condensed" font-size="41" transform="matrix(1 0 0 1 1309.74 3372)">.044</text></g><g><text fill="#FFFFFF" font-family="Aptos Narrow,Aptos Narrow_MSFontService,sans-serif" font-weight="400" font-stretch="semi-condensed" font-size="41" transform="matrix(1 0 0 1 1321.49 3166)">.045</text></g><g><text fill="#FFFFFF" font-family="Aptos Narrow,Aptos Narrow_MSFontService,sans-serif" font-weight="400" font-stretch="semi-condensed" font-size="41" transform="matrix(1 0 0 1 1309.74 2960)">.044</text></g><g><text fill="#FFFFFF" font-family="Aptos Narrow,Aptos Narrow_MSFontService,sans-serif" font-weight="400" font-stretch="semi-condensed" font-size="41" transform="matrix(1 0 0 1 1309.74 2754)">.044</text></g><g><text fill="#FFFFFF" font-family="Aptos Narrow,Aptos Narrow_MSFontService,sans-serif" font-weight="400" font-stretch="semi-condensed" font-size="41" transform="matrix(1 0 0 1 1315.61 2548)">.045</text></g><g><text fill="#FFFFFF" font-family="Aptos Narrow,Aptos Narrow_MSFontService,sans-serif" font-weight="400" font-stretch="semi-condensed" font-size="41" transform="matrix(1 0 0 1 1309.74 2342)">.044</text></g><g><text fill="#FFFFFF" font-family="Aptos Narrow,Aptos Narrow_MSFontService,sans-serif" font-weight="400" font-stretch="semi-condensed" font-size="41" transform="matrix(1 0 0 1 1544.67 2137)">.064</text></g><g><text fill="#FFFFFF" font-family="Aptos Narrow,Aptos Narrow_MSFontService,sans-serif" font-weight="400" font-stretch="semi-condensed" font-size="41" transform="matrix(1 0 0 1 1374.35 1931)">.050</text></g><g><text fill="#FFFFFF" font-family="Aptos Narrow,Aptos Narrow_MSFontService,sans-serif" font-weight="400" font-stretch="semi-condensed" font-size="41" transform="matrix(1 0 0 1 1521.18 1725)">.062</text></g><g><text fill="#FFFFFF" font-family="Aptos Narrow,Aptos Narrow_MSFontService,sans-serif" font-weight="400" font-stretch="semi-condensed" font-size="41" transform="matrix(1 0 0 1 1832.47 1519)">.089</text></g><g><text fill="#FFFFFF" font-family="Aptos Narrow,Aptos Narrow_MSFontService,sans-serif" font-weight="400" font-stretch="semi-condensed" font-size="41" transform="matrix(1 0 0 1 2355.19 1313)">.133</text></g><g><text fill="#FFFFFF" font-family="Aptos Narrow,Aptos Narrow_MSFontService,sans-serif" font-weight="400" font-stretch="semi-condensed" font-size="41" transform="matrix(1 0 0 1 2408.05 1107)">.138</text></g><g><text fill="#FFFFFF" font-family="Aptos Narrow,Aptos Narrow_MSFontService,sans-serif" font-weight="400" font-stretch="semi-condensed" font-size="41" transform="matrix(1 0 0 1 2402.18 901)">.137</text></g><g><text fill="#FFFFFF" font-family="Aptos Narrow,Aptos Narrow_MSFontService,sans-serif" font-weight="400" font-stretch="semi-condensed" font-size="41" transform="matrix(1 0 0 1 2672.35 695)">.160</text></g><g><text fill="#FFFFFF" font-family="Aptos Narrow,Aptos Narrow_MSFontService,sans-serif" font-weight="400" font-stretch="semi-condensed" font-size="41" transform="matrix(1 0 0 1 3077.61 489)">.195</text></g><g><text fill="#FFFFFF" font-family="Aptos Narrow,Aptos Narrow_MSFontService,sans-serif" font-weight="400" font-stretch="semi-condensed" font-size="41" transform="matrix(1 0 0 1 1356.73 4142)">.048</text></g><g><text fill="#FFFFFF" font-family="Aptos Narrow,Aptos Narrow_MSFontService,sans-serif" font-weight="400" font-stretch="semi-condensed" font-size="41" transform="matrix(1 0 0 1 1251.01 3936)">.039</text></g><g><text fill="#FFFFFF" font-family="Aptos Narrow,Aptos Narrow_MSFontService,sans-serif" font-weight="400" font-stretch="semi-condensed" font-size="41" transform="matrix(1 0 0 1 1344.98 3730)">.047</text></g><g><text fill="#FFFFFF" font-family="Aptos Narrow,Aptos Narrow_MSFontService,sans-serif" font-weight="400" font-stretch="semi-condensed" font-size="41" transform="matrix(1 0 0 1 1251.01 3524)">.039</text></g><g><text fill="#FFFFFF" font-family="Aptos Narrow,Aptos Narrow_MSFontService,sans-serif" font-weight="400" font-stretch="semi-condensed" font-size="41" transform="matrix(1 0 0 1 1297.99 3318)">.043</text></g><g><text fill="#FFFFFF" font-family="Aptos Narrow,Aptos Narrow_MSFontService,sans-serif" font-weight="400" font-stretch="semi-condensed" font-size="41" transform="matrix(1 0 0 1 1274.5 3112)">.041</text></g><g><text fill="#FFFFFF" font-family="Aptos Narrow,Aptos Narrow_MSFontService,sans-serif" font-weight="400" font-stretch="semi-condensed" font-size="41" transform="matrix(1 0 0 1 1297.99 2906)">.043</text></g><g><text fill="#FFFFFF" font-family="Aptos Narrow,Aptos Narrow_MSFontService,sans-serif" font-weight="400" font-stretch="semi-condensed" font-size="41" transform="matrix(1 0 0 1 1309.74 2700)">.044</text></g><g><text fill="#FFFFFF" font-family="Aptos Narrow,Aptos Narrow_MSFontService,sans-serif" font-weight="400" font-stretch="semi-condensed" font-size="41" transform="matrix(1 0 0 1 1297.99 2494)">.043</text></g><g><text fill="#FFFFFF" font-family="Aptos Narrow,Aptos Narrow_MSFontService,sans-serif" font-weight="400" font-stretch="semi-condensed" font-size="41" transform="matrix(1 0 0 1 1297.99 2288)">.043</text></g><g><text fill="#FFFFFF" font-family="Aptos Narrow,Aptos Narrow_MSFontService,sans-serif" font-weight="400" font-stretch="semi-condensed" font-size="41" transform="matrix(1 0 0 1 1297.99 2082)">.043</text></g><g><text fill="#FFFFFF" font-family="Aptos Narrow,Aptos Narrow_MSFontService,sans-serif" font-weight="400" font-stretch="semi-condensed" font-size="41" transform="matrix(1 0 0 1 1380.22 1877)">.050</text></g><g><text fill="#FFFFFF" font-family="Aptos Narrow,Aptos Narrow_MSFontService,sans-serif" font-weight="400" font-stretch="semi-condensed" font-size="41" transform="matrix(1 0 0 1 1497.69 1671)">.060</text></g><g><text fill="#FFFFFF" font-family="Aptos Narrow,Aptos Narrow_MSFontService,sans-serif" font-weight="400" font-stretch="semi-condensed" font-size="41" transform="matrix(1 0 0 1 1691.51 1465)">.077</text></g><g><text fill="#FFFFFF" font-family="Aptos Narrow,Aptos Narrow_MSFontService,sans-serif" font-weight="400" font-stretch="semi-condensed" font-size="41" transform="matrix(1 0 0 1 1391.97 1259)">.051</text></g><g><text fill="#FFFFFF" font-family="Aptos Narrow,Aptos Narrow_MSFontService,sans-serif" font-weight="400" font-stretch="semi-condensed" font-size="41" transform="matrix(1 0 0 1 1450.7 1053)">.056</text></g><g><text fill="#FFFFFF" font-family="Aptos Narrow,Aptos Narrow_MSFontService,sans-serif" font-weight="400" font-stretch="semi-condensed" font-size="41" transform="matrix(1 0 0 1 2390.43 847)">.136</text></g><g><text fill="#FFFFFF" font-family="Aptos Narrow,Aptos Narrow_MSFontService,sans-serif" font-weight="400" font-stretch="semi-condensed" font-size="41" transform="matrix(1 0 0 1 2666.48 641)">.160</text></g><g><text fill="#FFFFFF" font-family="Aptos Narrow,Aptos Narrow_MSFontService,sans-serif" font-weight="400" font-stretch="semi-condensed" font-size="41" transform="matrix(1 0 0 1 3083.49 435)">.195</text></g><g><text fill="#FFFFFF" font-family="Aptos Narrow,Aptos Narrow_MSFontService,sans-serif" font-weight="400" font-stretch="semi-condensed" font-size="41" transform="matrix(1 0 0 1 921.312 4088)">.009</text></g><g><text fill="#FFFFFF" font-family="Aptos Narrow,Aptos Narrow_MSFontService,sans-serif" font-weight="400" font-stretch="semi-condensed" font-size="41" transform="matrix(1 0 0 1 933.847 3882)">.012</text></g><g><text fill="#FFFFFF" font-family="Aptos Narrow,Aptos Narrow_MSFontService,sans-serif" font-weight="400" font-stretch="semi-condensed" font-size="41" transform="matrix(1 0 0 1 969.087 3676)">.015</text></g><g><text fill="#FFFFFF" font-family="Aptos Narrow,Aptos Narrow_MSFontService,sans-serif" font-weight="400" font-stretch="semi-condensed" font-size="41" transform="matrix(1 0 0 1 1251.01 3470)">.039</text></g><g><text fill="#FFFFFF" font-family="Aptos Narrow,Aptos Narrow_MSFontService,sans-serif" font-weight="400" font-stretch="semi-condensed" font-size="41" transform="matrix(1 0 0 1 1262.75 3264)">.040</text></g><g><text fill="#FFFFFF" font-family="Aptos Narrow,Aptos Narrow_MSFontService,sans-serif" font-weight="400" font-stretch="semi-condensed" font-size="41" transform="matrix(1 0 0 1 1274.5 3058)">.041</text></g><g><text fill="#FFFFFF" font-family="Aptos Narrow,Aptos Narrow_MSFontService,sans-serif" font-weight="400" font-stretch="semi-condensed" font-size="41" transform="matrix(1 0 0 1 1274.5 2852)">.041</text></g><g><text fill="#FFFFFF" font-family="Aptos Narrow,Aptos Narrow_MSFontService,sans-serif" font-weight="400" font-stretch="semi-condensed" font-size="41" transform="matrix(1 0 0 1 1274.5 2646)">.041</text></g><g><text fill="#FFFFFF" font-family="Aptos Narrow,Aptos Narrow_MSFontService,sans-serif" font-weight="400" font-stretch="semi-condensed" font-size="41" transform="matrix(1 0 0 1 1297.99 2440)">.043</text></g><g><text fill="#FFFFFF" font-family="Aptos Narrow,Aptos Narrow_MSFontService,sans-serif" font-weight="400" font-stretch="semi-condensed" font-size="41" transform="matrix(1 0 0 1 1297.99 2234)">.043</text></g><g><text fill="#FFFFFF" font-family="Aptos Narrow,Aptos Narrow_MSFontService,sans-serif" font-weight="400" font-stretch="semi-condensed" font-size="41" transform="matrix(1 0 0 1 1303.87 2028)">.044</text></g><g><text fill="#FFFFFF" font-family="Aptos Narrow,Aptos Narrow_MSFontService,sans-serif" font-weight="400" font-stretch="semi-condensed" font-size="41" transform="matrix(1 0 0 1 1333.23 1822)">.046</text></g><g><text fill="#FFFFFF" font-family="Aptos Narrow,Aptos Narrow_MSFontService,sans-serif" font-weight="400" font-stretch="semi-condensed" font-size="41" transform="matrix(1 0 0 1 1403.71 1617)">.052</text></g><g><text fill="#FFFFFF" font-family="Aptos Narrow,Aptos Narrow_MSFontService,sans-serif" font-weight="400" font-stretch="semi-condensed" font-size="41" transform="matrix(1 0 0 1 1750.24 1411)">.082</text></g><g><text fill="#FFFFFF" font-family="Aptos Narrow,Aptos Narrow_MSFontService,sans-serif" font-weight="400" font-stretch="semi-condensed" font-size="41" transform="matrix(1 0 0 1 2308.21 1205)">.129</text></g><g><text fill="#FFFFFF" font-family="Aptos Narrow,Aptos Narrow_MSFontService,sans-serif" font-weight="400" font-stretch="semi-condensed" font-size="41" transform="matrix(1 0 0 1 2331.7 999)">.131</text></g><g><text fill="#FFFFFF" font-family="Aptos Narrow,Aptos Narrow_MSFontService,sans-serif" font-weight="400" font-stretch="semi-condensed" font-size="41" transform="matrix(1 0 0 1 2378.69 793)">.135</text></g><g><text fill="#FFFFFF" font-family="Aptos Narrow,Aptos Narrow_MSFontService,sans-serif" font-weight="400" font-stretch="semi-condensed" font-size="41" transform="matrix(1 0 0 1 2648.86 587)">.158</text></g><g><text fill="#FFFFFF" font-family="Aptos Narrow,Aptos Narrow_MSFontService,sans-serif" font-weight="400" font-stretch="semi-condensed" font-size="41" transform="matrix(1 0 0 1 3083.49 381)">.195</text></g><g><text font-family="Aptos Narrow,Aptos Narrow_MSFontService,sans-serif" font-weight="400" font-stretch="semi-condensed" font-size="41" transform="matrix(1 0 0 1 883.362 4296)">0</text></g><g><text font-family="Aptos Narrow,Aptos Narrow_MSFontService,sans-serif" font-weight="400" font-stretch="semi-condensed" font-size="41" transform="matrix(1 0 0 1 1092.03 4296)">0.02</text></g><g><text font-family="Aptos Narrow,Aptos Narrow_MSFontService,sans-serif" font-weight="400" font-stretch="semi-condensed" font-size="41" transform="matrix(1 0 0 1 1326.97 4296)">0.04</text></g><g><text font-family="Aptos Narrow,Aptos Narrow_MSFontService,sans-serif" font-weight="400" font-stretch="semi-condensed" font-size="41" transform="matrix(1 0 0 1 1561.9 4296)">0.06</text></g><g><text font-family="Aptos Narrow,Aptos Narrow_MSFontService,sans-serif" font-weight="400" font-stretch="semi-condensed" font-size="41" transform="matrix(1 0 0 1 1796.83 4296)">0.08</text></g><g><text font-family="Aptos Narrow,Aptos Narrow_MSFontService,sans-serif" font-weight="400" font-stretch="semi-condensed" font-size="41" transform="matrix(1 0 0 1 2042.22 4296)">0.1</text></g><g><text font-family="Aptos Narrow,Aptos Narrow_MSFontService,sans-serif" font-weight="400" font-stretch="semi-condensed" font-size="41" transform="matrix(1 0 0 1 2266.7 4296)">0.12</text></g><g><text font-family="Aptos Narrow,Aptos Narrow_MSFontService,sans-serif" font-weight="400" font-stretch="semi-condensed" font-size="41" transform="matrix(1 0 0 1 2501.63 4296)">0.14</text></g><g><text font-family="Aptos Narrow,Aptos Narrow_MSFontService,sans-serif" font-weight="400" font-stretch="semi-condensed" font-size="41" transform="matrix(1 0 0 1 2736.57 4296)">0.16</text></g><g><text font-family="Aptos Narrow,Aptos Narrow_MSFontService,sans-serif" font-weight="400" font-stretch="semi-condensed" font-size="41" transform="matrix(1 0 0 1 2971.5 4296)">0.18</text></g><g><text font-family="Aptos Narrow,Aptos Narrow_MSFontService,sans-serif" font-weight="400" font-stretch="semi-condensed" font-size="41" transform="matrix(1 0 0 1 3216.88 4296)">0.2</text></g><g><text font-family="Aptos Narrow,Aptos Narrow_MSFontService,sans-serif" font-weight="400" font-stretch="semi-condensed" font-size="41" transform="matrix(1 0 0 1 651.173 4139)">Sum int field</text></g><g><text font-family="Aptos Narrow,Aptos Narrow_MSFontService,sans-serif" font-weight="400" font-stretch="semi-condensed" font-size="41" transform="matrix(1 0 0 1 538.125 3934)">Naive-sum doubles</text></g><g><text font-family="Aptos Narrow,Aptos Narrow_MSFontService,sans-serif" font-weight="400" font-stretch="semi-condensed" font-size="41" transform="matrix(1 0 0 1 593.767 3728)">Sum simple ints</text></g><g><text font-family="Aptos Narrow,Aptos Narrow_MSFontService,sans-serif" font-weight="400" font-stretch="semi-condensed" font-size="41" transform="matrix(1 0 0 1 552.332 3522)">Sorted copy of ints</text></g><g><text font-family="Aptos Narrow,Aptos Narrow_MSFontService,sans-serif" font-weight="400" font-stretch="semi-condensed" font-size="41" transform="matrix(1 0 0 1 598.923 3316)">Square doubles</text></g><g><text font-family="Aptos Narrow,Aptos Narrow_MSFontService,sans-serif" font-weight="400" font-stretch="semi-condensed" font-size="41" transform="matrix(1 0 0 1 533.679 3110)">Small POD iteration</text></g><g><text font-family="Aptos Narrow,Aptos Narrow_MSFontService,sans-serif" font-weight="400" font-stretch="semi-condensed" font-size="41" transform="matrix(1 0 0 1 599.542 2904)">Square integers</text></g><g><text font-family="Aptos Narrow,Aptos Narrow_MSFontService,sans-serif" font-weight="400" font-stretch="semi-condensed" font-size="41" transform="matrix(1 0 0 1 501.756 2698)">Convert: int -&gt; double</text></g><g><text font-family="Aptos Narrow,Aptos Narrow_MSFontService,sans-serif" font-weight="400" font-stretch="semi-condensed" font-size="41" transform="matrix(1 0 0 1 515.826 2492)">Pairwise diffs double</text></g><g><text font-family="Aptos Narrow,Aptos Narrow_MSFontService,sans-serif" font-weight="400" font-stretch="semi-condensed" font-size="41" transform="matrix(1 0 0 1 587.785 2286)">Pairwise diffs int</text></g><g><text font-family="Aptos Narrow,Aptos Narrow_MSFontService,sans-serif" font-weight="400" font-stretch="semi-condensed" font-size="41" transform="matrix(1 0 0 1 553.502 2080)">HashMap iteration</text></g><g><text font-family="Aptos Narrow,Aptos Narrow_MSFontService,sans-serif" font-weight="400" font-stretch="semi-condensed" font-size="41" transform="matrix(1 0 0 1 508.356 1874)">Positive Min. doubles</text></g><g><text font-family="Aptos Narrow,Aptos Narrow_MSFontService,sans-serif" font-weight="400" font-stretch="semi-condensed" font-size="41" transform="matrix(1 0 0 1 485.003 1668)">Subrange of filtered int</text></g><g><text font-family="Aptos Narrow,Aptos Narrow_MSFontService,sans-serif" font-weight="400" font-stretch="semi-condensed" font-size="41" transform="matrix(1 0 0 1 542.96 1462)">OrderBy a, Select b</text></g><g><text font-family="Aptos Narrow,Aptos Narrow_MSFontService,sans-serif" font-weight="400" font-stretch="semi-condensed" font-size="41" transform="matrix(1 0 0 1 477.51 1256)">Pos. Minimums by field</text></g><g><text font-family="Aptos Narrow,Aptos Narrow_MSFontService,sans-serif" font-weight="400" font-stretch="semi-condensed" font-size="41" transform="matrix(1 0 0 1 504.139 1051)">Pos.Min. a, OrderBy b</text></g><g><text font-family="Aptos Narrow,Aptos Narrow_MSFontService,sans-serif" font-weight="400" font-stretch="semi-condensed" font-size="41" transform="matrix(1 0 0 1 577.404 845)">Filter and Project</text></g><g><text font-family="Aptos Narrow,Aptos Narrow_MSFontService,sans-serif" font-weight="400" font-stretch="semi-condensed" font-size="41" transform="matrix(1 0 0 1 556.871 639)">Minimums by field</text></g><g><text font-family="Aptos Narrow,Aptos Narrow_MSFontService,sans-serif" font-weight="400" font-stretch="semi-condensed" font-size="41" transform="matrix(1 0 0 1 641.204 433)">Filtered pairs</text></g><g><text font-family="Aptos Display,Aptos Display_MSFontService,sans-serif" font-weight="400" font-size="92" transform="matrix(1 0 0 1 1120 130)">Short sequence runtimes  (Clang  -O2)</text></g><g><rect x="1407" y="218" width="23" height="22" fill="#196B24"/></g><g><text font-family="Aptos Narrow,Aptos Narrow_MSFontService,sans-serif" font-weight="400" font-stretch="semi-condensed" font-size="41" transform="matrix(1 0 0 1 1439.45 241)">Handwritten  [us]</text></g><g><rect x="1777" y="218" width="23" height="22" fill="#E97132"/></g><g><text font-family="Aptos Narrow,Aptos Narrow_MSFontService,sans-serif" font-weight="400" font-stretch="semi-condensed" font-size="41" transform="matrix(1 0 0 1 1809.75 241)">Ranges [us]</text></g><g><rect x="2058" y="218" width="22" height="22" fill="#156082"/></g><g><text font-family="Aptos Narrow,Aptos Narrow_MSFontService,sans-serif" font-weight="400" font-stretch="semi-condensed" font-size="41" transform="matrix(1 0 0 1 2089.81 241)">Enumerables [us]</text></g><rect x="448.5" y="10.5002" width="2872" height="4327" stroke="#D9D9D9" stroke-width="3.4375" stroke-linejoin="round" stroke-miterlimit="10" fill="none"/></g></svg>