<svg width="2973" height="2142" xmlns="http://www.w3.org/2000/svg" xmlns:xlink="http://www.w3.org/1999/xlink" xml:space="preserve" overflow="hidden"><defs><clipPath id="clip0"><rect x="4202" y="3019" width="2973" height="2142"/></clipPath><clipPath id="clip1"><rect x="4772" y="3328" width="2332" height="1728"/></clipPath><clipPath id="clip2"><rect x="4772" y="3328" width="2332" height="1728"/></clipPath></defs><g clip-path="url(#clip0)" transform="translate(-4202 -3019)"><rect x="4203" y="3020" width="2970" height="2139" fill="#FFFFFF"/><g><path d="M4839.66 3328.5 4839.66 5052.5M4905.66 3328.5 4905.66 5052.5M4972.66 3328.5 4972.66 5052.5M5038.67 3328.5 5038.67 5052.5M5171.67 3328.5 5171.67 5052.5M5238.67 3328.5 5238.67 5052.5M5304.67 3328.5 5304.67 5052.5M5371.68 3328.5 5371.68 5052.5M5504.68 3328.5 5504.68 5052.5M5571.68 3328.5 5571.68 5052.5M5637.69 3328.5 5637.69 5052.5M5704.69 3328.5 5704.69 5052.5M5837.69 3328.5 5837.69 5052.5M5903.69 3328.5 5903.69 5052.5M5970.7 3328.5 5970.7 5052.5M6036.7 3328.5 6036.7 5052.5M6169.7 3328.5 6169.7 5052.5M6236.7 3328.5 6236.7 5052.5M6302.71 3328.5 6302.71 5052.5M6369.71 3328.5 6369.71 5052.5M6502.71 3328.5 6502.71 5052.5M6568.72 3328.5 6568.72 5052.5M6635.72 3328.5 6635.72 5052.5M6701.72 3328.5 6701.72 5052.5M6834.72 3328.5 6834.72 5052.5M6901.73 3328.5 6901.73 5052.5M6968.73 3328.5 6968.73 5052.5M7034.73 3328.5 7034.73 5052.5" stroke="#F2F2F2" stroke-width="3.4375" stroke-linejoin="round" stroke-miterlimit="10" fill="none"/></g><g><path d="M4772.5 3328.5 4772.5 5052.5M5105.67 3328.5 5105.67 5052.5M5770.69 3328.5 5770.69 5052.5M6103.7 3328.5 6103.7 5052.5M6435.71 3328.5 6435.71 5052.5M6768.72 3328.5 6768.72 5052.5M7101.5 3328.5 7101.5 5052.5" stroke="#D9D9D9" stroke-width="3.4375" stroke-linejoin="round" stroke-miterlimit="10" fill="none"/></g><g><path d="M7005.23 5031.17 5438.18 5031.17 5438.18 4999.16 7005.23 4999.16ZM6077.2 4923.16 5438.18 4923.16 5438.18 4891.16 6077.2 4891.16ZM5821.19 4816.16 5438.18 4816.16 5438.18 4783.16 5821.19 4783.16ZM5771.19 4708.15 5438.18 4708.15 5438.18 4676.15 5771.19 4676.15ZM5764.19 4600.15 5438.18 4600.15 5438.18 4568.15 5764.19 4568.15ZM5724.19 4492.15 5438.18 4492.15 5438.18 4460.15 5724.19 4460.15ZM5691.19 4384.14 5438.18 4384.14 5438.18 4352.14 5691.19 4352.14ZM5681.19 4277.14 5438.18 4277.14 5438.18 4244.14 5681.19 4244.14ZM5681.19 4169.14 5438.18 4169.14 5438.18 4137.14 5681.19 4137.14ZM5554.18 4061.13 5438.18 4061.13 5438.18 4029.13 5554.18 4029.13ZM5541.18 3953.13 5438.18 3953.13 5438.18 3921.13 5541.18 3921.13ZM5515.18 3846.13 5438.18 3846.13 5438.18 3813.12 5515.18 3813.12ZM5488.18 3738.12 5438.18 3738.12 5438.18 3706.12 5488.18 3706.12ZM5481.18 3630.12 5438.18 3630.12 5438.18 3598.12 5481.18 3598.12ZM5428.18 3414.11 5438.18 3414.11 5438.18 3382.11 5428.18 3382.11Z" fill="#156082"/></g><g clip-path="url(#clip1)"><rect x="5438" y="3458" width="7484" height="32" fill="#E97132"/></g><g clip-path="url(#clip2)"><path d="M5401.18 4999.16 5438.18 4999.16 5438.18 4967.16 5401.18 4967.16ZM5950.2 4891.16 5438.18 4891.16 5438.18 4859.16 5950.2 4859.16ZM5687.19 4676.15 5438.18 4676.15 5438.18 4643.15 5687.19 4643.15ZM5235.17 4460.15 5438.18 4460.15 5438.18 4428.15 5235.17 4428.15ZM5727.19 4352.14 5438.18 4352.14 5438.18 4320.14 5727.19 4320.14ZM5601.18 4244.14 5438.18 4244.14 5438.18 4212.14 5601.18 4212.14ZM5681.19 4137.14 5438.18 4137.14 5438.18 4105.13 5681.19 4105.13ZM3426 3921.13 5438.18 3921.13 5438.18 3889.13 3426 3889.13ZM5461.18 3706.12 5438.18 3706.12 5438.18 3673.12 5461.18 3673.12ZM5468.18 3598.12 5438.18 3598.12 5438.18 3566.12 5468.18 3566.12Z" fill="#E97132"/></g><g><path d="M0 0 0.000360892 1724" stroke="#D9D9D9" stroke-width="3.4375" stroke-linejoin="round" stroke-miterlimit="10" fill="none" fill-rule="evenodd" transform="matrix(1 0 0 -1 5438.5 5052.5)"/></g><g><path d="M5425.5 5052.5 5451.5 5052.5M5425.5 4944.66 5451.5 4944.66M5425.5 4837.66 5451.5 4837.66M5425.5 4729.66 5451.5 4729.66M5425.5 4621.65 5451.5 4621.65M5425.5 4513.65 5451.5 4513.65M5425.5 4406.64 5451.5 4406.64M5425.5 4298.64 5451.5 4298.64M5425.5 4190.64 5451.5 4190.64M5425.5 4082.63 5451.5 4082.63M5425.5 3975.63 5451.5 3975.63M5425.5 3867.63 5451.5 3867.63M5425.5 3759.62 5451.5 3759.62M5425.5 3651.62 5451.5 3651.62M5425.5 3543.62 5451.5 3543.62M5425.5 3436.61 5451.5 3436.61M5425.5 3328.5 5451.5 3328.5" stroke="#D9D9D9" stroke-width="3.4375" stroke-linejoin="round" stroke-miterlimit="10" fill="none"/></g><g><text fill="#FFFFFF" font-family="Aptos Narrow,Aptos Narrow_MSFontService,sans-serif" font-weight="400" font-stretch="semi-condensed" font-size="41" transform="matrix(1 0 0 1 6903.93 5029)">47.1</text></g><g><text fill="#FFFFFF" font-family="Aptos Narrow,Aptos Narrow_MSFontService,sans-serif" font-weight="400" font-stretch="semi-condensed" font-size="41" transform="matrix(1 0 0 1 5975.92 4921)">19.2</text></g><g><text fill="#FFFFFF" font-family="Aptos Narrow,Aptos Narrow_MSFontService,sans-serif" font-weight="400" font-stretch="semi-condensed" font-size="41" transform="matrix(1 0 0 1 5719.8 4813)">11.5</text></g><g><text fill="#FFFFFF" font-family="Aptos Narrow,Aptos Narrow_MSFontService,sans-serif" font-weight="400" font-stretch="semi-condensed" font-size="41" transform="matrix(1 0 0 1 5701.54 4706)">10</text></g><g><text fill="#FFFFFF" font-family="Aptos Narrow,Aptos Narrow_MSFontService,sans-serif" font-weight="400" font-stretch="semi-condensed" font-size="41" transform="matrix(1 0 0 1 5684.16 4598)">9.8</text></g><g><text fill="#FFFFFF" font-family="Aptos Narrow,Aptos Narrow_MSFontService,sans-serif" font-weight="400" font-stretch="semi-condensed" font-size="41" transform="matrix(1 0 0 1 5644.24 4490)">8.6</text></g><g><text fill="#FFFFFF" font-family="Aptos Narrow,Aptos Narrow_MSFontService,sans-serif" font-weight="400" font-stretch="semi-condensed" font-size="41" transform="matrix(1 0 0 1 5610.98 4382)">7.6</text></g><g><text fill="#FFFFFF" font-family="Aptos Narrow,Aptos Narrow_MSFontService,sans-serif" font-weight="400" font-stretch="semi-condensed" font-size="41" transform="matrix(1 0 0 1 5601 4275)">7.3</text></g><g><text fill="#FFFFFF" font-family="Aptos Narrow,Aptos Narrow_MSFontService,sans-serif" font-weight="400" font-stretch="semi-condensed" font-size="41" transform="matrix(1 0 0 1 5601 4167)">7.3</text></g><g><text fill="#FFFFFF" font-family="Aptos Narrow,Aptos Narrow_MSFontService,sans-serif" font-weight="400" font-stretch="semi-condensed" font-size="41" transform="matrix(1 0 0 1 5474.61 4059)">3.5</text></g><g><text fill="#FFFFFF" font-family="Aptos Narrow,Aptos Narrow_MSFontService,sans-serif" font-weight="400" font-stretch="semi-condensed" font-size="41" transform="matrix(1 0 0 1 5465.72 3951)">3.1</text></g><g><g><text fill="#FFFFFF" font-family="Aptos Narrow,Aptos Narrow_MSFontService,sans-serif" font-weight="400" font-stretch="semi-condensed" font-size="41" transform="matrix(1 0 0 1 5454.26 3843)">2.3</text></g></g><g><text fill="#FFFFFF" font-family="Aptos Narrow,Aptos Narrow_MSFontService,sans-serif" font-weight="400" font-stretch="semi-condensed" font-size="41" transform="matrix(1 0 0 1 5849.53 4889)">15.4</text></g><g><text fill="#FFFFFF" font-family="Aptos Narrow,Aptos Narrow_MSFontService,sans-serif" font-weight="400" font-stretch="semi-condensed" font-size="41" transform="matrix(1 0 0 1 5607.66 4673)">7.5</text></g><g><text fill="#FFFFFF" font-family="Aptos Narrow,Aptos Narrow_MSFontService,sans-serif" font-weight="400" font-stretch="semi-condensed" font-size="41" transform="matrix(1 0 0 1 5345.56 4458)">-</text></g><g><text fill="#FFFFFF" font-family="Aptos Narrow,Aptos Narrow_MSFontService,sans-serif" font-weight="400" font-stretch="semi-condensed" font-size="41" transform="matrix(1 0 0 1 5358.19 4458)">6.1</text></g><g><text fill="#FFFFFF" font-family="Aptos Narrow,Aptos Narrow_MSFontService,sans-serif" font-weight="400" font-stretch="semi-condensed" font-size="41" transform="matrix(1 0 0 1 5647.57 4350)">8.7</text></g><g><text fill="#FFFFFF" font-family="Aptos Narrow,Aptos Narrow_MSFontService,sans-serif" font-weight="400" font-stretch="semi-condensed" font-size="41" transform="matrix(1 0 0 1 5521.18 4242)">4.9</text></g><g><text fill="#FFFFFF" font-family="Aptos Narrow,Aptos Narrow_MSFontService,sans-serif" font-weight="400" font-stretch="semi-condensed" font-size="41" transform="matrix(1 0 0 1 5601 4135)">7.3</text></g><g><g><text fill="#FFFFFF" font-family="Aptos Narrow,Aptos Narrow_MSFontService,sans-serif" font-weight="400" font-stretch="semi-condensed" font-size="41" transform="matrix(1 0 0 1 5051.96 3919)">-</text></g></g><g><g><text fill="#FFFFFF" font-family="Aptos Narrow,Aptos Narrow_MSFontService,sans-serif" font-weight="400" font-stretch="semi-condensed" font-size="41" transform="matrix(1 0 0 1 5064.58 3919)">60.5</text></g></g><g><g><text fill="#FFFFFF" font-family="Aptos Narrow,Aptos Narrow_MSFontService,sans-serif" font-weight="400" font-stretch="semi-condensed" font-size="41" transform="matrix(1 0 0 1 6280.95 3488)">225</text></g></g><g><text font-family="Aptos Narrow,Aptos Narrow_MSFontService,sans-serif" font-weight="400" font-stretch="semi-condensed" font-size="41" transform="matrix(1 0 0 1 4745.76 5118)">-20</text></g><g><text font-family="Aptos Narrow,Aptos Narrow_MSFontService,sans-serif" font-weight="400" font-stretch="semi-condensed" font-size="41" transform="matrix(1 0 0 1 5078.38 5118)">-10</text></g><g><text font-family="Aptos Narrow,Aptos Narrow_MSFontService,sans-serif" font-weight="400" font-stretch="semi-condensed" font-size="41" transform="matrix(1 0 0 1 5427.77 5118)">0</text></g><g><text font-family="Aptos Narrow,Aptos Narrow_MSFontService,sans-serif" font-weight="400" font-stretch="semi-condensed" font-size="41" transform="matrix(1 0 0 1 5749.94 5118)">10</text></g><g><text font-family="Aptos Narrow,Aptos Narrow_MSFontService,sans-serif" font-weight="400" font-stretch="semi-condensed" font-size="41" transform="matrix(1 0 0 1 6082.56 5118)">20</text></g><g><text font-family="Aptos Narrow,Aptos Narrow_MSFontService,sans-serif" font-weight="400" font-stretch="semi-condensed" font-size="41" transform="matrix(1 0 0 1 6415.18 5118)">30</text></g><g><text font-family="Aptos Narrow,Aptos Narrow_MSFontService,sans-serif" font-weight="400" font-stretch="semi-condensed" font-size="41" transform="matrix(1 0 0 1 6747.8 5118)">40</text></g><g><text font-family="Aptos Narrow,Aptos Narrow_MSFontService,sans-serif" font-weight="400" font-stretch="semi-condensed" font-size="41" transform="matrix(1 0 0 1 7080.42 5118)">50</text></g><g><text font-family="Aptos Narrow,Aptos Narrow_MSFontService,sans-serif" font-weight="400" font-stretch="semi-condensed" font-size="41" transform="matrix(1 0 0 1 4308.92 5011)">HashMap iteration</text></g><g><text font-family="Aptos Narrow,Aptos Narrow_MSFontService,sans-serif" font-weight="400" font-stretch="semi-condensed" font-size="41" transform="matrix(1 0 0 1 4240.42 4903)">Subrange of filtered int</text></g><g><text font-family="Aptos Narrow,Aptos Narrow_MSFontService,sans-serif" font-weight="400" font-stretch="semi-condensed" font-size="41" transform="matrix(1 0 0 1 4307.75 4795)">Sorted copy of ints</text></g><g><text font-family="Aptos Narrow,Aptos Narrow_MSFontService,sans-serif" font-weight="400" font-stretch="semi-condensed" font-size="41" transform="matrix(1 0 0 1 4354.34 4687)">Square doubles</text></g><g><text font-family="Aptos Narrow,Aptos Narrow_MSFontService,sans-serif" font-weight="400" font-stretch="semi-condensed" font-size="41" transform="matrix(1 0 0 1 4289.09 4579)">Small POD iteration</text></g><g><text font-family="Aptos Narrow,Aptos Narrow_MSFontService,sans-serif" font-weight="400" font-stretch="semi-condensed" font-size="41" transform="matrix(1 0 0 1 4298.38 4472)">OrderBy a, Select b</text></g><g><text font-family="Aptos Narrow,Aptos Narrow_MSFontService,sans-serif" font-weight="400" font-stretch="semi-condensed" font-size="41" transform="matrix(1 0 0 1 4263.77 4364)">Positive Min. doubles</text></g><g><text font-family="Aptos Narrow,Aptos Narrow_MSFontService,sans-serif" font-weight="400" font-stretch="semi-condensed" font-size="41" transform="matrix(1 0 0 1 4354.96 4256)">Square integers</text></g><g><text font-family="Aptos Narrow,Aptos Narrow_MSFontService,sans-serif" font-weight="400" font-stretch="semi-condensed" font-size="41" transform="matrix(1 0 0 1 4257.17 4148)">Convert: int -&gt; double</text></g><g><text font-family="Aptos Narrow,Aptos Narrow_MSFontService,sans-serif" font-weight="400" font-stretch="semi-condensed" font-size="41" transform="matrix(1 0 0 1 4271.24 4041)">Pairwise diffs double</text></g><g><text font-family="Aptos Narrow,Aptos Narrow_MSFontService,sans-serif" font-weight="400" font-stretch="semi-condensed" font-size="41" transform="matrix(1 0 0 1 4232.92 3933)">Pos. Minimums by field</text></g><g><text font-family="Aptos Narrow,Aptos Narrow_MSFontService,sans-serif" font-weight="400" font-stretch="semi-condensed" font-size="41" transform="matrix(1 0 0 1 4343.2 3825)">Pairwise diffs int</text></g><g><text font-family="Aptos Narrow,Aptos Narrow_MSFontService,sans-serif" font-weight="400" font-stretch="semi-condensed" font-size="41" transform="matrix(1 0 0 1 4332.82 3717)">Filter and Project</text></g><g><text font-family="Aptos Narrow,Aptos Narrow_MSFontService,sans-serif" font-weight="400" font-stretch="semi-condensed" font-size="41" transform="matrix(1 0 0 1 4312.29 3609)">Minimums by field</text></g><g><text font-family="Aptos Narrow,Aptos Narrow_MSFontService,sans-serif" font-weight="400" font-stretch="semi-condensed" font-size="41" transform="matrix(1 0 0 1 4293.54 3502)">Naive-sum doubles</text></g><g><text font-family="Aptos Narrow,Aptos Narrow_MSFontService,sans-serif" font-weight="400" font-stretch="semi-condensed" font-size="41" transform="matrix(1 0 0 1 4396.62 3394)">Filtered pairs</text></g><g><text font-family="Aptos Display,Aptos Display_MSFontService,sans-serif" font-weight="400" font-size="92" transform="matrix(1 0 0 1 4908.15 3140)">Short sequence overhead  (Clang  -O2)</text></g><g><rect x="5301" y="3228" width="23" height="22.9998" fill="#E97132"/></g><g><text font-family="Aptos Narrow,Aptos Narrow_MSFontService,sans-serif" font-weight="400" font-stretch="semi-condensed" font-size="41" transform="matrix(1 0 0 1 5333.42 3251)">Ranges ovrhd [%]</text></g><g><rect x="5679" y="3228" width="23" height="22.9998" fill="#156082"/></g><g><text font-family="Aptos Narrow,Aptos Narrow_MSFontService,sans-serif" font-weight="400" font-stretch="semi-condensed" font-size="41" transform="matrix(1 0 0 1 5711.53 3251)">Enumerables ovrhd [%]</text></g><rect x="4203.5" y="3020.5" width="2970" height="2139" stroke="#D9D9D9" stroke-width="3.4375" stroke-linejoin="round" stroke-miterlimit="10" fill="none"/></g></svg>