<svg width="2973" height="2480" xmlns="http://www.w3.org/2000/svg" xmlns:xlink="http://www.w3.org/1999/xlink" xml:space="preserve" overflow="hidden"><defs><clipPath id="clip0"><rect x="4202" y="5357" width="2973" height="2480"/></clipPath><clipPath id="clip1"><rect x="4772" y="5666" width="2322" height="2065"/></clipPath><clipPath id="clip2"><rect x="4772" y="5666" width="2322" height="2065"/></clipPath></defs><g clip-path="url(#clip0)" transform="translate(-4202 -5357)"><rect x="4203" y="5358" width="2970" height="2477" fill="#FFFFFF"/><g><path d="M4819.66 5666.5 4819.66 7728.5M4865.66 5666.5 4865.66 7728.5M4911.66 5666.5 4911.66 7728.5M4958.66 5666.5 4958.66 7728.5M5050.67 5666.5 5050.67 7728.5M5097.67 5666.5 5097.67 7728.5M5143.67 5666.5 5143.67 7728.5M5190.67 5666.5 5190.67 7728.5M5282.67 5666.5 5282.67 7728.5M5329.67 5666.5 5329.67 7728.5M5375.68 5666.5 5375.68 7728.5M5421.68 5666.5 5421.68 7728.5M5514.68 5666.5 5514.68 7728.5M5560.68 5666.5 5560.68 7728.5M5607.68 5666.5 5607.68 7728.5M5653.69 5666.5 5653.69 7728.5M5746.69 5666.5 5746.69 7728.5M5792.69 5666.5 5792.69 7728.5M5839.69 5666.5 5839.69 7728.5M5885.69 5666.5 5885.69 7728.5M5978.7 5666.5 5978.7 7728.5M6024.7 5666.5 6024.7 7728.5M6070.7 5666.5 6070.7 7728.5M6117.7 5666.5 6117.7 7728.5M6209.7 5666.5 6209.7 7728.5M6256.71 5666.5 6256.71 7728.5M6302.71 5666.5 6302.71 7728.5M6348.71 5666.5 6348.71 7728.5M6441.71 5666.5 6441.71 7728.5M6488.71 5666.5 6488.71 7728.5M6534.71 5666.5 6534.71 7728.5M6580.72 5666.5 6580.72 7728.5M6673.72 5666.5 6673.72 7728.5M6719.72 5666.5 6719.72 7728.5M6766.72 5666.5 6766.72 7728.5M6812.72 5666.5 6812.72 7728.5M6905.73 5666.5 6905.73 7728.5M6951.73 5666.5 6951.73 7728.5M6997.73 5666.5 6997.73 7728.5M7044.73 5666.5 7044.73 7728.5" stroke="#F2F2F2" stroke-width="3.4375" stroke-linejoin="round" stroke-miterlimit="10" fill="none"/></g><g><path d="M4772.5 5666.5 4772.5 7728.5M5004.66 5666.5 5004.66 7728.5M5236.67 5666.5 5236.67 7728.5M5468.68 5666.5 5468.68 7728.5M5699.69 5666.5 5699.69 7728.5M5931.69 5666.5 5931.69 7728.5M6163.7 5666.5 6163.7 7728.5M6395.71 5666.5 6395.71 7728.5M6627.72 5666.5 6627.72 7728.5M6858.73 5666.5 6858.73 7728.5M7090.5 5666.5 7090.5 7728.5" stroke="#D9D9D9" stroke-width="3.4375" stroke-linejoin="round" stroke-miterlimit="10" fill="none"/></g><g clip-path="url(#clip1)"><path d="M9453 7702.25 5352.18 7702.25 5352.18 7664.25 9453 7664.25ZM8330.27 7573.25 5352.18 7573.25 5352.18 7535.25 8330.27 7535.25ZM6956.23 7445.24 5352.18 7445.24 5352.18 7406.24 6956.23 7406.24ZM6918.23 7316.24 5352.18 7316.24 5352.18 7277.24 6918.23 7277.24ZM6614.22 7187.24 5352.18 7187.24 5352.18 7148.23 6614.22 7148.23ZM6508.21 7058.23 5352.18 7058.23 5352.18 7019.23 6508.21 7019.23ZM6460.21 6929.23 5352.18 6929.23 5352.18 6890.23 6460.21 6890.23ZM5473.18 6800.22 5352.18 6800.22 5352.18 6762.22 5473.18 6762.22ZM5416.18 6671.22 5352.18 6671.22 5352.18 6633.22 5416.18 6633.22ZM5388.18 6542.21 5352.18 6542.21 5352.18 6504.21 5388.18 6504.21ZM5380.18 6413.21 5352.18 6413.21 5352.18 6375.21 5380.18 6375.21ZM5368.18 6284.21 5352.18 6284.21 5352.18 6246.21 5368.18 6246.21ZM5355.18 6155.2 5352.18 6155.2 5352.18 6117.2 5355.18 6117.2ZM5198.17 6027.2 5352.18 6027.2 5352.18 5988.2 5198.17 5988.2ZM5079.17 5898.19 5352.18 5898.19 5352.18 5859.19 5079.17 5859.19ZM5072.17 5769.19 5352.18 5769.19 5352.18 5730.19 5072.17 5730.19Z" fill="#156082"/></g><g clip-path="url(#clip2)"><path d="M13878 7664.25 5352.18 7664.25 5352.18 7625.25 13878 7625.25ZM6965.23 7535.25 5352.18 7535.25 5352.18 7496.25 6965.23 7496.25ZM5267.17 7406.24 5352.18 7406.24 5352.18 7368.24 5267.17 7368.24ZM6920.23 7277.24 5352.18 7277.24 5352.18 7239.24 6920.23 7239.24ZM8233.27 7148.23 5352.18 7148.23 5352.18 7110.23 8233.27 7110.23ZM5346.18 7019.23 5352.18 7019.23 5352.18 6981.23 5346.18 6981.23ZM6473.21 6890.23 5352.18 6890.23 5352.18 6852.22 6473.21 6852.22ZM5477.18 6762.22 5352.18 6762.22 5352.18 6723.22 5477.18 6723.22ZM5488.18 6633.22 5352.18 6633.22 5352.18 6594.22 5488.18 6594.22ZM5445.18 6504.21 5352.18 6504.21 5352.18 6465.21 5445.18 6465.21ZM5459.18 6375.21 5352.18 6375.21 5352.18 6336.21 5459.18 6336.21ZM5194.17 6246.21 5352.18 6246.21 5352.18 6207.2 5194.17 6207.2ZM5686.19 6117.2 5352.18 6117.2 5352.18 6079.2 5686.19 6079.2ZM5924.19 5988.2 5352.18 5988.2 5352.18 5950.2 5924.19 5950.2ZM5079.17 5859.19 5352.18 5859.19 5352.18 5821.19 5079.17 5821.19ZM4849.16 5730.19 5352.18 5730.19 5352.18 5692.19 4849.16 5692.19Z" fill="#E97132"/></g><g><path d="M0 0 0.000360892 2062" stroke="#D9D9D9" stroke-width="3.4375" stroke-linejoin="round" stroke-miterlimit="10" fill="none" fill-rule="evenodd" transform="matrix(1 0 0 -1 5352.5 7728.5)"/></g><g><path d="M5339.5 7728.5 5365.5 7728.5M5339.5 7599.75 5365.5 7599.75M5339.5 7470.75 5365.5 7470.75M5339.5 7341.74 5365.5 7341.74M5339.5 7212.74 5365.5 7212.74M5339.5 7083.73 5365.5 7083.73M5339.5 6954.73 5365.5 6954.73M5339.5 6825.72 5365.5 6825.72M5339.5 6697.72 5365.5 6697.72M5339.5 6568.72 5365.5 6568.72M5339.5 6439.71 5365.5 6439.71M5339.5 6310.71 5365.5 6310.71M5339.5 6181.7 5365.5 6181.7M5339.5 6052.7 5365.5 6052.7M5339.5 5923.69 5365.5 5923.69M5339.5 5794.69 5365.5 5794.69M5339.5 5666.5 5365.5 5666.5" stroke="#D9D9D9" stroke-width="3.4375" stroke-linejoin="round" stroke-miterlimit="10" fill="none"/></g><g><g><text fill="#FFFFFF" font-family="Aptos Narrow,Aptos Narrow_MSFontService,sans-serif" font-weight="400" font-stretch="semi-condensed" font-size="41" transform="matrix(1 0 0 1 5702.06 7697)">353.8</text></g></g><g><text fill="#FFFFFF" font-family="Aptos Narrow,Aptos Narrow_MSFontService,sans-serif" font-weight="400" font-stretch="semi-condensed" font-size="41" transform="matrix(1 0 0 1 6793.95 7568)">256.9</text></g><g><text fill="#FFFFFF" font-family="Aptos Narrow,Aptos Narrow_MSFontService,sans-serif" font-weight="400" font-stretch="semi-condensed" font-size="41" transform="matrix(1 0 0 1 6834.6 7439)">138.4</text></g><g><text fill="#FFFFFF" font-family="Aptos Narrow,Aptos Narrow_MSFontService,sans-serif" font-weight="400" font-stretch="semi-condensed" font-size="41" transform="matrix(1 0 0 1 6796.36 7310)">135.1</text></g><g><text fill="#FFFFFF" font-family="Aptos Narrow,Aptos Narrow_MSFontService,sans-serif" font-weight="400" font-stretch="semi-condensed" font-size="41" transform="matrix(1 0 0 1 6492.71 7182)">108.9</text></g><g><text fill="#FFFFFF" font-family="Aptos Narrow,Aptos Narrow_MSFontService,sans-serif" font-weight="400" font-stretch="semi-condensed" font-size="41" transform="matrix(1 0 0 1 6406.99 7053)">99.7</text></g><g><text fill="#FFFFFF" font-family="Aptos Narrow,Aptos Narrow_MSFontService,sans-serif" font-weight="400" font-stretch="semi-condensed" font-size="41" transform="matrix(1 0 0 1 6359.47 6924)">95.6</text></g><g><g><text font-family="Aptos Narrow,Aptos Narrow_MSFontService,sans-serif" font-weight="400" font-stretch="semi-condensed" font-size="41" transform="matrix(1 0 0 1 5485.21 6670)">5.5</text></g></g><g><text font-family="Aptos Narrow,Aptos Narrow_MSFontService,sans-serif" font-weight="400" font-stretch="semi-condensed" font-size="41" transform="matrix(1 0 0 1 5415.88 6537)">3.1</text></g><g><text font-family="Aptos Narrow,Aptos Narrow_MSFontService,sans-serif" font-weight="400" font-stretch="semi-condensed" font-size="41" transform="matrix(1 0 0 1 5407.76 6408)">2.4</text></g><g><text fill="#FFFFFF" font-family="Aptos Narrow,Aptos Narrow_MSFontService,sans-serif" font-weight="400" font-stretch="semi-condensed" font-size="41" transform="matrix(1 0 0 1 5225.81 6021)">-</text></g><g><text fill="#FFFFFF" font-family="Aptos Narrow,Aptos Narrow_MSFontService,sans-serif" font-weight="400" font-stretch="semi-condensed" font-size="41" transform="matrix(1 0 0 1 5238.44 6021)">13.3</text></g><g><text fill="#FFFFFF" font-family="Aptos Narrow,Aptos Narrow_MSFontService,sans-serif" font-weight="400" font-stretch="semi-condensed" font-size="41" transform="matrix(1 0 0 1 5106.44 5892)">-</text></g><g><text fill="#FFFFFF" font-family="Aptos Narrow,Aptos Narrow_MSFontService,sans-serif" font-weight="400" font-stretch="semi-condensed" font-size="41" transform="matrix(1 0 0 1 5119.07 5892)">23.6</text></g><g><text fill="#FFFFFF" font-family="Aptos Narrow,Aptos Narrow_MSFontService,sans-serif" font-weight="400" font-stretch="semi-condensed" font-size="41" transform="matrix(1 0 0 1 5099.49 5764)">-</text></g><g><text fill="#FFFFFF" font-family="Aptos Narrow,Aptos Narrow_MSFontService,sans-serif" font-weight="400" font-stretch="semi-condensed" font-size="41" transform="matrix(1 0 0 1 5112.11 5764)">24.2</text></g><g><g><text fill="#FFFFFF" font-family="Aptos Narrow,Aptos Narrow_MSFontService,sans-serif" font-weight="400" font-stretch="semi-condensed" font-size="41" transform="matrix(1 0 0 1 6060.75 7659)">735.6</text></g></g><g><text fill="#FFFFFF" font-family="Aptos Narrow,Aptos Narrow_MSFontService,sans-serif" font-weight="400" font-stretch="semi-condensed" font-size="41" transform="matrix(1 0 0 1 6843.87 7530)">139.2</text></g><g><text font-family="Aptos Narrow,Aptos Narrow_MSFontService,sans-serif" font-weight="400" font-stretch="semi-condensed" font-size="41" transform="matrix(1 0 0 1 5174.04 7401)">-</text></g><g><text font-family="Aptos Narrow,Aptos Narrow_MSFontService,sans-serif" font-weight="400" font-stretch="semi-condensed" font-size="41" transform="matrix(1 0 0 1 5186.66 7401)">7.4</text></g><g><text fill="#FFFFFF" font-family="Aptos Narrow,Aptos Narrow_MSFontService,sans-serif" font-weight="400" font-stretch="semi-condensed" font-size="41" transform="matrix(1 0 0 1 6798.68 7272)">135.3</text></g><g><text fill="#FFFFFF" font-family="Aptos Narrow,Aptos Narrow_MSFontService,sans-serif" font-weight="400" font-stretch="semi-condensed" font-size="41" transform="matrix(1 0 0 1 6745.85 7143)">248.6</text></g><g><text fill="#FFFFFF" font-family="Aptos Narrow,Aptos Narrow_MSFontService,sans-serif" font-weight="400" font-stretch="semi-condensed" font-size="41" transform="matrix(1 0 0 1 5259.8 7014)">-</text></g><g><text fill="#FFFFFF" font-family="Aptos Narrow,Aptos Narrow_MSFontService,sans-serif" font-weight="400" font-stretch="semi-condensed" font-size="41" transform="matrix(1 0 0 1 5272.42 7014)">0.5</text></g><g><text fill="#FFFFFF" font-family="Aptos Narrow,Aptos Narrow_MSFontService,sans-serif" font-weight="400" font-stretch="semi-condensed" font-size="41" transform="matrix(1 0 0 1 6372.22 6885)">96.7</text></g><g><text font-family="Aptos Narrow,Aptos Narrow_MSFontService,sans-serif" font-weight="400" font-stretch="semi-condensed" font-size="41" transform="matrix(1 0 0 1 5515.55 6627)">11.7</text></g><g><text font-family="Aptos Narrow,Aptos Narrow_MSFontService,sans-serif" font-weight="400" font-stretch="semi-condensed" font-size="41" transform="matrix(1 0 0 1 5472.67 6499)">8</text></g><g><text font-family="Aptos Narrow,Aptos Narrow_MSFontService,sans-serif" font-weight="400" font-stretch="semi-condensed" font-size="41" transform="matrix(1 0 0 1 5486.57 6370)">9.2</text></g><g><text fill="#FFFFFF" font-family="Aptos Narrow,Aptos Narrow_MSFontService,sans-serif" font-weight="400" font-stretch="semi-condensed" font-size="41" transform="matrix(1 0 0 1 5221.17 6241)">-</text></g><g><text fill="#FFFFFF" font-family="Aptos Narrow,Aptos Narrow_MSFontService,sans-serif" font-weight="400" font-stretch="semi-condensed" font-size="41" transform="matrix(1 0 0 1 5233.8 6241)">13.7</text></g><g><text fill="#FFFFFF" font-family="Aptos Narrow,Aptos Narrow_MSFontService,sans-serif" font-weight="400" font-stretch="semi-condensed" font-size="41" transform="matrix(1 0 0 1 5585.3 6112)">28.8</text></g><g><text fill="#FFFFFF" font-family="Aptos Narrow,Aptos Narrow_MSFontService,sans-serif" font-weight="400" font-stretch="semi-condensed" font-size="41" transform="matrix(1 0 0 1 5822.88 5983)">49.3</text></g><g><text fill="#FFFFFF" font-family="Aptos Narrow,Aptos Narrow_MSFontService,sans-serif" font-weight="400" font-stretch="semi-condensed" font-size="41" transform="matrix(1 0 0 1 5106.44 5854)">-</text></g><g><text fill="#FFFFFF" font-family="Aptos Narrow,Aptos Narrow_MSFontService,sans-serif" font-weight="400" font-stretch="semi-condensed" font-size="41" transform="matrix(1 0 0 1 5119.07 5854)">23.6</text></g><g><text fill="#FFFFFF" font-family="Aptos Narrow,Aptos Narrow_MSFontService,sans-serif" font-weight="400" font-stretch="semi-condensed" font-size="41" transform="matrix(1 0 0 1 4876.97 5725)">-</text></g><g><text fill="#FFFFFF" font-family="Aptos Narrow,Aptos Narrow_MSFontService,sans-serif" font-weight="400" font-stretch="semi-condensed" font-size="41" transform="matrix(1 0 0 1 4889.6 5725)">43.4</text></g><g><text font-family="Aptos Narrow,Aptos Narrow_MSFontService,sans-serif" font-weight="400" font-stretch="semi-condensed" font-size="41" transform="matrix(1 0 0 1 4745.76 7793)">-50</text></g><g><text font-family="Aptos Narrow,Aptos Narrow_MSFontService,sans-serif" font-weight="400" font-stretch="semi-condensed" font-size="41" transform="matrix(1 0 0 1 4977.55 7793)">-30</text></g><g><text font-family="Aptos Narrow,Aptos Narrow_MSFontService,sans-serif" font-weight="400" font-stretch="semi-condensed" font-size="41" transform="matrix(1 0 0 1 5209.34 7793)">-10</text></g><g><text font-family="Aptos Narrow,Aptos Narrow_MSFontService,sans-serif" font-weight="400" font-stretch="semi-condensed" font-size="41" transform="matrix(1 0 0 1 5447.44 7793)">10</text></g><g><text font-family="Aptos Narrow,Aptos Narrow_MSFontService,sans-serif" font-weight="400" font-stretch="semi-condensed" font-size="41" transform="matrix(1 0 0 1 5679.23 7793)">30</text></g><g><text font-family="Aptos Narrow,Aptos Narrow_MSFontService,sans-serif" font-weight="400" font-stretch="semi-condensed" font-size="41" transform="matrix(1 0 0 1 5911.02 7793)">50</text></g><g><text font-family="Aptos Narrow,Aptos Narrow_MSFontService,sans-serif" font-weight="400" font-stretch="semi-condensed" font-size="41" transform="matrix(1 0 0 1 6142.81 7793)">70</text></g><g><text font-family="Aptos Narrow,Aptos Narrow_MSFontService,sans-serif" font-weight="400" font-stretch="semi-condensed" font-size="41" transform="matrix(1 0 0 1 6374.6 7793)">90</text></g><g><text font-family="Aptos Narrow,Aptos Narrow_MSFontService,sans-serif" font-weight="400" font-stretch="semi-condensed" font-size="41" transform="matrix(1 0 0 1 6595.94 7793)">110</text></g><g><text font-family="Aptos Narrow,Aptos Narrow_MSFontService,sans-serif" font-weight="400" font-stretch="semi-condensed" font-size="41" transform="matrix(1 0 0 1 6827.73 7793)">130</text></g><g><text font-family="Aptos Narrow,Aptos Narrow_MSFontService,sans-serif" font-weight="400" font-stretch="semi-condensed" font-size="41" transform="matrix(1 0 0 1 7059.52 7793)">150</text></g><g><text font-family="Aptos Narrow,Aptos Narrow_MSFontService,sans-serif" font-weight="400" font-stretch="semi-condensed" font-size="41" transform="matrix(1 0 0 1 4232.92 7676)">Pos. Minimums by field</text></g><g><text font-family="Aptos Narrow,Aptos Narrow_MSFontService,sans-serif" font-weight="400" font-stretch="semi-condensed" font-size="41" transform="matrix(1 0 0 1 4354.34 7547)">Square doubles</text></g><g><text font-family="Aptos Narrow,Aptos Narrow_MSFontService,sans-serif" font-weight="400" font-stretch="semi-condensed" font-size="41" transform="matrix(1 0 0 1 4289.09 7418)">Small POD iteration</text></g><g><text font-family="Aptos Narrow,Aptos Narrow_MSFontService,sans-serif" font-weight="400" font-stretch="semi-condensed" font-size="41" transform="matrix(1 0 0 1 4257.17 7289)">Convert: int -&gt; double</text></g><g><text font-family="Aptos Narrow,Aptos Narrow_MSFontService,sans-serif" font-weight="400" font-stretch="semi-condensed" font-size="41" transform="matrix(1 0 0 1 4312.29 7160)">Minimums by field</text></g><g><text font-family="Aptos Narrow,Aptos Narrow_MSFontService,sans-serif" font-weight="400" font-stretch="semi-condensed" font-size="41" transform="matrix(1 0 0 1 4308.92 7031)">HashMap iteration</text></g><g><text font-family="Aptos Narrow,Aptos Narrow_MSFontService,sans-serif" font-weight="400" font-stretch="semi-condensed" font-size="41" transform="matrix(1 0 0 1 4354.96 6902)">Square integers</text></g><g><text font-family="Aptos Narrow,Aptos Narrow_MSFontService,sans-serif" font-weight="400" font-stretch="semi-condensed" font-size="41" transform="matrix(1 0 0 1 4396.62 6773)">Filtered pairs</text></g><g><text font-family="Aptos Narrow,Aptos Narrow_MSFontService,sans-serif" font-weight="400" font-stretch="semi-condensed" font-size="41" transform="matrix(1 0 0 1 4263.77 6644)">Positive Min. doubles</text></g><g><text font-family="Aptos Narrow,Aptos Narrow_MSFontService,sans-serif" font-weight="400" font-stretch="semi-condensed" font-size="41" transform="matrix(1 0 0 1 4332.82 6515)">Filter and Project</text></g><g><text font-family="Aptos Narrow,Aptos Narrow_MSFontService,sans-serif" font-weight="400" font-stretch="semi-condensed" font-size="41" transform="matrix(1 0 0 1 4307.75 6387)">Sorted copy of ints</text></g><g><text font-family="Aptos Narrow,Aptos Narrow_MSFontService,sans-serif" font-weight="400" font-stretch="semi-condensed" font-size="41" transform="matrix(1 0 0 1 4298.38 6258)">OrderBy a, Select b</text></g><g><text font-family="Aptos Narrow,Aptos Narrow_MSFontService,sans-serif" font-weight="400" font-stretch="semi-condensed" font-size="41" transform="matrix(1 0 0 1 4293.54 6129)">Naive-sum doubles</text></g><g><text font-family="Aptos Narrow,Aptos Narrow_MSFontService,sans-serif" font-weight="400" font-stretch="semi-condensed" font-size="41" transform="matrix(1 0 0 1 4343.2 6000)">Pairwise diffs int</text></g><g><text font-family="Aptos Narrow,Aptos Narrow_MSFontService,sans-serif" font-weight="400" font-stretch="semi-condensed" font-size="41" transform="matrix(1 0 0 1 4271.24 5871)">Pairwise diffs double</text></g><g><text font-family="Aptos Narrow,Aptos Narrow_MSFontService,sans-serif" font-weight="400" font-stretch="semi-condensed" font-size="41" transform="matrix(1 0 0 1 4240.42 5742)">Subrange of filtered int</text></g><g><text font-family="Aptos Display,Aptos Display_MSFontService,sans-serif" font-weight="400" font-size="92" transform="matrix(1 0 0 1 4915.8 5478)">Long sequence overhead  (Clang  -O2)</text></g><g><rect x="5301" y="5566" width="23" height="22" fill="#E97132"/></g><g><text font-family="Aptos Narrow,Aptos Narrow_MSFontService,sans-serif" font-weight="400" font-stretch="semi-condensed" font-size="41" transform="matrix(1 0 0 1 5333.42 5588)">Ranges ovrhd [%]</text></g><g><rect x="5679" y="5566" width="23" height="22" fill="#156082"/></g><g><text font-family="Aptos Narrow,Aptos Narrow_MSFontService,sans-serif" font-weight="400" font-stretch="semi-condensed" font-size="41" transform="matrix(1 0 0 1 5711.53 5588)">Enumerables ovrhd [%]</text></g><rect x="4203.5" y="5358.5" width="2970" height="2477" stroke="#D9D9D9" stroke-width="3.4375" stroke-linejoin="round" stroke-miterlimit="10" fill="none"/></g></svg>