<svg width="3202" height="2351" xmlns="http://www.w3.org/2000/svg" xmlns:xlink="http://www.w3.org/1999/xlink" xml:space="preserve" overflow="hidden"><defs><clipPath id="clip0"><rect x="4179" y="5637" width="3202" height="2351"/></clipPath><clipPath id="clip1"><rect x="4750" y="5946" width="2551" height="1937"/></clipPath></defs><g clip-path="url(#clip0)" transform="translate(-4179 -5637)"><rect x="4180" y="5638" width="3199" height="2348" fill="#FFFFFF"/><g><path d="M4820.66 5946.5 4820.66 7879.5M4891.66 5946.5 4891.66 7879.5M4962.66 5946.5 4962.66 7879.5M5033.67 5946.5 5033.67 7879.5M5174.67 5946.5 5174.67 7879.5M5245.67 5946.5 5245.67 7879.5M5316.67 5946.5 5316.67 7879.5M5386.68 5946.5 5386.68 7879.5M5528.68 5946.5 5528.68 7879.5M5599.68 5946.5 5599.68 7879.5M5669.69 5946.5 5669.69 7879.5M5740.69 5946.5 5740.69 7879.5M5882.69 5946.5 5882.69 7879.5M5952.7 5946.5 5952.7 7879.5M6023.7 5946.5 6023.7 7879.5M6094.7 5946.5 6094.7 7879.5M6235.7 5946.5 6235.7 7879.5M6306.71 5946.5 6306.71 7879.5M6377.71 5946.5 6377.71 7879.5M6448.71 5946.5 6448.71 7879.5M6589.72 5946.5 6589.72 7879.5M6660.72 5946.5 6660.72 7879.5M6731.72 5946.5 6731.72 7879.5M6802.72 5946.5 6802.72 7879.5M6943.73 5946.5 6943.73 7879.5M7014.73 5946.5 7014.73 7879.5M7085.73 5946.5 7085.73 7879.5M7155.73 5946.5 7155.73 7879.5M7297.5 5946.5 7297.5 7879.5" stroke="#F2F2F2" stroke-width="3.4375" stroke-linejoin="round" stroke-miterlimit="10" fill="none"/></g><g><path d="M4750.5 5946.5 4750.5 7879.5M5457.68 5946.5 5457.68 7879.5M5811.69 5946.5 5811.69 7879.5M6165.7 5946.5 6165.7 7879.5M6519.71 5946.5 6519.71 7879.5M6872.73 5946.5 6872.73 7879.5M7226.5 5946.5 7226.5 7879.5" stroke="#D9D9D9" stroke-width="3.4375" stroke-linejoin="round" stroke-miterlimit="10" fill="none"/></g><g><path d="M7238.24 7855.26 5104.17 7855.26 5104.17 7819.26 7238.24 7819.26ZM5911.19 7734.25 5104.17 7734.25 5104.17 7698.25 5911.19 7698.25ZM5859.19 7613.25 5104.17 7613.25 5104.17 7577.25 5859.19 7577.25ZM5717.19 7493.25 5104.17 7493.25 5104.17 7456.24 5717.19 7456.24ZM5477.18 7372.24 5104.17 7372.24 5104.17 7336.24 5477.18 7336.24ZM5264.17 7251.24 5104.17 7251.24 5104.17 7215.24 5264.17 7215.24ZM5238.17 7130.23 5104.17 7130.23 5104.17 7094.23 5238.17 7094.23ZM5220.17 7009.23 5104.17 7009.23 5104.17 6973.23 5220.17 6973.23ZM5218.17 6888.23 5104.17 6888.23 5104.17 6852.23 5218.17 6852.23ZM5206.17 6768.22 5104.17 6768.22 5104.17 6731.22 5206.17 6731.22ZM5157.17 6647.22 5104.17 6647.22 5104.17 6611.22 5157.17 6611.22ZM5136.17 6526.21 5104.17 6526.21 5104.17 6490.21 5136.17 6490.21ZM5124.17 6405.21 5104.17 6405.21 5104.17 6369.21 5124.17 6369.21ZM5107.17 6284.21 5104.17 6284.21 5104.17 6248.21 5107.17 6248.21ZM5061.17 6163.2 5104.17 6163.2 5104.17 6127.2 5061.17 6127.2ZM4954.16 6043.2 5104.17 6043.2 5104.17 6007.2 4954.16 6007.2Z" fill="#156082"/></g><g clip-path="url(#clip1)"><path d="M5315.17 7819.26 5104.17 7819.26 5104.17 7783.26 5315.17 7783.26ZM9772 7698.25 5104.17 7698.25 5104.17 7662.25 9772 7662.25ZM5955.2 7577.25 5104.17 7577.25 5104.17 7541.25 5955.2 7541.25ZM6135.2 7456.24 5104.17 7456.24 5104.17 7420.24 6135.2 7420.24ZM5234.17 7336.24 5104.17 7336.24 5104.17 7300.24 5234.17 7300.24ZM5101.17 7215.24 5104.17 7215.24 5104.17 7179.24 5101.17 7179.24ZM5104.17 7094.23 5105.17 7094.23 5105.17 7058.23 5104.17 7058.23ZM5103.17 6973.23 5104.17 6973.23 5104.17 6937.23 5103.17 6937.23ZM5104.17 6852.23 5105.17 6852.23 5105.17 6816.22 5104.17 6816.22ZM5100.17 6731.22 5104.17 6731.22 5104.17 6695.22 5100.17 6695.22ZM5054.17 6611.22 5104.17 6611.22 5104.17 6575.22 5054.17 6575.22ZM5114.17 6490.21 5104.17 6490.21 5104.17 6454.21 5114.17 6454.21ZM5068.17 6369.21 5104.17 6369.21 5104.17 6333.21 5068.17 6333.21ZM5688.19 6248.21 5104.17 6248.21 5104.17 6212.2 5688.19 6212.2ZM5112.17 6127.2 5104.17 6127.2 5104.17 6091.2 5112.17 6091.2ZM4788.16 6007.2 5104.17 6007.2 5104.17 5970.2 4788.16 5970.2Z" fill="#E97132"/></g><g><path d="M0 0 0.000360892 1933" stroke="#D9D9D9" stroke-width="3.4375" stroke-linejoin="round" stroke-miterlimit="10" fill="none" fill-rule="evenodd" transform="matrix(1 0 0 -1 5104.5 7879.5)"/></g><g><path d="M5091.5 7879.5 5116.5 7879.5M5091.5 7758.75 5116.5 7758.75M5091.5 7637.75 5116.5 7637.75M5091.5 7516.75 5116.5 7516.75M5091.5 7396.74 5116.5 7396.74M5091.5 7275.74 5116.5 7275.74M5091.5 7154.73 5116.5 7154.73M5091.5 7033.73 5116.5 7033.73M5091.5 6912.73 5116.5 6912.73M5091.5 6791.72 5116.5 6791.72M5091.5 6671.72 5116.5 6671.72M5091.5 6550.71 5116.5 6550.71M5091.5 6429.71 5116.5 6429.71M5091.5 6308.71 5116.5 6308.71M5091.5 6187.7 5116.5 6187.7M5091.5 6066.7 5116.5 6066.7M5091.5 5946.5 5116.5 5946.5" stroke="#D9D9D9" stroke-width="3.4375" stroke-linejoin="round" stroke-miterlimit="10" fill="none"/></g><g><text fill="#FFFFFF" font-family="Aptos Narrow,Aptos Narrow_MSFontService,sans-serif" font-weight="400" font-stretch="semi-condensed" font-size="41" transform="matrix(1 0 0 1 7116.3 7851)">301.6</text></g><g><text fill="#FFFFFF" font-family="Aptos Narrow,Aptos Narrow_MSFontService,sans-serif" font-weight="400" font-stretch="semi-condensed" font-size="41" transform="matrix(1 0 0 1 5789.58 7730)">114.1</text></g><g><text fill="#FFFFFF" font-family="Aptos Narrow,Aptos Narrow_MSFontService,sans-serif" font-weight="400" font-stretch="semi-condensed" font-size="41" transform="matrix(1 0 0 1 5737.22 7609)">106.7</text></g><g><text fill="#FFFFFF" font-family="Aptos Narrow,Aptos Narrow_MSFontService,sans-serif" font-weight="400" font-stretch="semi-condensed" font-size="41" transform="matrix(1 0 0 1 5615.9 7489)">86.6</text></g><g><text fill="#FFFFFF" font-family="Aptos Narrow,Aptos Narrow_MSFontService,sans-serif" font-weight="400" font-stretch="semi-condensed" font-size="41" transform="matrix(1 0 0 1 5376.02 7368)">52.7</text></g><g><text fill="#FFFFFF" font-family="Aptos Narrow,Aptos Narrow_MSFontService,sans-serif" font-weight="400" font-stretch="semi-condensed" font-size="41" transform="matrix(1 0 0 1 5163.04 7247)">22.6</text></g><g><text fill="#FFFFFF" font-family="Aptos Narrow,Aptos Narrow_MSFontService,sans-serif" font-weight="400" font-stretch="semi-condensed" font-size="41" transform="matrix(1 0 0 1 5169.19 7126)">19</text></g><g><text fill="#FFFFFF" font-family="Aptos Narrow,Aptos Narrow_MSFontService,sans-serif" font-weight="400" font-stretch="semi-condensed" font-size="41" transform="matrix(1 0 0 1 5131.55 7005)">16.4</text></g><g><text fill="#FFFFFF" font-family="Aptos Narrow,Aptos Narrow_MSFontService,sans-serif" font-weight="400" font-stretch="semi-condensed" font-size="41" transform="matrix(1 0 0 1 5131.55 6884)">16.1</text></g><g><text fill="#FFFFFF" font-family="Aptos Narrow,Aptos Narrow_MSFontService,sans-serif" font-weight="400" font-stretch="semi-condensed" font-size="41" transform="matrix(1 0 0 1 5131.55 6764)">14.5</text></g><g><text font-family="Aptos Narrow,Aptos Narrow_MSFontService,sans-serif" font-weight="400" font-stretch="semi-condensed" font-size="41" transform="matrix(1 0 0 1 5184.62 6643)">7.5</text></g><g><text font-family="Aptos Narrow,Aptos Narrow_MSFontService,sans-serif" font-weight="400" font-stretch="semi-condensed" font-size="41" transform="matrix(1 0 0 1 5163.39 6522)">4.5</text></g><g><text font-family="Aptos Narrow,Aptos Narrow_MSFontService,sans-serif" font-weight="400" font-stretch="semi-condensed" font-size="41" transform="matrix(1 0 0 1 5152.07 6401)">2.9</text></g><g><text fill="#FFFFFF" font-family="Aptos Narrow,Aptos Narrow_MSFontService,sans-serif" font-weight="400" font-stretch="semi-condensed" font-size="41" transform="matrix(1 0 0 1 5131.55 6280)">0.4</text></g><g><text font-family="Aptos Narrow,Aptos Narrow_MSFontService,sans-serif" font-weight="400" font-stretch="semi-condensed" font-size="41" transform="matrix(1 0 0 1 4968.24 6159)">-</text></g><g><text font-family="Aptos Narrow,Aptos Narrow_MSFontService,sans-serif" font-weight="400" font-stretch="semi-condensed" font-size="41" transform="matrix(1 0 0 1 4980.86 6159)">6.1</text></g><g><text fill="#FFFFFF" font-family="Aptos Narrow,Aptos Narrow_MSFontService,sans-serif" font-weight="400" font-stretch="semi-condensed" font-size="41" transform="matrix(1 0 0 1 4981.54 6039)">-</text></g><g><text fill="#FFFFFF" font-family="Aptos Narrow,Aptos Narrow_MSFontService,sans-serif" font-weight="400" font-stretch="semi-condensed" font-size="41" transform="matrix(1 0 0 1 4994.17 6039)">21.2</text></g><g><text fill="#FFFFFF" font-family="Aptos Narrow,Aptos Narrow_MSFontService,sans-serif" font-weight="400" font-stretch="semi-condensed" font-size="41" transform="matrix(1 0 0 1 5213.99 7815)">29.8</text></g><g><g><text fill="#FFFFFF" font-family="Aptos Narrow,Aptos Narrow_MSFontService,sans-serif" font-weight="400" font-stretch="semi-condensed" font-size="41" transform="matrix(1 0 0 1 6200.87 7694)">659.7</text></g></g><g><text fill="#FFFFFF" font-family="Aptos Narrow,Aptos Narrow_MSFontService,sans-serif" font-weight="400" font-stretch="semi-condensed" font-size="41" transform="matrix(1 0 0 1 5833.45 7573)">120.3</text></g><g><text fill="#FFFFFF" font-family="Aptos Narrow,Aptos Narrow_MSFontService,sans-serif" font-weight="400" font-stretch="semi-condensed" font-size="41" transform="matrix(1 0 0 1 6013.18 7452)">145.7</text></g><g><text fill="#FFFFFF" font-family="Aptos Narrow,Aptos Narrow_MSFontService,sans-serif" font-weight="400" font-stretch="semi-condensed" font-size="41" transform="matrix(1 0 0 1 5133.32 7332)">18.4</text></g><g><text font-family="Aptos Narrow,Aptos Narrow_MSFontService,sans-serif" font-weight="400" font-stretch="semi-condensed" font-size="41" transform="matrix(1 0 0 1 4961.16 6607)">-</text></g><g><text font-family="Aptos Narrow,Aptos Narrow_MSFontService,sans-serif" font-weight="400" font-stretch="semi-condensed" font-size="41" transform="matrix(1 0 0 1 4973.79 6607)">7.1</text></g><g><text font-family="Aptos Narrow,Aptos Narrow_MSFontService,sans-serif" font-weight="400" font-stretch="semi-condensed" font-size="41" transform="matrix(1 0 0 1 4975.31 6365)">-</text></g><g><text font-family="Aptos Narrow,Aptos Narrow_MSFontService,sans-serif" font-weight="400" font-stretch="semi-condensed" font-size="41" transform="matrix(1 0 0 1 4987.94 6365)">5.1</text></g><g><text fill="#FFFFFF" font-family="Aptos Narrow,Aptos Narrow_MSFontService,sans-serif" font-weight="400" font-stretch="semi-condensed" font-size="41" transform="matrix(1 0 0 1 5586.88 6244)">82.5</text></g><g><text fill="#FFFFFF" font-family="Aptos Narrow,Aptos Narrow_MSFontService,sans-serif" font-weight="400" font-stretch="semi-condensed" font-size="41" transform="matrix(1 0 0 1 4815.26 6003)">-</text></g><g><text fill="#FFFFFF" font-family="Aptos Narrow,Aptos Narrow_MSFontService,sans-serif" font-weight="400" font-stretch="semi-condensed" font-size="41" transform="matrix(1 0 0 1 4827.89 6003)">44.7</text></g><g><text font-family="Aptos Narrow,Aptos Narrow_MSFontService,sans-serif" font-weight="400" font-stretch="semi-condensed" font-size="41" transform="matrix(1 0 0 1 4723.05 7944)">-50</text></g><g><text font-family="Aptos Narrow,Aptos Narrow_MSFontService,sans-serif" font-weight="400" font-stretch="semi-condensed" font-size="41" transform="matrix(1 0 0 1 5093.6 7944)">0</text></g><g><text font-family="Aptos Narrow,Aptos Narrow_MSFontService,sans-serif" font-weight="400" font-stretch="semi-condensed" font-size="41" transform="matrix(1 0 0 1 5436.94 7944)">50</text></g><g><text font-family="Aptos Narrow,Aptos Narrow_MSFontService,sans-serif" font-weight="400" font-stretch="semi-condensed" font-size="41" transform="matrix(1 0 0 1 5780.29 7944)">100</text></g><g><text font-family="Aptos Narrow,Aptos Narrow_MSFontService,sans-serif" font-weight="400" font-stretch="semi-condensed" font-size="41" transform="matrix(1 0 0 1 6134.08 7944)">150</text></g><g><text font-family="Aptos Narrow,Aptos Narrow_MSFontService,sans-serif" font-weight="400" font-stretch="semi-condensed" font-size="41" transform="matrix(1 0 0 1 6487.87 7944)">200</text></g><g><text font-family="Aptos Narrow,Aptos Narrow_MSFontService,sans-serif" font-weight="400" font-stretch="semi-condensed" font-size="41" transform="matrix(1 0 0 1 6841.66 7944)">250</text></g><g><text font-family="Aptos Narrow,Aptos Narrow_MSFontService,sans-serif" font-weight="400" font-stretch="semi-condensed" font-size="41" transform="matrix(1 0 0 1 7195.46 7944)">300</text></g><g><text font-family="Aptos Narrow,Aptos Narrow_MSFontService,sans-serif" font-weight="400" font-stretch="semi-condensed" font-size="41" transform="matrix(1 0 0 1 4270.82 7831)">Naive-sum doubles</text></g><g><text font-family="Aptos Narrow,Aptos Narrow_MSFontService,sans-serif" font-weight="400" font-stretch="semi-condensed" font-size="41" transform="matrix(1 0 0 1 4289.57 7710)">Minimums by field</text></g><g><text font-family="Aptos Narrow,Aptos Narrow_MSFontService,sans-serif" font-weight="400" font-stretch="semi-condensed" font-size="41" transform="matrix(1 0 0 1 4320.48 7589)">Pairwise diffs int</text></g><g><text font-family="Aptos Narrow,Aptos Narrow_MSFontService,sans-serif" font-weight="400" font-stretch="semi-condensed" font-size="41" transform="matrix(1 0 0 1 4332.24 7468)">Square integers</text></g><g><text font-family="Aptos Narrow,Aptos Narrow_MSFontService,sans-serif" font-weight="400" font-stretch="semi-condensed" font-size="41" transform="matrix(1 0 0 1 4248.52 7347)">Pairwise diffs double</text></g><g><text font-family="Aptos Narrow,Aptos Narrow_MSFontService,sans-serif" font-weight="400" font-stretch="semi-condensed" font-size="41" transform="matrix(1 0 0 1 4266.38 7227)">Small POD iteration</text></g><g><text font-family="Aptos Narrow,Aptos Narrow_MSFontService,sans-serif" font-weight="400" font-stretch="semi-condensed" font-size="41" transform="matrix(1 0 0 1 4310.1 7106)">Filter and Project</text></g><g><text font-family="Aptos Narrow,Aptos Narrow_MSFontService,sans-serif" font-weight="400" font-stretch="semi-condensed" font-size="41" transform="matrix(1 0 0 1 4234.45 6985)">Convert: int -&gt; double</text></g><g><text font-family="Aptos Narrow,Aptos Narrow_MSFontService,sans-serif" font-weight="400" font-stretch="semi-condensed" font-size="41" transform="matrix(1 0 0 1 4331.62 6864)">Square doubles</text></g><g><text font-family="Aptos Narrow,Aptos Narrow_MSFontService,sans-serif" font-weight="400" font-stretch="semi-condensed" font-size="41" transform="matrix(1 0 0 1 4373.9 6743)">Filtered pairs</text></g><g><text font-family="Aptos Narrow,Aptos Narrow_MSFontService,sans-serif" font-weight="400" font-stretch="semi-condensed" font-size="41" transform="matrix(1 0 0 1 4275.66 6622)">OrderBy a, Select b</text></g><g><text font-family="Aptos Narrow,Aptos Narrow_MSFontService,sans-serif" font-weight="400" font-stretch="semi-condensed" font-size="41" transform="matrix(1 0 0 1 4241.05 6502)">Positive Min. doubles</text></g><g><text font-family="Aptos Narrow,Aptos Narrow_MSFontService,sans-serif" font-weight="400" font-stretch="semi-condensed" font-size="41" transform="matrix(1 0 0 1 4285.03 6381)">Sorted copy of ints</text></g><g><text font-family="Aptos Narrow,Aptos Narrow_MSFontService,sans-serif" font-weight="400" font-stretch="semi-condensed" font-size="41" transform="matrix(1 0 0 1 4210.21 6260)">Pos. Minimums by field</text></g><g><text font-family="Aptos Narrow,Aptos Narrow_MSFontService,sans-serif" font-weight="400" font-stretch="semi-condensed" font-size="41" transform="matrix(1 0 0 1 4286.2 6139)">HashMap iteration</text></g><g><text font-family="Aptos Narrow,Aptos Narrow_MSFontService,sans-serif" font-weight="400" font-stretch="semi-condensed" font-size="41" transform="matrix(1 0 0 1 4217.7 6018)">Subrange of filtered int</text></g><g><text font-family="Aptos Display,Aptos Display_MSFontService,sans-serif" font-weight="400" font-size="92" transform="matrix(1 0 0 1 5071.2 5758)">Long sequence overhead  (MSVC  /O2)</text></g><g><rect x="5393" y="5846" width="23" height="22.9995" fill="#E97132"/></g><g><text font-family="Aptos Narrow,Aptos Narrow_MSFontService,sans-serif" font-weight="400" font-stretch="semi-condensed" font-size="41" transform="matrix(1 0 0 1 5425.41 5869)">Ranges ovrhd [%]</text></g><g><rect x="5771" y="5846" width="23" height="22.9995" fill="#156082"/></g><g><text font-family="Aptos Narrow,Aptos Narrow_MSFontService,sans-serif" font-weight="400" font-stretch="semi-condensed" font-size="41" transform="matrix(1 0 0 1 5803.52 5869)">Enumerables ovrhd [%]</text></g><rect x="4180.5" y="5638.5" width="3199" height="2348" stroke="#D9D9D9" stroke-width="3.4375" stroke-linejoin="round" stroke-miterlimit="10" fill="none"/></g></svg>