<svg width="2860" height="4330" xmlns="http://www.w3.org/2000/svg" xmlns:xlink="http://www.w3.org/1999/xlink" xml:space="preserve" overflow="hidden"><defs><clipPath id="clip0"><rect x="444" y="4473" width="2860" height="4330"/></clipPath></defs><g clip-path="url(#clip0)" transform="translate(-444 -4473)"><rect x="445" y="4474" width="2857" height="4327" fill="#FFFFFF"/><g><path d="M943.531 4782.5 943.531 8694.5M994.533 4782.5 994.533 8694.5M1046.53 4782.5 1046.53 8694.5M1098.54 4782.5 1098.54 8694.5M1201.54 4782.5 1201.54 8694.5M1253.54 4782.5 1253.54 8694.5M1305.54 4782.5 1305.54 8694.5M1357.54 4782.5 1357.54 8694.5M1460.55 4782.5 1460.55 8694.5M1512.55 4782.5 1512.55 8694.5M1564.55 4782.5 1564.55 8694.5M1615.55 4782.5 1615.55 8694.5M1719.56 4782.5 1719.56 8694.5M1771.56 4782.5 1771.56 8694.5M1822.56 4782.5 1822.56 8694.5M1874.56 4782.5 1874.56 8694.5M1978.57 4782.5 1978.57 8694.5M2029.57 4782.5 2029.57 8694.5M2081.57 4782.5 2081.57 8694.5M2133.57 4782.5 2133.57 8694.5M2236.57 4782.5 2236.57 8694.5M2288.58 4782.5 2288.58 8694.5M2340.58 4782.5 2340.58 8694.5M2392.58 4782.5 2392.58 8694.5M2495.58 4782.5 2495.58 8694.5M2547.58 4782.5 2547.58 8694.5M2599.59 4782.5 2599.59 8694.5M2650.59 4782.5 2650.59 8694.5M2754.59 4782.5 2754.59 8694.5M2806.59 4782.5 2806.59 8694.5M2857.59 4782.5 2857.59 8694.5M2909.6 4782.5 2909.6 8694.5M3013.6 4782.5 3013.6 8694.5M3064.6 4782.5 3064.6 8694.5M3116.6 4782.5 3116.6 8694.5M3168.6 4782.5 3168.6 8694.5" stroke="#F2F2F2" stroke-width="3.4375" stroke-linejoin="round" stroke-miterlimit="10" fill="none"/></g><g><path d="M1150.54 4782.5 1150.54 8694.5M1408.55 4782.5 1408.55 8694.5M1667.55 4782.5 1667.55 8694.5M1926.56 4782.5 1926.56 8694.5M2185.57 4782.5 2185.57 8694.5M2443.58 4782.5 2443.58 8694.5M2702.59 4782.5 2702.59 8694.5M2961.6 4782.5 2961.6 8694.5M3220.5 4782.5 3220.5 8694.5" stroke="#D9D9D9" stroke-width="3.4375" stroke-linejoin="round" stroke-miterlimit="10" fill="none"/></g><g><path d="M891.5 8694.5 3220.5 8694.5M891.5 8488.78 3220.5 8488.78M891.5 8282.77 3220.5 8282.77M891.5 8076.77 3220.5 8076.77M891.5 7870.76 3220.5 7870.76M891.5 7664.75 3220.5 7664.75M891.5 7458.75 3220.5 7458.75M891.5 7252.74 3220.5 7252.74M891.5 7047.73 3220.5 7047.73M891.5 6841.72 3220.5 6841.72M891.5 6635.72 3220.5 6635.72M891.5 6429.71 3220.5 6429.71M891.5 6223.7 3220.5 6223.7M891.5 6017.7 3220.5 6017.7M891.5 5811.69 3220.5 5811.69M891.5 5605.68 3220.5 5605.68M891.5 5399.68 3220.5 5399.68M891.5 5193.67 3220.5 5193.67M891.5 4987.66 3220.5 4987.66M891.5 4782.5 3220.5 4782.5" stroke="#D9D9D9" stroke-width="3.4375" stroke-linejoin="round" stroke-miterlimit="10" stroke-dasharray="27.5 10.3125" fill="none"/></g><g><path d="M949.031 8666.28 891 8666.28 891 8625.28 949.031 8625.28ZM1081.04 8460.28 891 8460.28 891 8419.28 1081.04 8419.28ZM1200.04 8255.27 891 8255.27 891 8213.27 1200.04 8213.27ZM1138.04 8049.26 891 8049.26 891 8007.26 1138.04 8007.26ZM1072.04 7843.26 891 7843.26 891 7801.26 1072.04 7801.26ZM1171.04 7637.25 891 7637.25 891 7595.25 1171.04 7595.25ZM1173.04 7431.24 891 7431.24 891 7389.24 1173.04 7389.24ZM1263.04 7225.24 891 7225.24 891 7183.24 1263.04 7183.24ZM1169.04 7019.23 891 7019.23 891 6977.23 1169.04 6977.23ZM979.032 6813.22 891 6813.22 891 6771.22 979.032 6771.22ZM1345.04 6607.22 891 6607.22 891 6566.22 1345.04 6566.22ZM1268.04 6401.21 891 6401.21 891 6360.21 1268.04 6360.21ZM1499.05 6195.2 891 6195.2 891 6154.2 1499.05 6154.2ZM1603.05 5989.2 891 5989.2 891 5948.2 1603.05 5948.2ZM1623.05 5783.19 891 5783.19 891 5742.19 1623.05 5742.19ZM1543.05 5578.18 891 5578.18 891 5536.18 1543.05 5536.18ZM1663.05 5372.18 891 5372.18 891 5330.17 1663.05 5330.17ZM1519.05 5166.17 891 5166.17 891 5124.17 1519.05 5124.17ZM1906.06 4960.16 891 4960.16 891 4918.16 1906.06 4918.16Z" fill="#156082"/></g><g><path d="M912.03 8612.28 891 8612.28 891 8571.28 912.03 8571.28ZM983.032 8406.28 891 8406.28 891 8365.27 983.032 8365.27ZM991.033 8200.27 891 8200.27 891 8159.27 991.033 8159.27ZM1091.04 7995.26 891 7995.26 891 7953.26 1091.04 7953.26ZM1129.04 7789.26 891 7789.26 891 7747.25 1129.04 7747.25ZM1132.04 7583.25 891 7583.25 891 7541.25 1132.04 7541.25ZM1134.04 7377.24 891 7377.24 891 7335.24 1134.04 7335.24ZM1179.04 7171.24 891 7171.24 891 7129.23 1179.04 7129.23ZM1188.04 6965.23 891 6965.23 891 6923.23 1188.04 6923.23ZM1201.04 6759.22 891 6759.22 891 6717.22 1201.04 6717.22ZM1210.04 6553.21 891 6553.21 891 6511.21 1210.04 6511.21ZM1297.04 6347.21 891 6347.21 891 6306.21 1297.04 6306.21ZM1452.05 6141.2 891 6141.2 891 6100.2 1452.05 6100.2ZM1490.05 5935.19 891 5935.19 891 5894.19 1490.05 5894.19ZM1524.05 5729.19 891 5729.19 891 5688.19 1524.05 5688.19ZM1525.05 5523.18 891 5523.18 891 5482.18 1525.05 5482.18ZM1562.05 5318.17 891 5318.17 891 5276.17 1562.05 5276.17ZM2032.07 5112.17 891 5112.17 891 5070.17 2032.07 5070.17ZM2945.1 4906.16 891 4906.16 891 4864.16 2945.1 4864.16Z" fill="#E97132"/></g><g><path d="M905.03 8558.28 891 8558.28 891 8517.28 905.03 8517.28ZM930.031 8352.27 891 8352.27 891 8311.27 930.031 8311.27ZM968.032 8146.27 891 8146.27 891 8105.27 968.032 8105.27ZM1092.04 7940.26 891 7940.26 891 7899.26 1092.04 7899.26ZM988.032 7735.25 891 7735.25 891 7693.25 988.032 7693.25ZM1132.04 7529.25 891 7529.25 891 7487.25 1132.04 7487.25ZM1134.04 7323.24 891 7323.24 891 7281.24 1134.04 7281.24ZM1135.04 7117.23 891 7117.23 891 7075.23 1135.04 7075.23ZM1026.03 6911.23 891 6911.23 891 6869.23 1026.03 6869.23ZM932.031 6705.22 891 6705.22 891 6663.22 932.031 6663.22ZM1468.05 6499.21 891 6499.21 891 6457.21 1468.05 6457.21ZM1292.04 6293.21 891 6293.21 891 6251.21 1292.04 6251.21ZM1482.05 6087.2 891 6087.2 891 6046.2 1482.05 6046.2ZM1489.05 5881.19 891 5881.19 891 5840.19 1489.05 5840.19ZM1572.05 5675.19 891 5675.19 891 5634.19 1572.05 5634.19ZM1515.05 5469.18 891 5469.18 891 5428.18 1515.05 5428.18ZM1565.05 5263.17 891 5263.17 891 5222.17 1565.05 5222.17ZM1517.05 5058.17 891 5058.17 891 5016.16 1517.05 5016.16ZM1874.06 4852.16 891 4852.16 891 4810.16 1874.06 4810.16Z" fill="#196B24"/></g><g><path d="M0 0 0.000360892 3912" stroke="#D9D9D9" stroke-width="3.4375" stroke-linejoin="round" stroke-miterlimit="10" fill="none" fill-rule="evenodd" transform="matrix(1 0 0 -1 891.5 8694.5)"/></g><g><path d="M878.5 8694.5 904.5 8694.5M878.5 8488.78 904.5 8488.78M878.5 8282.77 904.5 8282.77M878.5 8076.77 904.5 8076.77M878.5 7870.76 904.5 7870.76M878.5 7664.75 904.5 7664.75M878.5 7458.75 904.5 7458.75M878.5 7252.74 904.5 7252.74M878.5 7047.73 904.5 7047.73M878.5 6841.72 904.5 6841.72M878.5 6635.72 904.5 6635.72M878.5 6429.71 904.5 6429.71M878.5 6223.7 904.5 6223.7M878.5 6017.7 904.5 6017.7M878.5 5811.69 904.5 5811.69M878.5 5605.68 904.5 5605.68M878.5 5399.68 904.5 5399.68M878.5 5193.67 904.5 5193.67M878.5 4987.66 904.5 4987.66M878.5 4782.5 904.5 4782.5" stroke="#D9D9D9" stroke-width="3.4375" stroke-linejoin="round" stroke-miterlimit="10" fill="none"/></g><g><text font-family="Aptos Narrow,Aptos Narrow_MSFontService,sans-serif" font-weight="400" font-stretch="semi-condensed" font-size="41" transform="matrix(1 0 0 1 976.867 8660)">22.4</text></g><g><text font-family="Aptos Narrow,Aptos Narrow_MSFontService,sans-serif" font-weight="400" font-stretch="semi-condensed" font-size="41" transform="matrix(1 0 0 1 1108.93 8454)">73.4</text></g><g><text fill="#FFFFFF" font-family="Aptos Narrow,Aptos Narrow_MSFontService,sans-serif" font-weight="400" font-stretch="semi-condensed" font-size="41" transform="matrix(1 0 0 1 1077.76 8248)">119.1</text></g><g><text fill="#FFFFFF" font-family="Aptos Narrow,Aptos Narrow_MSFontService,sans-serif" font-weight="400" font-stretch="semi-condensed" font-size="41" transform="matrix(1 0 0 1 1036.86 8042)">95.2</text></g><g><text fill="#FFFFFF" font-family="Aptos Narrow,Aptos Narrow_MSFontService,sans-serif" font-weight="400" font-stretch="semi-condensed" font-size="41" transform="matrix(1 0 0 1 970.919 7836)">69.7</text></g><g><text fill="#FFFFFF" font-family="Aptos Narrow,Aptos Narrow_MSFontService,sans-serif" font-weight="400" font-stretch="semi-condensed" font-size="41" transform="matrix(1 0 0 1 1049.56 7630)">108.2</text></g><g><text fill="#FFFFFF" font-family="Aptos Narrow,Aptos Narrow_MSFontService,sans-serif" font-weight="400" font-stretch="semi-condensed" font-size="41" transform="matrix(1 0 0 1 1051.5 7424)">109.0</text></g><g><text fill="#FFFFFF" font-family="Aptos Narrow,Aptos Narrow_MSFontService,sans-serif" font-weight="400" font-stretch="semi-condensed" font-size="41" transform="matrix(1 0 0 1 1140.89 7218)">143.5</text></g><g><text fill="#FFFFFF" font-family="Aptos Narrow,Aptos Narrow_MSFontService,sans-serif" font-weight="400" font-stretch="semi-condensed" font-size="41" transform="matrix(1 0 0 1 1047.62 7012)">107.5</text></g><g><g><text font-family="Aptos Narrow,Aptos Narrow_MSFontService,sans-serif" font-weight="400" font-stretch="semi-condensed" font-size="41" transform="matrix(1 0 0 1 1015.49 6806)">33.7</text></g></g><g><text fill="#FFFFFF" font-family="Aptos Narrow,Aptos Narrow_MSFontService,sans-serif" font-weight="400" font-stretch="semi-condensed" font-size="41" transform="matrix(1 0 0 1 1223.69 6600)">175.5</text></g><g><text fill="#FFFFFF" font-family="Aptos Narrow,Aptos Narrow_MSFontService,sans-serif" font-weight="400" font-stretch="semi-condensed" font-size="41" transform="matrix(1 0 0 1 1146.07 6394)">145.5</text></g><g><text fill="#FFFFFF" font-family="Aptos Narrow,Aptos Narrow_MSFontService,sans-serif" font-weight="400" font-stretch="semi-condensed" font-size="41" transform="matrix(1 0 0 1 1377.39 6189)">234.9</text></g><g><text fill="#FFFFFF" font-family="Aptos Narrow,Aptos Narrow_MSFontService,sans-serif" font-weight="400" font-stretch="semi-condensed" font-size="41" transform="matrix(1 0 0 1 1481.14 5983)">275.0</text></g><g><text fill="#FFFFFF" font-family="Aptos Narrow,Aptos Narrow_MSFontService,sans-serif" font-weight="400" font-stretch="semi-condensed" font-size="41" transform="matrix(1 0 0 1 1501.45 5777)">282.9</text></g><g><text fill="#FFFFFF" font-family="Aptos Narrow,Aptos Narrow_MSFontService,sans-serif" font-weight="400" font-stretch="semi-condensed" font-size="41" transform="matrix(1 0 0 1 1421.5 5571)">252.0</text></g><g><text fill="#FFFFFF" font-family="Aptos Narrow,Aptos Narrow_MSFontService,sans-serif" font-weight="400" font-stretch="semi-condensed" font-size="41" transform="matrix(1 0 0 1 1540.78 5365)">298.1</text></g><g><text fill="#FFFFFF" font-family="Aptos Narrow,Aptos Narrow_MSFontService,sans-serif" font-weight="400" font-stretch="semi-condensed" font-size="41" transform="matrix(1 0 0 1 1397.57 5159)">242.7</text></g><g><text fill="#FFFFFF" font-family="Aptos Narrow,Aptos Narrow_MSFontService,sans-serif" font-weight="400" font-stretch="semi-condensed" font-size="41" transform="matrix(1 0 0 1 1784 4953)">392.1</text></g><g><text font-family="Aptos Narrow,Aptos Narrow_MSFontService,sans-serif" font-weight="400" font-stretch="semi-condensed" font-size="41" transform="matrix(1 0 0 1 939.333 8606)">7.9</text></g><g><text font-family="Aptos Narrow,Aptos Narrow_MSFontService,sans-serif" font-weight="400" font-stretch="semi-condensed" font-size="41" transform="matrix(1 0 0 1 1010.84 8400)">35.5</text></g><g><text font-family="Aptos Narrow,Aptos Narrow_MSFontService,sans-serif" font-weight="400" font-stretch="semi-condensed" font-size="41" transform="matrix(1 0 0 1 1018.52 8194)">38.5</text></g><g><text fill="#FFFFFF" font-family="Aptos Narrow,Aptos Narrow_MSFontService,sans-serif" font-weight="400" font-stretch="semi-condensed" font-size="41" transform="matrix(1 0 0 1 990.583 7988)">77.3</text></g><g><text fill="#FFFFFF" font-family="Aptos Narrow,Aptos Narrow_MSFontService,sans-serif" font-weight="400" font-stretch="semi-condensed" font-size="41" transform="matrix(1 0 0 1 1028.08 7782)">91.8</text></g><g><g><text fill="#FFFFFF" font-family="Aptos Narrow,Aptos Narrow_MSFontService,sans-serif" font-weight="400" font-stretch="semi-condensed" font-size="41" transform="matrix(1 0 0 1 1049.67 7578)">92.9</text></g></g><g><text fill="#FFFFFF" font-family="Aptos Narrow,Aptos Narrow_MSFontService,sans-serif" font-weight="400" font-stretch="semi-condensed" font-size="41" transform="matrix(1 0 0 1 1033.5 7370)">93.9</text></g><g><text fill="#FFFFFF" font-family="Aptos Narrow,Aptos Narrow_MSFontService,sans-serif" font-weight="400" font-stretch="semi-condensed" font-size="41" transform="matrix(1 0 0 1 1057.45 7164)">111.3</text></g><g><text fill="#FFFFFF" font-family="Aptos Narrow,Aptos Narrow_MSFontService,sans-serif" font-weight="400" font-stretch="semi-condensed" font-size="41" transform="matrix(1 0 0 1 1065.86 6958)">114.5</text></g><g><text fill="#FFFFFF" font-family="Aptos Narrow,Aptos Narrow_MSFontService,sans-serif" font-weight="400" font-stretch="semi-condensed" font-size="41" transform="matrix(1 0 0 1 1079.18 6752)">119.7</text></g><g><text fill="#FFFFFF" font-family="Aptos Narrow,Aptos Narrow_MSFontService,sans-serif" font-weight="400" font-stretch="semi-condensed" font-size="41" transform="matrix(1 0 0 1 1088.37 6546)">123.2</text></g><g><text fill="#FFFFFF" font-family="Aptos Narrow,Aptos Narrow_MSFontService,sans-serif" font-weight="400" font-stretch="semi-condensed" font-size="41" transform="matrix(1 0 0 1 1175.31 6340)">156.8</text></g><g><text fill="#FFFFFF" font-family="Aptos Narrow,Aptos Narrow_MSFontService,sans-serif" font-weight="400" font-stretch="semi-condensed" font-size="41" transform="matrix(1 0 0 1 1330.55 6134)">216.8</text></g><g><text fill="#FFFFFF" font-family="Aptos Narrow,Aptos Narrow_MSFontService,sans-serif" font-weight="400" font-stretch="semi-condensed" font-size="41" transform="matrix(1 0 0 1 1368.33 5929)">231.4</text></g><g><text fill="#FFFFFF" font-family="Aptos Narrow,Aptos Narrow_MSFontService,sans-serif" font-weight="400" font-stretch="semi-condensed" font-size="41" transform="matrix(1 0 0 1 1401.84 5723)">244.4</text></g><g><text fill="#FFFFFF" font-family="Aptos Narrow,Aptos Narrow_MSFontService,sans-serif" font-weight="400" font-stretch="semi-condensed" font-size="41" transform="matrix(1 0 0 1 1403 5517)">244.8</text></g><g><text fill="#FFFFFF" font-family="Aptos Narrow,Aptos Narrow_MSFontService,sans-serif" font-weight="400" font-stretch="semi-condensed" font-size="41" transform="matrix(1 0 0 1 1439.74 5311)">259.0</text></g><g><text fill="#FFFFFF" font-family="Aptos Narrow,Aptos Narrow_MSFontService,sans-serif" font-weight="400" font-stretch="semi-condensed" font-size="41" transform="matrix(1 0 0 1 1910.66 5105)">441.0</text></g><g><text fill="#FFFFFF" font-family="Aptos Narrow,Aptos Narrow_MSFontService,sans-serif" font-weight="400" font-stretch="semi-condensed" font-size="41" transform="matrix(1 0 0 1 2823.77 4899)">793.9</text></g><g><text font-family="Aptos Narrow,Aptos Narrow_MSFontService,sans-serif" font-weight="400" font-stretch="semi-condensed" font-size="41" transform="matrix(1 0 0 1 932.476 8552)">5.2</text></g><g><text font-family="Aptos Narrow,Aptos Narrow_MSFontService,sans-serif" font-weight="400" font-stretch="semi-condensed" font-size="41" transform="matrix(1 0 0 1 957.461 8346)">14.9</text></g><g><text font-family="Aptos Narrow,Aptos Narrow_MSFontService,sans-serif" font-weight="400" font-stretch="semi-condensed" font-size="41" transform="matrix(1 0 0 1 995.665 8140)">29.7</text></g><g><text fill="#FFFFFF" font-family="Aptos Narrow,Aptos Narrow_MSFontService,sans-serif" font-weight="400" font-stretch="semi-condensed" font-size="41" transform="matrix(1 0 0 1 991.437 7934)">77.7</text></g><g><text fill="#FFFFFF" font-family="Aptos Narrow,Aptos Narrow_MSFontService,sans-serif" font-weight="400" font-stretch="semi-condensed" font-size="41" transform="matrix(1 0 0 1 900.596 7728)">37.4</text></g><g><text fill="#FFFFFF" font-family="Aptos Narrow,Aptos Narrow_MSFontService,sans-serif" font-weight="400" font-stretch="semi-condensed" font-size="41" transform="matrix(1 0 0 1 1030.99 7522)">92.9</text></g><g><text fill="#FFFFFF" font-family="Aptos Narrow,Aptos Narrow_MSFontService,sans-serif" font-weight="400" font-stretch="semi-condensed" font-size="41" transform="matrix(1 0 0 1 1033.25 7316)">93.8</text></g><g><text fill="#FFFFFF" font-family="Aptos Narrow,Aptos Narrow_MSFontService,sans-serif" font-weight="400" font-stretch="semi-condensed" font-size="41" transform="matrix(1 0 0 1 1053.24 7110)">94.0</text></g><g><text fill="#FFFFFF" font-family="Aptos Narrow,Aptos Narrow_MSFontService,sans-serif" font-weight="400" font-stretch="semi-condensed" font-size="41" transform="matrix(1 0 0 1 924.992 6904)">52.0</text></g><g><text font-family="Aptos Narrow,Aptos Narrow_MSFontService,sans-serif" font-weight="400" font-stretch="semi-condensed" font-size="41" transform="matrix(1 0 0 1 959.673 6698)">15.8</text></g><g><text fill="#FFFFFF" font-family="Aptos Narrow,Aptos Narrow_MSFontService,sans-serif" font-weight="400" font-stretch="semi-condensed" font-size="41" transform="matrix(1 0 0 1 1345.95 6492)">222.8</text></g><g><text fill="#FFFFFF" font-family="Aptos Narrow,Aptos Narrow_MSFontService,sans-serif" font-weight="400" font-stretch="semi-condensed" font-size="41" transform="matrix(1 0 0 1 1170.52 6286)">155.0</text></g><g><text fill="#FFFFFF" font-family="Aptos Narrow,Aptos Narrow_MSFontService,sans-serif" font-weight="400" font-stretch="semi-condensed" font-size="41" transform="matrix(1 0 0 1 1360.44 6080)">228.4</text></g><g><text fill="#FFFFFF" font-family="Aptos Narrow,Aptos Narrow_MSFontService,sans-serif" font-weight="400" font-stretch="semi-condensed" font-size="41" transform="matrix(1 0 0 1 1367.68 5874)">231.2</text></g><g><text fill="#FFFFFF" font-family="Aptos Narrow,Aptos Narrow_MSFontService,sans-serif" font-weight="400" font-stretch="semi-condensed" font-size="41" transform="matrix(1 0 0 1 1450.09 5669)">263.0</text></g><g><text fill="#FFFFFF" font-family="Aptos Narrow,Aptos Narrow_MSFontService,sans-serif" font-weight="400" font-stretch="semi-condensed" font-size="41" transform="matrix(1 0 0 1 1393.43 5463)">241.1</text></g><g><text fill="#FFFFFF" font-family="Aptos Narrow,Aptos Narrow_MSFontService,sans-serif" font-weight="400" font-stretch="semi-condensed" font-size="41" transform="matrix(1 0 0 1 1442.85 5257)">260.2</text></g><g><text fill="#FFFFFF" font-family="Aptos Narrow,Aptos Narrow_MSFontService,sans-serif" font-weight="400" font-stretch="semi-condensed" font-size="41" transform="matrix(1 0 0 1 1394.85 5051)">241.7</text></g><g><text fill="#FFFFFF" font-family="Aptos Narrow,Aptos Narrow_MSFontService,sans-serif" font-weight="400" font-stretch="semi-condensed" font-size="41" transform="matrix(1 0 0 1 1752.57 4845)">379.9</text></g><g><text font-family="Aptos Narrow,Aptos Narrow_MSFontService,sans-serif" font-weight="400" font-stretch="semi-condensed" font-size="41" transform="matrix(1 0 0 1 880.971 8760)">0</text></g><g><text font-family="Aptos Narrow,Aptos Narrow_MSFontService,sans-serif" font-weight="400" font-stretch="semi-condensed" font-size="41" transform="matrix(1 0 0 1 1118.82 8760)">100</text></g><g><text font-family="Aptos Narrow,Aptos Narrow_MSFontService,sans-serif" font-weight="400" font-stretch="semi-condensed" font-size="41" transform="matrix(1 0 0 1 1377.56 8760)">200</text></g><g><text font-family="Aptos Narrow,Aptos Narrow_MSFontService,sans-serif" font-weight="400" font-stretch="semi-condensed" font-size="41" transform="matrix(1 0 0 1 1636.3 8760)">300</text></g><g><text font-family="Aptos Narrow,Aptos Narrow_MSFontService,sans-serif" font-weight="400" font-stretch="semi-condensed" font-size="41" transform="matrix(1 0 0 1 1895.05 8760)">400</text></g><g><text font-family="Aptos Narrow,Aptos Narrow_MSFontService,sans-serif" font-weight="400" font-stretch="semi-condensed" font-size="41" transform="matrix(1 0 0 1 2153.79 8760)">500</text></g><g><text font-family="Aptos Narrow,Aptos Narrow_MSFontService,sans-serif" font-weight="400" font-stretch="semi-condensed" font-size="41" transform="matrix(1 0 0 1 2412.54 8760)">600</text></g><g><text font-family="Aptos Narrow,Aptos Narrow_MSFontService,sans-serif" font-weight="400" font-stretch="semi-condensed" font-size="41" transform="matrix(1 0 0 1 2671.28 8760)">700</text></g><g><text font-family="Aptos Narrow,Aptos Narrow_MSFontService,sans-serif" font-weight="400" font-stretch="semi-condensed" font-size="41" transform="matrix(1 0 0 1 2930.03 8760)">800</text></g><g><text font-family="Aptos Narrow,Aptos Narrow_MSFontService,sans-serif" font-weight="400" font-stretch="semi-condensed" font-size="41" transform="matrix(1 0 0 1 3188.77 8760)">900</text></g><g><text font-family="Aptos Narrow,Aptos Narrow_MSFontService,sans-serif" font-weight="400" font-stretch="semi-condensed" font-size="41" transform="matrix(1 0 0 1 591.376 8603)">Sum simple ints</text></g><g><text font-family="Aptos Narrow,Aptos Narrow_MSFontService,sans-serif" font-weight="400" font-stretch="semi-condensed" font-size="41" transform="matrix(1 0 0 1 648.782 8397)">Sum int field</text></g><g><text font-family="Aptos Narrow,Aptos Narrow_MSFontService,sans-serif" font-weight="400" font-stretch="semi-condensed" font-size="41" transform="matrix(1 0 0 1 535.734 8191)">Naive-sum doubles</text></g><g><text font-family="Aptos Narrow,Aptos Narrow_MSFontService,sans-serif" font-weight="400" font-stretch="semi-condensed" font-size="41" transform="matrix(1 0 0 1 531.287 7986)">Small POD iteration</text></g><g><text font-family="Aptos Narrow,Aptos Narrow_MSFontService,sans-serif" font-weight="400" font-stretch="semi-condensed" font-size="41" transform="matrix(1 0 0 1 597.151 7780)">Square integers</text></g><g><text font-family="Aptos Narrow,Aptos Narrow_MSFontService,sans-serif" font-weight="400" font-stretch="semi-condensed" font-size="41" transform="matrix(1 0 0 1 499.364 7574)">Convert: int -&gt; double</text></g><g><text font-family="Aptos Narrow,Aptos Narrow_MSFontService,sans-serif" font-weight="400" font-stretch="semi-condensed" font-size="41" transform="matrix(1 0 0 1 596.532 7368)">Square doubles</text></g><g><text font-family="Aptos Narrow,Aptos Narrow_MSFontService,sans-serif" font-weight="400" font-stretch="semi-condensed" font-size="41" transform="matrix(1 0 0 1 513.435 7162)">Pairwise diffs double</text></g><g><text font-family="Aptos Narrow,Aptos Narrow_MSFontService,sans-serif" font-weight="400" font-stretch="semi-condensed" font-size="41" transform="matrix(1 0 0 1 585.393 6956)">Pairwise diffs int</text></g><g><text font-family="Aptos Narrow,Aptos Narrow_MSFontService,sans-serif" font-weight="400" font-stretch="semi-condensed" font-size="41" transform="matrix(1 0 0 1 554.479 6750)">Minimums by field</text></g><g><text font-family="Aptos Narrow,Aptos Narrow_MSFontService,sans-serif" font-weight="400" font-stretch="semi-condensed" font-size="41" transform="matrix(1 0 0 1 482.612 6544)">Subrange of filtered int</text></g><g><text font-family="Aptos Narrow,Aptos Narrow_MSFontService,sans-serif" font-weight="400" font-stretch="semi-condensed" font-size="41" transform="matrix(1 0 0 1 551.11 6338)">HashMap iteration</text></g><g><text font-family="Aptos Narrow,Aptos Narrow_MSFontService,sans-serif" font-weight="400" font-stretch="semi-condensed" font-size="41" transform="matrix(1 0 0 1 549.941 6132)">Sorted copy of ints</text></g><g><text font-family="Aptos Narrow,Aptos Narrow_MSFontService,sans-serif" font-weight="400" font-stretch="semi-condensed" font-size="41" transform="matrix(1 0 0 1 575.013 5926)">Filter and Project</text></g><g><text font-family="Aptos Narrow,Aptos Narrow_MSFontService,sans-serif" font-weight="400" font-stretch="semi-condensed" font-size="41" transform="matrix(1 0 0 1 540.569 5720)">OrderBy a, Select b</text></g><g><text font-family="Aptos Narrow,Aptos Narrow_MSFontService,sans-serif" font-weight="400" font-stretch="semi-condensed" font-size="41" transform="matrix(1 0 0 1 505.964 5514)">Positive Min. doubles</text></g><g><text font-family="Aptos Narrow,Aptos Narrow_MSFontService,sans-serif" font-weight="400" font-stretch="semi-condensed" font-size="41" transform="matrix(1 0 0 1 638.813 5308)">Filtered pairs</text></g><g><text font-family="Aptos Narrow,Aptos Narrow_MSFontService,sans-serif" font-weight="400" font-stretch="semi-condensed" font-size="41" transform="matrix(1 0 0 1 475.118 5103)">Pos. Minimums by field</text></g><g><text font-family="Aptos Narrow,Aptos Narrow_MSFontService,sans-serif" font-weight="400" font-stretch="semi-condensed" font-size="41" transform="matrix(1 0 0 1 501.748 4897)">Pos.Min. a, OrderBy b</text></g><g><text font-family="Aptos Display,Aptos Display_MSFontService,sans-serif" font-weight="400" font-size="92" transform="matrix(1 0 0 1 1117.5 4594)">Long sequence runtimes  (MSVC  /O2)</text></g><g><rect x="1393" y="4682" width="22" height="22" fill="#196B24"/></g><g><text font-family="Aptos Narrow,Aptos Narrow_MSFontService,sans-serif" font-weight="400" font-stretch="semi-condensed" font-size="41" transform="matrix(1 0 0 1 1425.04 4705)">Handwritten [us]</text></g><g><rect x="1756" y="4682" width="22" height="22" fill="#E97132"/></g><g><text font-family="Aptos Narrow,Aptos Narrow_MSFontService,sans-serif" font-weight="400" font-stretch="semi-condensed" font-size="41" transform="matrix(1 0 0 1 1788 4705)">Ranges  [us]</text></g><g><rect x="2044" y="4682" width="23.0001" height="22" fill="#156082"/></g><g><text font-family="Aptos Narrow,Aptos Narrow_MSFontService,sans-serif" font-weight="400" font-stretch="semi-condensed" font-size="41" transform="matrix(1 0 0 1 2076.17 4705)">Enumerables  [us]</text></g><rect x="445.5" y="4474.5" width="2857" height="4327" stroke="#D9D9D9" stroke-width="3.4375" stroke-linejoin="round" stroke-miterlimit="10" fill="none"/></g></svg>