<svg width="2860" height="4324" xmlns="http://www.w3.org/2000/svg" xmlns:xlink="http://www.w3.org/1999/xlink" xml:space="preserve" overflow="hidden"><defs><clipPath id="clip0"><rect x="444" y="9" width="2860" height="4324"/></clipPath></defs><g clip-path="url(#clip0)" transform="translate(-444 -9)"><rect x="445" y="9.99997" width="2857" height="4321" fill="#FFFFFF"/><g><path d="M996.533 318.5 996.533 4225.5M1102.54 318.5 1102.54 4225.5M1208.54 318.5 1208.54 4225.5M1313.54 318.5 1313.54 4225.5M1525.55 318.5 1525.55 4225.5M1630.55 318.5 1630.55 4225.5M1736.56 318.5 1736.56 4225.5M1841.56 318.5 1841.56 4225.5M2053.57 318.5 2053.57 4225.5M2158.57 318.5 2158.57 4225.5M2264.57 318.5 2264.57 4225.5M2369.58 318.5 2369.58 4225.5M2581.58 318.5 2581.58 4225.5M2686.59 318.5 2686.59 4225.5M2792.59 318.5 2792.59 4225.5M2897.6 318.5 2897.6 4225.5M3109.6 318.5 3109.6 4225.5M3214.5 318.5 3214.5 4225.5" stroke="#F2F2F2" stroke-width="3.4375" stroke-linejoin="round" stroke-miterlimit="10" fill="none"/></g><g><path d="M1419.55 318.5 1419.55 4225.5M1947.56 318.5 1947.56 4225.5M2475.58 318.5 2475.58 4225.5M3003.5 318.5 3003.5 4225.5" stroke="#D9D9D9" stroke-width="3.4375" stroke-linejoin="round" stroke-miterlimit="10" fill="none"/></g><g><path d="M891.5 4225.5 3214.5 4225.5M891.5 4019.63 3214.5 4019.63M891.5 3813.63 3214.5 3813.63M891.5 3608.62 3214.5 3608.62M891.5 3402.61 3214.5 3402.61M891.5 3197.61 3214.5 3197.61M891.5 2991.6 3214.5 2991.6M891.5 2785.59 3214.5 2785.59M891.5 2580.58 3214.5 2580.58M891.5 2374.58 3214.5 2374.58M891.5 2168.57 3214.5 2168.57M891.5 1963.56 3214.5 1963.56M891.5 1757.56 3214.5 1757.56M891.5 1551.55 3214.5 1551.55M891.5 1346.54 3214.5 1346.54M891.5 1140.54 3214.5 1140.54M891.5 935.531 3214.5 935.531M891.5 729.524 3214.5 729.524M891.5 523.517 3214.5 523.517M891.5 318.5 3214.5 318.5" stroke="#D9D9D9" stroke-width="3.4375" stroke-linejoin="round" stroke-miterlimit="10" stroke-dasharray="27.5 10.3125" fill="none"/></g><g><path d="M1219.04 4197.14 891 4197.14 891 4156.14 1219.04 4156.14ZM1409.05 3991.13 891 3991.13 891 3950.13 1409.05 3950.13ZM1018.03 3786.12 891 3786.12 891 3744.12 1018.03 3744.12ZM1018.03 3580.12 891 3580.12 891 3539.12 1018.03 3539.12ZM1530.05 3375.11 891 3375.11 891 3333.11 1530.05 3333.11ZM1499.05 3169.1 891 3169.1 891 3127.1 1499.05 3127.1ZM1562.05 2963.1 891 2963.1 891 2922.1 1562.05 2922.1ZM1557.05 2758.09 891 2758.09 891 2716.09 1557.05 2716.09ZM1520.05 2552.08 891 2552.08 891 2511.08 1520.05 2511.08ZM1631.05 2346.08 891 2346.08 891 2305.08 1631.05 2305.08ZM2423.08 2141.07 891 2141.07 891 2099.07 2423.08 2099.07ZM1705.06 1935.06 891 1935.06 891 1894.06 1705.06 1894.06ZM1567.05 1730.06 891 1730.06 891 1688.06 1567.05 1688.06ZM1609.05 1524.05 891 1524.05 891 1482.05 1609.05 1482.05ZM2438.08 1318.04 891 1318.04 891 1277.04 2438.08 1277.04ZM1852.06 1113.04 891 1113.04 891 1071.04 1852.06 1071.04ZM2539.08 907.03 891 907.03 891 866.028 2539.08 866.028ZM2792.09 701.023 891 701.023 891 660.022 2792.09 660.022ZM3151.1 496.016 891 496.016 891 454.015 3151.1 454.015Z" fill="#156082"/></g><g><path d="M1356.04 4143.14 891 4143.14 891 4102.13 1356.04 4102.13ZM1361.04 3937.13 891 3937.13 891 3896.13 1361.04 3896.13ZM1409.05 3732.12 891 3732.12 891 3690.12 1409.05 3690.12ZM1409.05 3526.12 891 3526.12 891 3485.11 1409.05 3485.11ZM1441.05 3321.11 891 3321.11 891 3279.11 1441.05 3279.11ZM1483.05 3115.1 891 3115.1 891 3073.1 1483.05 3073.1ZM1493.05 2909.1 891 2909.1 891 2868.09 1493.05 2868.09ZM1504.05 2704.09 891 2704.09 891 2662.09 1504.05 2662.09ZM1509.05 2498.08 891 2498.08 891 2457.08 1509.05 2457.08ZM1514.05 2292.08 891 2292.08 891 2251.07 1514.05 2251.07ZM1567.05 2087.07 891 2087.07 891 2045.07 1567.05 2045.07ZM1578.05 1881.06 891 1881.06 891 1840.06 1578.05 1840.06ZM1641.05 1676.06 891 1676.06 891 1634.05 1641.05 1634.05ZM1662.05 1470.05 891 1470.05 891 1428.05 1662.05 1428.05ZM1800.06 1264.04 891 1264.04 891 1223.04 1800.06 1223.04ZM1815.06 1059.03 891 1059.03 891 1017.03 1815.06 1017.03ZM2454.08 853.028 891 853.028 891 812.027 2454.08 812.027ZM2734.09 647.021 891 647.021 891 606.02 2734.09 606.02ZM3125.1 442.014 891 442.014 891 400.013 3125.1 400.013Z" fill="#E97132"/></g><g><path d="M1039.03 4089.13 891 4089.13 891 4048.13 1039.03 4048.13ZM1335.04 3883.13 891 3883.13 891 3842.13 1335.04 3842.13ZM1018.03 3678.12 891 3678.12 891 3636.12 1018.03 3636.12ZM1071.04 3472.11 891 3472.11 891 3431.11 1071.04 3431.11ZM1462.05 3267.11 891 3267.11 891 3225.11 1462.05 3225.11ZM1430.05 3061.1 891 3061.1 891 3019.1 1430.05 3019.1ZM1483.05 2855.09 891 2855.09 891 2814.09 1483.05 2814.09ZM1493.05 2650.09 891 2650.09 891 2608.09 1493.05 2608.09ZM1493.05 2444.08 891 2444.08 891 2403.08 1493.05 2403.08ZM1504.05 2238.07 891 2238.07 891 2197.07 1504.05 2197.07ZM2275.07 2033.07 891 2033.07 891 1991.07 2275.07 1991.07ZM1504.05 1827.06 891 1827.06 891 1786.06 1504.05 1786.06ZM1430.05 1622.05 891 1622.05 891 1580.05 1430.05 1580.05ZM1483.05 1416.05 891 1416.05 891 1374.05 1483.05 1374.05ZM2296.08 1210.04 891 1210.04 891 1169.04 2296.08 1169.04ZM1778.06 1005.03 891 1005.03 891 963.032 1778.06 963.032ZM2438.08 799.026 891 799.026 891 758.025 2438.08 758.025ZM2729.09 593.019 891 593.019 891 552.018 2729.09 552.018ZM3109.1 388.013 891 388.013 891 346.011 3109.1 346.011Z" fill="#196B24"/></g><g><path d="M0 0 0.000360892 3907" stroke="#D9D9D9" stroke-width="3.4375" stroke-linejoin="round" stroke-miterlimit="10" fill="none" fill-rule="evenodd" transform="matrix(1 0 0 -1 891.5 4225.5)"/></g><g><path d="M878.5 4225.5 904.5 4225.5M878.5 4019.63 904.5 4019.63M878.5 3813.63 904.5 3813.63M878.5 3608.62 904.5 3608.62M878.5 3402.61 904.5 3402.61M878.5 3197.61 904.5 3197.61M878.5 2991.6 904.5 2991.6M878.5 2785.59 904.5 2785.59M878.5 2580.58 904.5 2580.58M878.5 2374.58 904.5 2374.58M878.5 2168.57 904.5 2168.57M878.5 1963.56 904.5 1963.56M878.5 1757.56 904.5 1757.56M878.5 1551.55 904.5 1551.55M878.5 1346.54 904.5 1346.54M878.5 1140.54 904.5 1140.54M878.5 935.531 904.5 935.531M878.5 729.524 904.5 729.524M878.5 523.517 904.5 523.517M878.5 318.5 904.5 318.5" stroke="#D9D9D9" stroke-width="3.4375" stroke-linejoin="round" stroke-miterlimit="10" fill="none"/></g><g><text fill="#FFFFFF" font-family="Aptos Narrow,Aptos Narrow_MSFontService,sans-serif" font-weight="400" font-stretch="semi-condensed" font-size="41" transform="matrix(1 0 0 1 1117.88 4190)">.031</text></g><g><text fill="#FFFFFF" font-family="Aptos Narrow,Aptos Narrow_MSFontService,sans-serif" font-weight="400" font-stretch="semi-condensed" font-size="41" transform="matrix(1 0 0 1 1307.97 3985)">.049</text></g><g><text fill="#FFFFFF" font-family="Aptos Narrow,Aptos Narrow_MSFontService,sans-serif" font-weight="400" font-stretch="semi-condensed" font-size="41" transform="matrix(1 0 0 1 918.921 3779)">.012</text></g><g><text fill="#FFFFFF" font-family="Aptos Narrow,Aptos Narrow_MSFontService,sans-serif" font-weight="400" font-stretch="semi-condensed" font-size="41" transform="matrix(1 0 0 1 918.921 3573)">.012</text></g><g><text fill="#FFFFFF" font-family="Aptos Narrow,Aptos Narrow_MSFontService,sans-serif" font-weight="400" font-stretch="semi-condensed" font-size="41" transform="matrix(1 0 0 1 1429.41 3368)">.061</text></g><g><text fill="#FFFFFF" font-family="Aptos Narrow,Aptos Narrow_MSFontService,sans-serif" font-weight="400" font-stretch="semi-condensed" font-size="41" transform="matrix(1 0 0 1 1397.73 3162)">.058</text></g><g><text fill="#FFFFFF" font-family="Aptos Narrow,Aptos Narrow_MSFontService,sans-serif" font-weight="400" font-stretch="semi-condensed" font-size="41" transform="matrix(1 0 0 1 1461.1 2957)">.064</text></g><g><text fill="#FFFFFF" font-family="Aptos Narrow,Aptos Narrow_MSFontService,sans-serif" font-weight="400" font-stretch="semi-condensed" font-size="41" transform="matrix(1 0 0 1 1455.82 2751)">.063</text></g><g><text fill="#FFFFFF" font-family="Aptos Narrow,Aptos Narrow_MSFontService,sans-serif" font-weight="400" font-stretch="semi-condensed" font-size="41" transform="matrix(1 0 0 1 1418.85 2545)">.060</text></g><g><text fill="#FFFFFF" font-family="Aptos Narrow,Aptos Narrow_MSFontService,sans-serif" font-weight="400" font-stretch="semi-condensed" font-size="41" transform="matrix(1 0 0 1 1529.74 2340)">.070</text></g><g><text fill="#FFFFFF" font-family="Aptos Narrow,Aptos Narrow_MSFontService,sans-serif" font-weight="400" font-stretch="semi-condensed" font-size="41" transform="matrix(1 0 0 1 2321.79 2134)">.145</text></g><g><text fill="#FFFFFF" font-family="Aptos Narrow,Aptos Narrow_MSFontService,sans-serif" font-weight="400" font-stretch="semi-condensed" font-size="41" transform="matrix(1 0 0 1 1603.66 1928)">.077</text></g><g><text fill="#FFFFFF" font-family="Aptos Narrow,Aptos Narrow_MSFontService,sans-serif" font-weight="400" font-stretch="semi-condensed" font-size="41" transform="matrix(1 0 0 1 1466.38 1723)">.064</text></g><g><text fill="#FFFFFF" font-family="Aptos Narrow,Aptos Narrow_MSFontService,sans-serif" font-weight="400" font-stretch="semi-condensed" font-size="41" transform="matrix(1 0 0 1 1508.62 1517)">.068</text></g><g><text fill="#FFFFFF" font-family="Aptos Narrow,Aptos Narrow_MSFontService,sans-serif" font-weight="400" font-stretch="semi-condensed" font-size="41" transform="matrix(1 0 0 1 2337.63 1311)">.147</text></g><g><text fill="#FFFFFF" font-family="Aptos Narrow,Aptos Narrow_MSFontService,sans-serif" font-weight="400" font-stretch="semi-condensed" font-size="41" transform="matrix(1 0 0 1 1751.51 1106)">.091</text></g><g><text fill="#FFFFFF" font-family="Aptos Narrow,Aptos Narrow_MSFontService,sans-serif" font-weight="400" font-stretch="semi-condensed" font-size="41" transform="matrix(1 0 0 1 2437.95 900)">.156</text></g><g><text fill="#FFFFFF" font-family="Aptos Narrow,Aptos Narrow_MSFontService,sans-serif" font-weight="400" font-stretch="semi-condensed" font-size="41" transform="matrix(1 0 0 1 2691.41 695)">.180</text></g><g><text fill="#FFFFFF" font-family="Aptos Narrow,Aptos Narrow_MSFontService,sans-serif" font-weight="400" font-stretch="semi-condensed" font-size="41" transform="matrix(1 0 0 1 3050.47 489)">.214</text></g><g><text fill="#FFFFFF" font-family="Aptos Narrow,Aptos Narrow_MSFontService,sans-serif" font-weight="400" font-stretch="semi-condensed" font-size="41" transform="matrix(1 0 0 1 1255.16 4136)">.044</text></g><g><text fill="#FFFFFF" font-family="Aptos Narrow,Aptos Narrow_MSFontService,sans-serif" font-weight="400" font-stretch="semi-condensed" font-size="41" transform="matrix(1 0 0 1 1260.44 3931)">.045</text></g><g><text fill="#FFFFFF" font-family="Aptos Narrow,Aptos Narrow_MSFontService,sans-serif" font-weight="400" font-stretch="semi-condensed" font-size="41" transform="matrix(1 0 0 1 1307.97 3725)">.049</text></g><g><text fill="#FFFFFF" font-family="Aptos Narrow,Aptos Narrow_MSFontService,sans-serif" font-weight="400" font-stretch="semi-condensed" font-size="41" transform="matrix(1 0 0 1 1307.97 3519)">.049</text></g><g><text fill="#FFFFFF" font-family="Aptos Narrow,Aptos Narrow_MSFontService,sans-serif" font-weight="400" font-stretch="semi-condensed" font-size="41" transform="matrix(1 0 0 1 1339.65 3314)">.052</text></g><g><text fill="#FFFFFF" font-family="Aptos Narrow,Aptos Narrow_MSFontService,sans-serif" font-weight="400" font-stretch="semi-condensed" font-size="41" transform="matrix(1 0 0 1 1381.89 3108)">.056</text></g><g><text fill="#FFFFFF" font-family="Aptos Narrow,Aptos Narrow_MSFontService,sans-serif" font-weight="400" font-stretch="semi-condensed" font-size="41" transform="matrix(1 0 0 1 1392.45 2902)">.057</text></g><g><text fill="#FFFFFF" font-family="Aptos Narrow,Aptos Narrow_MSFontService,sans-serif" font-weight="400" font-stretch="semi-condensed" font-size="41" transform="matrix(1 0 0 1 1403.01 2697)">.058</text></g><g><text fill="#FFFFFF" font-family="Aptos Narrow,Aptos Narrow_MSFontService,sans-serif" font-weight="400" font-stretch="semi-condensed" font-size="41" transform="matrix(1 0 0 1 1408.29 2491)">.059</text></g><g><text fill="#FFFFFF" font-family="Aptos Narrow,Aptos Narrow_MSFontService,sans-serif" font-weight="400" font-stretch="semi-condensed" font-size="41" transform="matrix(1 0 0 1 1413.57 2286)">.059</text></g><g><text fill="#FFFFFF" font-family="Aptos Narrow,Aptos Narrow_MSFontService,sans-serif" font-weight="400" font-stretch="semi-condensed" font-size="41" transform="matrix(1 0 0 1 1466.38 2080)">.064</text></g><g><text fill="#FFFFFF" font-family="Aptos Narrow,Aptos Narrow_MSFontService,sans-serif" font-weight="400" font-stretch="semi-condensed" font-size="41" transform="matrix(1 0 0 1 1476.94 1874)">.065</text></g><g><text fill="#FFFFFF" font-family="Aptos Narrow,Aptos Narrow_MSFontService,sans-serif" font-weight="400" font-stretch="semi-condensed" font-size="41" transform="matrix(1 0 0 1 1540.3 1669)">.071</text></g><g><text fill="#FFFFFF" font-family="Aptos Narrow,Aptos Narrow_MSFontService,sans-serif" font-weight="400" font-stretch="semi-condensed" font-size="41" transform="matrix(1 0 0 1 1561.42 1463)">.073</text></g><g><text fill="#FFFFFF" font-family="Aptos Narrow,Aptos Narrow_MSFontService,sans-serif" font-weight="400" font-stretch="semi-condensed" font-size="41" transform="matrix(1 0 0 1 1698.71 1257)">.086</text></g><g><text fill="#FFFFFF" font-family="Aptos Narrow,Aptos Narrow_MSFontService,sans-serif" font-weight="400" font-stretch="semi-condensed" font-size="41" transform="matrix(1 0 0 1 1714.55 1052)">.088</text></g><g><text fill="#FFFFFF" font-family="Aptos Narrow,Aptos Narrow_MSFontService,sans-serif" font-weight="400" font-stretch="semi-condensed" font-size="41" transform="matrix(1 0 0 1 2353.47 846)">.148</text></g><g><text fill="#FFFFFF" font-family="Aptos Narrow,Aptos Narrow_MSFontService,sans-serif" font-weight="400" font-stretch="semi-condensed" font-size="41" transform="matrix(1 0 0 1 2633.33 641)">.175</text></g><g><text fill="#FFFFFF" font-family="Aptos Narrow,Aptos Narrow_MSFontService,sans-serif" font-weight="400" font-stretch="semi-condensed" font-size="41" transform="matrix(1 0 0 1 3024.07 435)">.212</text></g><g><text fill="#FFFFFF" font-family="Aptos Narrow,Aptos Narrow_MSFontService,sans-serif" font-weight="400" font-stretch="semi-condensed" font-size="41" transform="matrix(1 0 0 1 938.345 4082)">.014</text></g><g><text fill="#FFFFFF" font-family="Aptos Narrow,Aptos Narrow_MSFontService,sans-serif" font-weight="400" font-stretch="semi-condensed" font-size="41" transform="matrix(1 0 0 1 1234.04 3877)">.042</text></g><g><text fill="#FFFFFF" font-family="Aptos Narrow,Aptos Narrow_MSFontService,sans-serif" font-weight="400" font-stretch="semi-condensed" font-size="41" transform="matrix(1 0 0 1 918.921 3671)">.012</text></g><g><text fill="#FFFFFF" font-family="Aptos Narrow,Aptos Narrow_MSFontService,sans-serif" font-weight="400" font-stretch="semi-condensed" font-size="41" transform="matrix(1 0 0 1 970.027 3465)">.017</text></g><g><text fill="#FFFFFF" font-family="Aptos Narrow,Aptos Narrow_MSFontService,sans-serif" font-weight="400" font-stretch="semi-condensed" font-size="41" transform="matrix(1 0 0 1 1360.77 3260)">.054</text></g><g><text fill="#FFFFFF" font-family="Aptos Narrow,Aptos Narrow_MSFontService,sans-serif" font-weight="400" font-stretch="semi-condensed" font-size="41" transform="matrix(1 0 0 1 1329.09 3054)">.051</text></g><g><text fill="#FFFFFF" font-family="Aptos Narrow,Aptos Narrow_MSFontService,sans-serif" font-weight="400" font-stretch="semi-condensed" font-size="41" transform="matrix(1 0 0 1 1381.89 2848)">.056</text></g><g><text fill="#FFFFFF" font-family="Aptos Narrow,Aptos Narrow_MSFontService,sans-serif" font-weight="400" font-stretch="semi-condensed" font-size="41" transform="matrix(1 0 0 1 1392.45 2643)">.057</text></g><g><text fill="#FFFFFF" font-family="Aptos Narrow,Aptos Narrow_MSFontService,sans-serif" font-weight="400" font-stretch="semi-condensed" font-size="41" transform="matrix(1 0 0 1 1392.45 2437)">.057</text></g><g><text fill="#FFFFFF" font-family="Aptos Narrow,Aptos Narrow_MSFontService,sans-serif" font-weight="400" font-stretch="semi-condensed" font-size="41" transform="matrix(1 0 0 1 1403.01 2232)">.058</text></g><g><text fill="#FFFFFF" font-family="Aptos Narrow,Aptos Narrow_MSFontService,sans-serif" font-weight="400" font-stretch="semi-condensed" font-size="41" transform="matrix(1 0 0 1 2173.94 2026)">.131</text></g><g><text fill="#FFFFFF" font-family="Aptos Narrow,Aptos Narrow_MSFontService,sans-serif" font-weight="400" font-stretch="semi-condensed" font-size="41" transform="matrix(1 0 0 1 1403.01 1820)">.058</text></g><g><text fill="#FFFFFF" font-family="Aptos Narrow,Aptos Narrow_MSFontService,sans-serif" font-weight="400" font-stretch="semi-condensed" font-size="41" transform="matrix(1 0 0 1 1329.09 1615)">.051</text></g><g><text fill="#FFFFFF" font-family="Aptos Narrow,Aptos Narrow_MSFontService,sans-serif" font-weight="400" font-stretch="semi-condensed" font-size="41" transform="matrix(1 0 0 1 1381.89 1409)">.056</text></g><g><text fill="#FFFFFF" font-family="Aptos Narrow,Aptos Narrow_MSFontService,sans-serif" font-weight="400" font-stretch="semi-condensed" font-size="41" transform="matrix(1 0 0 1 2195.06 1203)">.133</text></g><g><text fill="#FFFFFF" font-family="Aptos Narrow,Aptos Narrow_MSFontService,sans-serif" font-weight="400" font-stretch="semi-condensed" font-size="41" transform="matrix(1 0 0 1 1677.59 998)">.084</text></g><g><text fill="#FFFFFF" font-family="Aptos Narrow,Aptos Narrow_MSFontService,sans-serif" font-weight="400" font-stretch="semi-condensed" font-size="41" transform="matrix(1 0 0 1 2337.63 792)">.147</text></g><g><text fill="#FFFFFF" font-family="Aptos Narrow,Aptos Narrow_MSFontService,sans-serif" font-weight="400" font-stretch="semi-condensed" font-size="41" transform="matrix(1 0 0 1 2628.05 587)">.174</text></g><g><text fill="#FFFFFF" font-family="Aptos Narrow,Aptos Narrow_MSFontService,sans-serif" font-weight="400" font-stretch="semi-condensed" font-size="41" transform="matrix(1 0 0 1 3008.23 381)">.210</text></g><g><text font-family="Aptos Narrow,Aptos Narrow_MSFontService,sans-serif" font-weight="400" font-stretch="semi-condensed" font-size="41" transform="matrix(1 0 0 1 880.971 4290)">0</text></g><g><text font-family="Aptos Narrow,Aptos Narrow_MSFontService,sans-serif" font-weight="400" font-stretch="semi-condensed" font-size="41" transform="matrix(1 0 0 1 1382.74 4290)">0.05</text></g><g><text font-family="Aptos Narrow,Aptos Narrow_MSFontService,sans-serif" font-weight="400" font-stretch="semi-condensed" font-size="41" transform="matrix(1 0 0 1 1921.22 4290)">0.1</text></g><g><text font-family="Aptos Narrow,Aptos Narrow_MSFontService,sans-serif" font-weight="400" font-stretch="semi-condensed" font-size="41" transform="matrix(1 0 0 1 2438.8 4290)">0.15</text></g><g><text font-family="Aptos Narrow,Aptos Narrow_MSFontService,sans-serif" font-weight="400" font-stretch="semi-condensed" font-size="41" transform="matrix(1 0 0 1 2977.28 4290)">0.2</text></g><g><text font-family="Aptos Narrow,Aptos Narrow_MSFontService,sans-serif" font-weight="400" font-stretch="semi-condensed" font-size="41" transform="matrix(1 0 0 1 535.734 4134)">Naive-sum doubles</text></g><g><text font-family="Aptos Narrow,Aptos Narrow_MSFontService,sans-serif" font-weight="400" font-stretch="semi-condensed" font-size="41" transform="matrix(1 0 0 1 549.941 3928)">Sorted copy of ints</text></g><g><text font-family="Aptos Narrow,Aptos Narrow_MSFontService,sans-serif" font-weight="400" font-stretch="semi-condensed" font-size="41" transform="matrix(1 0 0 1 648.782 3723)">Sum int field</text></g><g><text font-family="Aptos Narrow,Aptos Narrow_MSFontService,sans-serif" font-weight="400" font-stretch="semi-condensed" font-size="41" transform="matrix(1 0 0 1 591.376 3517)">Sum simple ints</text></g><g><text font-family="Aptos Narrow,Aptos Narrow_MSFontService,sans-serif" font-weight="400" font-stretch="semi-condensed" font-size="41" transform="matrix(1 0 0 1 531.287 3311)">Small POD iteration</text></g><g><text font-family="Aptos Narrow,Aptos Narrow_MSFontService,sans-serif" font-weight="400" font-stretch="semi-condensed" font-size="41" transform="matrix(1 0 0 1 597.151 3106)">Square integers</text></g><g><text font-family="Aptos Narrow,Aptos Narrow_MSFontService,sans-serif" font-weight="400" font-stretch="semi-condensed" font-size="41" transform="matrix(1 0 0 1 596.532 2900)">Square doubles</text></g><g><text font-family="Aptos Narrow,Aptos Narrow_MSFontService,sans-serif" font-weight="400" font-stretch="semi-condensed" font-size="41" transform="matrix(1 0 0 1 499.364 2695)">Convert: int -&gt; double</text></g><g><text font-family="Aptos Narrow,Aptos Narrow_MSFontService,sans-serif" font-weight="400" font-stretch="semi-condensed" font-size="41" transform="matrix(1 0 0 1 505.964 2489)">Positive Min. doubles</text></g><g><text font-family="Aptos Narrow,Aptos Narrow_MSFontService,sans-serif" font-weight="400" font-stretch="semi-condensed" font-size="41" transform="matrix(1 0 0 1 551.11 2283)">HashMap iteration</text></g><g><text font-family="Aptos Narrow,Aptos Narrow_MSFontService,sans-serif" font-weight="400" font-stretch="semi-condensed" font-size="41" transform="matrix(1 0 0 1 475.118 2078)">Pos. Minimums by field</text></g><g><text font-family="Aptos Narrow,Aptos Narrow_MSFontService,sans-serif" font-weight="400" font-stretch="semi-condensed" font-size="41" transform="matrix(1 0 0 1 482.612 1872)">Subrange of filtered int</text></g><g><text font-family="Aptos Narrow,Aptos Narrow_MSFontService,sans-serif" font-weight="400" font-stretch="semi-condensed" font-size="41" transform="matrix(1 0 0 1 585.393 1666)">Pairwise diffs int</text></g><g><text font-family="Aptos Narrow,Aptos Narrow_MSFontService,sans-serif" font-weight="400" font-stretch="semi-condensed" font-size="41" transform="matrix(1 0 0 1 513.435 1461)">Pairwise diffs double</text></g><g><text font-family="Aptos Narrow,Aptos Narrow_MSFontService,sans-serif" font-weight="400" font-stretch="semi-condensed" font-size="41" transform="matrix(1 0 0 1 501.748 1255)">Pos.Min. a, OrderBy b</text></g><g><text font-family="Aptos Narrow,Aptos Narrow_MSFontService,sans-serif" font-weight="400" font-stretch="semi-condensed" font-size="41" transform="matrix(1 0 0 1 540.569 1050)">OrderBy a, Select b</text></g><g><text font-family="Aptos Narrow,Aptos Narrow_MSFontService,sans-serif" font-weight="400" font-stretch="semi-condensed" font-size="41" transform="matrix(1 0 0 1 575.013 844)">Filter and Project</text></g><g><text font-family="Aptos Narrow,Aptos Narrow_MSFontService,sans-serif" font-weight="400" font-stretch="semi-condensed" font-size="41" transform="matrix(1 0 0 1 554.479 638)">Minimums by field</text></g><g><text font-family="Aptos Narrow,Aptos Narrow_MSFontService,sans-serif" font-weight="400" font-stretch="semi-condensed" font-size="41" transform="matrix(1 0 0 1 638.813 433)">Filtered pairs</text></g><g><text font-family="Aptos Display,Aptos Display_MSFontService,sans-serif" font-weight="400" font-size="92" transform="matrix(1 0 0 1 1110.2 130)">Short sequence runtimes  (MSVC  /O2)</text></g><g><rect x="1397" y="218" width="23" height="22" fill="#196B24"/></g><g><text font-family="Aptos Narrow,Aptos Narrow_MSFontService,sans-serif" font-weight="400" font-stretch="semi-condensed" font-size="41" transform="matrix(1 0 0 1 1429.29 241)">Handwritten  [us]</text></g><g><rect x="1767" y="218" width="23" height="22" fill="#E97132"/></g><g><text font-family="Aptos Narrow,Aptos Narrow_MSFontService,sans-serif" font-weight="400" font-stretch="semi-condensed" font-size="41" transform="matrix(1 0 0 1 1799.59 241)">Ranges [us]</text></g><g><rect x="2047" y="218" width="23" height="22" fill="#156082"/></g><g><text font-family="Aptos Narrow,Aptos Narrow_MSFontService,sans-serif" font-weight="400" font-stretch="semi-condensed" font-size="41" transform="matrix(1 0 0 1 2079.64 241)">Enumerables [us]</text></g><rect x="445.5" y="10.5002" width="2857" height="4321" stroke="#D9D9D9" stroke-width="3.4375" stroke-linejoin="round" stroke-miterlimit="10" fill="none"/></g></svg>