<svg width="3202" height="2348" xmlns="http://www.w3.org/2000/svg" xmlns:xlink="http://www.w3.org/1999/xlink" xml:space="preserve" overflow="hidden"><defs><clipPath id="clip0"><rect x="4179" y="3088" width="3202" height="2348"/></clipPath><clipPath id="clip1"><rect x="4750" y="3397" width="2551" height="1934"/></clipPath></defs><g clip-path="url(#clip0)" transform="translate(-4179 -3088)"><rect x="4180" y="3089" width="3199" height="2345" fill="#FFFFFF"/><g><path d="M4813.66 3397.5 4813.66 5327.5M4877.66 3397.5 4877.66 5327.5M4941.66 3397.5 4941.66 5327.5M5004.66 3397.5 5004.66 5327.5M5132.67 3397.5 5132.67 5327.5M5195.67 3397.5 5195.67 5327.5M5259.67 3397.5 5259.67 5327.5M5323.67 3397.5 5323.67 5327.5M5450.68 3397.5 5450.68 5327.5M5514.68 3397.5 5514.68 5327.5M5577.68 3397.5 5577.68 5327.5M5641.69 3397.5 5641.69 5327.5M5768.69 3397.5 5768.69 5327.5M5832.69 3397.5 5832.69 5327.5M5896.69 3397.5 5896.69 5327.5M5960.7 3397.5 5960.7 5327.5M6087.7 3397.5 6087.7 5327.5M6151.7 3397.5 6151.7 5327.5M6214.7 3397.5 6214.7 5327.5M6278.71 3397.5 6278.71 5327.5M6405.71 3397.5 6405.71 5327.5M6469.71 3397.5 6469.71 5327.5M6533.71 3397.5 6533.71 5327.5M6596.72 3397.5 6596.72 5327.5M6724.72 3397.5 6724.72 5327.5M6787.72 3397.5 6787.72 5327.5M6851.72 3397.5 6851.72 5327.5M6915.73 3397.5 6915.73 5327.5M7042.73 3397.5 7042.73 5327.5M7106.73 3397.5 7106.73 5327.5M7169.74 3397.5 7169.74 5327.5M7233.74 3397.5 7233.74 5327.5" stroke="#F2F2F2" stroke-width="3.4375" stroke-linejoin="round" stroke-miterlimit="10" fill="none"/></g><g><path d="M4750.5 3397.5 4750.5 5327.5M5386.68 3397.5 5386.68 5327.5M5705.69 3397.5 5705.69 5327.5M6023.7 3397.5 6023.7 5327.5M6342.71 3397.5 6342.71 5327.5M6660.72 3397.5 6660.72 5327.5M6978.73 3397.5 6978.73 5327.5M7297.5 3397.5 7297.5 5327.5" stroke="#D9D9D9" stroke-width="3.4375" stroke-linejoin="round" stroke-miterlimit="10" fill="none"/></g><g><path d="M7001.23 5303.17 5069.17 5303.17 5069.17 5267.17 7001.23 5267.17ZM5591.18 5183.17 5069.17 5183.17 5069.17 5147.17 5591.18 5147.17ZM5474.18 5062.17 5069.17 5062.17 5069.17 5026.17 5474.18 5026.17ZM5409.18 4941.16 5069.17 4941.16 5069.17 4905.16 5409.18 4905.16ZM5398.18 4821.16 5069.17 4821.16 5069.17 4785.16 5398.18 4785.16ZM5334.17 4700.15 5069.17 4700.15 5069.17 4664.15 5334.17 4664.15ZM5282.17 4579.15 5069.17 4579.15 5069.17 4543.15 5282.17 4543.15ZM5271.17 4459.15 5069.17 4459.15 5069.17 4423.15 5271.17 4423.15ZM5260.17 4338.14 5069.17 4338.14 5069.17 4302.14 5260.17 4302.14ZM5239.17 4217.14 5069.17 4217.14 5069.17 4181.14 5239.17 4181.14ZM5236.17 4097.13 5069.17 4097.13 5069.17 4061.13 5236.17 4061.13ZM5201.17 3976.13 5069.17 3976.13 5069.17 3940.13 5201.17 3940.13ZM5172.17 3855.13 5069.17 3855.13 5069.17 3819.13 5172.17 3819.13ZM5139.17 3735.12 5069.17 3735.12 5069.17 3699.12 5139.17 3699.12ZM5123.17 3614.12 5069.17 3614.12 5069.17 3578.12 5123.17 3578.12ZM5099.17 3493.11 5069.17 3493.11 5069.17 3457.11 5099.17 3457.11Z" fill="#156082"/></g><g clip-path="url(#clip1)"><path d="M8480 5267.17 5069.17 5267.17 5069.17 5231.17 8480 5231.17ZM5261.17 5147.17 5069.17 5147.17 5069.17 5111.17 5261.17 5111.17ZM5693.19 5026.17 5069.17 5026.17 5069.17 4990.16 5693.19 4990.16ZM5552.18 4905.16 5069.17 4905.16 5069.17 4869.16 5552.18 4869.16ZM5096.17 4785.16 5069.17 4785.16 5069.17 4749.16 5096.17 4749.16ZM5164.17 4664.15 5069.17 4664.15 5069.17 4628.15 5164.17 4628.15ZM5097.17 4543.15 5069.17 4543.15 5069.17 4507.15 5097.17 4507.15ZM5225.17 4423.15 5069.17 4423.15 5069.17 4387.14 5225.17 4387.14ZM5010.16 4302.14 5069.17 4302.14 5069.17 4266.14 5010.16 4266.14ZM4255 4181.14 5069.17 4181.14 5069.17 4145.14 4255 4145.14ZM5097.17 4061.13 5069.17 4061.13 5069.17 4025.13 5097.17 4025.13ZM5135.17 3940.13 5069.17 3940.13 5069.17 3904.13 5135.17 3904.13ZM5084.17 3819.13 5069.17 3819.13 5069.17 3783.12 5084.17 3783.12ZM5110.17 3699.12 5069.17 3699.12 5069.17 3663.12 5110.17 3663.12ZM5073.17 3578.12 5069.17 3578.12 5069.17 3542.12 5073.17 3542.12ZM5080.17 3457.11 5069.17 3457.11 5069.17 3421.11 5080.17 3421.11Z" fill="#E97132"/></g><g><path d="M0 0 0.000360892 1930" stroke="#D9D9D9" stroke-width="3.4375" stroke-linejoin="round" stroke-miterlimit="10" fill="none" fill-rule="evenodd" transform="matrix(1 0 0 -1 5068.5 5327.5)"/></g><g><path d="M5055.5 5327.5 5081.5 5327.5M5055.5 5207.67 5081.5 5207.67M5055.5 5086.67 5081.5 5086.67M5055.5 4965.66 5081.5 4965.66M5055.5 4845.66 5081.5 4845.66M5055.5 4724.66 5081.5 4724.66M5055.5 4603.65 5081.5 4603.65M5055.5 4483.65 5081.5 4483.65M5055.5 4362.64 5081.5 4362.64M5055.5 4241.64 5081.5 4241.64M5055.5 4121.64 5081.5 4121.64M5055.5 4000.63 5081.5 4000.63M5055.5 3879.63 5081.5 3879.63M5055.5 3759.62 5081.5 3759.62M5055.5 3638.62 5081.5 3638.62M5055.5 3517.62 5081.5 3517.62M5055.5 3397.5 5081.5 3397.5" stroke="#D9D9D9" stroke-width="3.4375" stroke-linejoin="round" stroke-miterlimit="10" fill="none"/></g><g><text fill="#FFFFFF" font-family="Aptos Narrow,Aptos Narrow_MSFontService,sans-serif" font-weight="400" font-stretch="semi-condensed" font-size="41" transform="matrix(1 0 0 1 5987.89 5299)">121.4</text></g><g><text fill="#FFFFFF" font-family="Aptos Narrow,Aptos Narrow_MSFontService,sans-serif" font-weight="400" font-stretch="semi-condensed" font-size="41" transform="matrix(1 0 0 1 5489.94 5179)">32.8</text></g><g><text fill="#FFFFFF" font-family="Aptos Narrow,Aptos Narrow_MSFontService,sans-serif" font-weight="400" font-stretch="semi-condensed" font-size="41" transform="matrix(1 0 0 1 5373.72 5058)">25.5</text></g><g><text fill="#FFFFFF" font-family="Aptos Narrow,Aptos Narrow_MSFontService,sans-serif" font-weight="400" font-stretch="semi-condensed" font-size="41" transform="matrix(1 0 0 1 5308.45 4937)">21.4</text></g><g><text fill="#FFFFFF" font-family="Aptos Narrow,Aptos Narrow_MSFontService,sans-serif" font-weight="400" font-stretch="semi-condensed" font-size="41" transform="matrix(1 0 0 1 5297.31 4817)">20.7</text></g><g><text fill="#FFFFFF" font-family="Aptos Narrow,Aptos Narrow_MSFontService,sans-serif" font-weight="400" font-stretch="semi-condensed" font-size="41" transform="matrix(1 0 0 1 5164.9 4696)">16.7</text></g><g><text fill="#FFFFFF" font-family="Aptos Narrow,Aptos Narrow_MSFontService,sans-serif" font-weight="400" font-stretch="semi-condensed" font-size="41" transform="matrix(1 0 0 1 5138.63 4575)">13.4</text></g><g><text fill="#FFFFFF" font-family="Aptos Narrow,Aptos Narrow_MSFontService,sans-serif" font-weight="400" font-stretch="semi-condensed" font-size="41" transform="matrix(1 0 0 1 5169.94 4455)">12.7</text></g><g><text fill="#FFFFFF" font-family="Aptos Narrow,Aptos Narrow_MSFontService,sans-serif" font-weight="400" font-stretch="semi-condensed" font-size="41" transform="matrix(1 0 0 1 5190.42 4334)">12</text></g><g><text fill="#FFFFFF" font-family="Aptos Narrow,Aptos Narrow_MSFontService,sans-serif" font-weight="400" font-stretch="semi-condensed" font-size="41" transform="matrix(1 0 0 1 5138.1 4213)">10.7</text></g><g><text fill="#FFFFFF" font-family="Aptos Narrow,Aptos Narrow_MSFontService,sans-serif" font-weight="400" font-stretch="semi-condensed" font-size="41" transform="matrix(1 0 0 1 5134.91 4093)">10.5</text></g><g><text fill="#FFFFFF" font-family="Aptos Narrow,Aptos Narrow_MSFontService,sans-serif" font-weight="400" font-stretch="semi-condensed" font-size="41" transform="matrix(1 0 0 1 5120.79 3972)">8.3</text></g><g><text fill="#FFFFFF" font-family="Aptos Narrow,Aptos Narrow_MSFontService,sans-serif" font-weight="400" font-stretch="semi-condensed" font-size="41" transform="matrix(1 0 0 1 5096.17 3851)">6.5</text></g><g><text font-family="Aptos Narrow,Aptos Narrow_MSFontService,sans-serif" font-weight="400" font-stretch="semi-condensed" font-size="41" transform="matrix(1 0 0 1 5166.22 3731)">4.4</text></g><g><g><text font-family="Aptos Narrow,Aptos Narrow_MSFontService,sans-serif" font-weight="400" font-stretch="semi-condensed" font-size="41" transform="matrix(1 0 0 1 5150.25 3610)">3.4</text></g></g><g><text font-family="Aptos Narrow,Aptos Narrow_MSFontService,sans-serif" font-weight="400" font-stretch="semi-condensed" font-size="41" transform="matrix(1 0 0 1 5126.42 3489)">1.9</text></g><g><text fill="#FFFFFF" font-family="Aptos Narrow,Aptos Narrow_MSFontService,sans-serif" font-weight="400" font-stretch="semi-condensed" font-size="41" transform="matrix(1 0 0 1 6727.41 5263)">214.3</text></g><g><text fill="#FFFFFF" font-family="Aptos Narrow,Aptos Narrow_MSFontService,sans-serif" font-weight="400" font-stretch="semi-condensed" font-size="41" transform="matrix(1 0 0 1 5160.39 5143)">12.1</text></g><g><text fill="#FFFFFF" font-family="Aptos Narrow,Aptos Narrow_MSFontService,sans-serif" font-weight="400" font-stretch="semi-condensed" font-size="41" transform="matrix(1 0 0 1 5591.84 5022)">39.2</text></g><g><text fill="#FFFFFF" font-family="Aptos Narrow,Aptos Narrow_MSFontService,sans-serif" font-weight="400" font-stretch="semi-condensed" font-size="41" transform="matrix(1 0 0 1 5273.95 4901)">30.4</text></g><g><g><text fill="#FFFFFF" font-family="Aptos Narrow,Aptos Narrow_MSFontService,sans-serif" font-weight="400" font-stretch="semi-condensed" font-size="41" transform="matrix(1 0 0 1 5109.72 4660)">6</text></g></g><g><text fill="#FFFFFF" font-family="Aptos Narrow,Aptos Narrow_MSFontService,sans-serif" font-weight="400" font-stretch="semi-condensed" font-size="41" transform="matrix(1 0 0 1 5144.67 4419)">9.8</text></g><g><text font-family="Aptos Narrow,Aptos Narrow_MSFontService,sans-serif" font-weight="400" font-stretch="semi-condensed" font-size="41" transform="matrix(1 0 0 1 4917.11 4298)">-</text></g><g><text font-family="Aptos Narrow,Aptos Narrow_MSFontService,sans-serif" font-weight="400" font-stretch="semi-condensed" font-size="41" transform="matrix(1 0 0 1 4929.74 4298)">3.7</text></g><g><g><text fill="#FFFFFF" font-family="Aptos Narrow,Aptos Narrow_MSFontService,sans-serif" font-weight="400" font-stretch="semi-condensed" font-size="41" transform="matrix(1 0 0 1 4854.09 4177)">-</text></g></g><g><g><text fill="#FFFFFF" font-family="Aptos Narrow,Aptos Narrow_MSFontService,sans-serif" font-weight="400" font-stretch="semi-condensed" font-size="41" transform="matrix(1 0 0 1 4866.72 4177)">51.1</text></g></g><g><text fill="#FFFFFF" font-family="Aptos Narrow,Aptos Narrow_MSFontService,sans-serif" font-weight="400" font-stretch="semi-condensed" font-size="41" transform="matrix(1 0 0 1 5096.17 4057)">1.8</text></g><g><g><text fill="#FFFFFF" font-family="Aptos Narrow,Aptos Narrow_MSFontService,sans-serif" font-weight="400" font-stretch="semi-condensed" font-size="41" transform="matrix(1 0 0 1 5080.64 3936)">4.2</text></g></g><g><text fill="#FFFFFF" font-family="Aptos Narrow,Aptos Narrow_MSFontService,sans-serif" font-weight="400" font-stretch="semi-condensed" font-size="41" transform="matrix(1 0 0 1 5029.75 3815)">1</text></g><g><text font-family="Aptos Narrow,Aptos Narrow_MSFontService,sans-serif" font-weight="400" font-stretch="semi-condensed" font-size="41" transform="matrix(1 0 0 1 5137.57 3695)">2.6</text></g><g><text font-family="Aptos Narrow,Aptos Narrow_MSFontService,sans-serif" font-weight="400" font-stretch="semi-condensed" font-size="41" transform="matrix(1 0 0 1 4723.05 5393)">-20</text></g><g><text font-family="Aptos Narrow,Aptos Narrow_MSFontService,sans-serif" font-weight="400" font-stretch="semi-condensed" font-size="41" transform="matrix(1 0 0 1 5058.22 5393)">0</text></g><g><text font-family="Aptos Narrow,Aptos Narrow_MSFontService,sans-serif" font-weight="400" font-stretch="semi-condensed" font-size="41" transform="matrix(1 0 0 1 5366.19 5393)">20</text></g><g><text font-family="Aptos Narrow,Aptos Narrow_MSFontService,sans-serif" font-weight="400" font-stretch="semi-condensed" font-size="41" transform="matrix(1 0 0 1 5684.6 5393)">40</text></g><g><text font-family="Aptos Narrow,Aptos Narrow_MSFontService,sans-serif" font-weight="400" font-stretch="semi-condensed" font-size="41" transform="matrix(1 0 0 1 6003.01 5393)">60</text></g><g><text font-family="Aptos Narrow,Aptos Narrow_MSFontService,sans-serif" font-weight="400" font-stretch="semi-condensed" font-size="41" transform="matrix(1 0 0 1 6321.42 5393)">80</text></g><g><text font-family="Aptos Narrow,Aptos Narrow_MSFontService,sans-serif" font-weight="400" font-stretch="semi-condensed" font-size="41" transform="matrix(1 0 0 1 6629.39 5393)">100</text></g><g><text font-family="Aptos Narrow,Aptos Narrow_MSFontService,sans-serif" font-weight="400" font-stretch="semi-condensed" font-size="41" transform="matrix(1 0 0 1 6947.8 5393)">120</text></g><g><text font-family="Aptos Narrow,Aptos Narrow_MSFontService,sans-serif" font-weight="400" font-stretch="semi-condensed" font-size="41" transform="matrix(1 0 0 1 7266.21 5393)">140</text></g><g><text font-family="Aptos Narrow,Aptos Narrow_MSFontService,sans-serif" font-weight="400" font-stretch="semi-condensed" font-size="41" transform="matrix(1 0 0 1 4270.82 5279)">Naive-sum doubles</text></g><g><text font-family="Aptos Narrow,Aptos Narrow_MSFontService,sans-serif" font-weight="400" font-stretch="semi-condensed" font-size="41" transform="matrix(1 0 0 1 4217.7 5158)">Subrange of filtered int</text></g><g><text font-family="Aptos Narrow,Aptos Narrow_MSFontService,sans-serif" font-weight="400" font-stretch="semi-condensed" font-size="41" transform="matrix(1 0 0 1 4320.48 5038)">Pairwise diffs int</text></g><g><text font-family="Aptos Narrow,Aptos Narrow_MSFontService,sans-serif" font-weight="400" font-stretch="semi-condensed" font-size="41" transform="matrix(1 0 0 1 4248.52 4917)">Pairwise diffs double</text></g><g><text font-family="Aptos Narrow,Aptos Narrow_MSFontService,sans-serif" font-weight="400" font-stretch="semi-condensed" font-size="41" transform="matrix(1 0 0 1 4286.2 4796)">HashMap iteration</text></g><g><text font-family="Aptos Narrow,Aptos Narrow_MSFontService,sans-serif" font-weight="400" font-stretch="semi-condensed" font-size="41" transform="matrix(1 0 0 1 4285.03 4676)">Sorted copy of ints</text></g><g><text font-family="Aptos Narrow,Aptos Narrow_MSFontService,sans-serif" font-weight="400" font-stretch="semi-condensed" font-size="41" transform="matrix(1 0 0 1 4331.62 4555)">Square doubles</text></g><g><text font-family="Aptos Narrow,Aptos Narrow_MSFontService,sans-serif" font-weight="400" font-stretch="semi-condensed" font-size="41" transform="matrix(1 0 0 1 4332.24 4434)">Square integers</text></g><g><text font-family="Aptos Narrow,Aptos Narrow_MSFontService,sans-serif" font-weight="400" font-stretch="semi-condensed" font-size="41" transform="matrix(1 0 0 1 4266.38 4314)">Small POD iteration</text></g><g><text font-family="Aptos Narrow,Aptos Narrow_MSFontService,sans-serif" font-weight="400" font-stretch="semi-condensed" font-size="41" transform="matrix(1 0 0 1 4210.21 4193)">Pos. Minimums by field</text></g><g><text font-family="Aptos Narrow,Aptos Narrow_MSFontService,sans-serif" font-weight="400" font-stretch="semi-condensed" font-size="41" transform="matrix(1 0 0 1 4234.45 4072)">Convert: int -&gt; double</text></g><g><text font-family="Aptos Narrow,Aptos Narrow_MSFontService,sans-serif" font-weight="400" font-stretch="semi-condensed" font-size="41" transform="matrix(1 0 0 1 4275.66 3952)">OrderBy a, Select b</text></g><g><text font-family="Aptos Narrow,Aptos Narrow_MSFontService,sans-serif" font-weight="400" font-stretch="semi-condensed" font-size="41" transform="matrix(1 0 0 1 4310.1 3831)">Filter and Project</text></g><g><text font-family="Aptos Narrow,Aptos Narrow_MSFontService,sans-serif" font-weight="400" font-stretch="semi-condensed" font-size="41" transform="matrix(1 0 0 1 4241.05 3710)">Positive Min. doubles</text></g><g><text font-family="Aptos Narrow,Aptos Narrow_MSFontService,sans-serif" font-weight="400" font-stretch="semi-condensed" font-size="41" transform="matrix(1 0 0 1 4289.57 3590)">Minimums by field</text></g><g><text font-family="Aptos Narrow,Aptos Narrow_MSFontService,sans-serif" font-weight="400" font-stretch="semi-condensed" font-size="41" transform="matrix(1 0 0 1 4373.9 3469)">Filtered pairs</text></g><g><text font-family="Aptos Display,Aptos Display_MSFontService,sans-serif" font-weight="400" font-size="92" transform="matrix(1 0 0 1 5060.51 3209)">Short sequence overhead  (MSVC  /O2)</text></g><g><rect x="5393" y="3297" width="23" height="22" fill="#E97132"/></g><g><text font-family="Aptos Narrow,Aptos Narrow_MSFontService,sans-serif" font-weight="400" font-stretch="semi-condensed" font-size="41" transform="matrix(1 0 0 1 5425.41 3320)">Ranges ovrhd [%]</text></g><g><rect x="5771" y="3297" width="23" height="22" fill="#156082"/></g><g><text font-family="Aptos Narrow,Aptos Narrow_MSFontService,sans-serif" font-weight="400" font-stretch="semi-condensed" font-size="41" transform="matrix(1 0 0 1 5803.52 3320)">Enumerables ovrhd [%]</text></g><rect x="4180.5" y="3089.5" width="3199" height="2345" stroke="#D9D9D9" stroke-width="3.4375" stroke-linejoin="round" stroke-miterlimit="10" fill="none"/></g></svg>